<svg xmlns="http://www.w3.org/2000/svg" width="274.001" height="142.561" viewBox="0 0 274.001 142.561"><g transform="translate(-388 -28.164)"><path d="M544.136,466.777l-.019-.824c1.355-.032,2.725-.121,4.073-.264l.087.819C546.906,466.654,545.513,466.744,544.136,466.777Zm-4.149-.072c-1.373-.078-2.762-.212-4.127-.4l.112-.817c1.344.184,2.71.316,4.062.393Zm12.4-.8-.153-.809c1.321-.249,2.66-.557,3.981-.914l.215.795C555.084,465.338,553.724,465.65,552.382,465.9Zm-20.6-.318c-1.332-.289-2.684-.635-4.015-1.029l.234-.79c1.312.389,2.643.73,3.956,1.014Zm28.608-1.844-.273-.777c1.268-.446,2.548-.948,3.806-1.492l.326.756C562.97,462.779,561.672,463.289,560.386,463.741Zm-36.551-.5c-1.266-.473-2.556-1-3.831-1.576l.337-.751c1.26.565,2.532,1.089,3.782,1.555Zm44.158-2.78-.375-.734c1.19-.608,2.4-1.271,3.587-1.972l.418.71C570.419,459.174,569.2,459.845,567.993,460.461Zm-51.716-.6c-1.19-.618-2.409-1.293-3.623-2.005l.417-.71c1.2.705,2.408,1.373,3.586,1.984Zm58.855-3.593-.457-.686c1.109-.738,2.237-1.531,3.354-2.356l.489.662C577.392,454.72,576.252,455.521,575.132,456.266Zm-66-.589c-1.12-.726-2.273-1.506-3.427-2.319l.475-.673c1.145.807,2.289,1.581,3.4,2.3Zm72.652-4.329-.52-.639c1.042-.848,2.093-1.742,3.124-2.657l.547.616C583.9,449.591,582.836,450.493,581.785,451.348Zm-79.42-.427c-1.054-.795-2.153-1.647-3.266-2.533l.513-.644q1.611,1.283,3.248,2.52Zm85.609-5.058-.569-.594c.968-.928,1.947-1.9,2.91-2.9l.592.574C589.935,443.946,588.949,444.928,587.974,445.863Zm-92.076-.084q-1.586-1.319-3.15-2.666l.537-.625q1.56,1.341,3.141,2.658Zm-6.262-5.373q-1.551-1.362-3.086-2.731l.548-.615q1.534,1.365,3.082,2.728Zm104.1-.476-.61-.554q.986-1.087,1.941-2.19l.623.54Q594.724,438.834,593.732,439.93Zm-110.255-4.994q-1.544-1.376-3.078-2.736l.546-.617q1.537,1.359,3.081,2.738Zm-161.089-3.313-.7-.431c.722-1.176,1.485-2.341,2.268-3.464l.676.471C323.855,429.308,323.1,430.46,322.388,431.622ZM477.3,429.486q-1.564-1.357-3.126-2.673l.53-.631q1.568,1.319,3.136,2.682Zm-150.24-4.579-.648-.508c.85-1.082,1.742-2.154,2.653-3.185l.617.545C328.786,422.778,327.9,423.837,327.063,424.907ZM471,424.2c-1.069-.857-2.159-1.707-3.241-2.528l.5-.656c1.088.825,2.184,1.68,3.258,2.541Zm-6.549-4.967c-1.109-.795-2.244-1.585-3.372-2.347l.461-.682c1.134.766,2.276,1.561,3.391,2.36Zm-131.97-.468-.586-.579c.968-.978,1.975-1.94,3-2.861l.552.611C334.437,416.849,333.44,417.8,332.484,418.767Zm125.162-4.131c-1.154-.734-2.331-1.459-3.5-2.155l.422-.707c1.173.7,2.356,1.429,3.517,2.168Zm-119.085-1.356-.517-.641c1.065-.86,2.172-1.7,3.291-2.511l.482.668C340.711,411.593,339.615,412.429,338.562,413.279Zm112.031-2.854c-1.2-.669-2.415-1.325-3.615-1.949l.381-.731c1.207.628,2.43,1.288,3.636,1.961ZM345.2,408.487l-.446-.693c1.15-.741,2.341-1.464,3.537-2.15l.409.714C347.518,407.038,346.34,407.754,345.2,408.487Zm98.1-1.85c-1.228-.592-2.481-1.173-3.725-1.727l.335-.753c1.252.557,2.513,1.142,3.748,1.738Zm-91-2.223-.373-.735c1.22-.619,2.476-1.219,3.734-1.782l.336.752C354.759,403.206,353.515,403.8,352.308,404.413Zm83.5-1.113c-1.266-.516-2.553-1.016-3.826-1.487l.286-.772c1.281.474,2.577.978,3.851,1.5Zm-76.023-2.235-.3-.768c1.276-.5,2.583-.976,3.886-1.416l.264.78C362.343,400.1,361.047,400.57,359.784,401.065Zm68.323-.612c-1.3-.433-2.618-.846-3.916-1.228l.233-.79c1.306.385,2.633.8,3.943,1.236Zm-60.562-2.017-.228-.792c1.314-.379,2.659-.735,4-1.057l.193.8C370.181,397.707,368.847,398.06,367.545,398.436Zm52.691-.3c-1.324-.34-2.668-.659-3.992-.948l.175-.8c1.335.291,2.687.612,4.021.955Zm-44.723-1.617-.157-.808c1.347-.262,2.718-.5,4.075-.7l.122.815C378.208,396.023,376.849,396.257,375.513,396.517Zm36.706-.132c-1.352-.242-2.715-.46-4.051-.647l.114-.816c1.346.189,2.72.408,4.083.652Zm-28.6-1.088-.088-.819c1.363-.146,2.749-.265,4.12-.354l.053.822C386.347,395.035,384.972,395.153,383.621,395.3Zm20.475-.049c-1.366-.137-2.742-.247-4.089-.328l.049-.822c1.358.081,2.745.192,4.122.33Zm-12.292-.481-.019-.824q2.07-.048,4.138-.008l-.015.824Q393.859,394.721,391.8,394.767Z" transform="translate(66.314 -350.217)" fill="#c4e8fe"/><path d="M295.057,525.858l1.677-5.371a.307.307,0,0,1,.385-.2l4.074,1.272a.307.307,0,0,0,.349-.128,12.148,12.148,0,0,1,1.9-2.276.307.307,0,0,0,.064-.367l-1.979-3.776a.307.307,0,0,1,.129-.414l4.983-2.612a.307.307,0,0,1,.414.129l1.979,3.776a.307.307,0,0,0,.338.156,12.174,12.174,0,0,1,2.953-.265.307.307,0,0,0,.3-.214l1.272-4.074a.307.307,0,0,1,.385-.2l5.371,1.677a.307.307,0,0,1,.2.385l-1.272,4.074a.307.307,0,0,0,.128.349,12.13,12.13,0,0,1,2.275,1.9.307.307,0,0,0,.367.064l3.776-1.979a.307.307,0,0,1,.414.129l2.614,4.984a.307.307,0,0,1-.129.414l-3.78,1.984a.307.307,0,0,0-.156.338,12.463,12.463,0,0,1,.273,2.951.307.307,0,0,0,.214.3l4.073,1.272a.307.307,0,0,1,.2.385l-1.678,5.375a.307.307,0,0,1-.385.2l-4.073-1.272a.307.307,0,0,0-.348.127,12.426,12.426,0,0,1-1.906,2.277.307.307,0,0,0-.064.367l1.981,3.777a.307.307,0,0,1-.129.415l-4.985,2.611a.307.307,0,0,1-.414-.129l-1.979-3.776a.307.307,0,0,0-.339-.156,12.149,12.149,0,0,1-2.953.272.307.307,0,0,0-.3.214l-1.27,4.066a.307.307,0,0,1-.385.2l-5.371-1.677a.307.307,0,0,1-.2-.385l1.27-4.066a.307.307,0,0,0-.128-.349,12.191,12.191,0,0,1-2.276-1.905.307.307,0,0,0-.367-.064l-3.776,1.979a.307.307,0,0,1-.414-.129l-2.612-4.983a.307.307,0,0,1,.129-.414l3.771-1.981a.307.307,0,0,0,.156-.337,12.258,12.258,0,0,1-.264-2.957.307.307,0,0,0-.214-.3l-4.074-1.272A.307.307,0,0,1,295.057,525.858Zm11.954,4.978c4.228,5.879,12.369,1.6,9.937-5.208a.338.338,0,0,0-.043-.082c-4.216-5.875-12.366-1.614-9.937,5.208A.336.336,0,0,0,307.011,530.836Z" transform="translate(288.125 -483.113)" fill="#def0fe"/><path d="M295.07,538.978l3.186-10.2a.583.583,0,0,1,.731-.383l7.74,2.417a.583.583,0,0,0,.663-.243,23.08,23.08,0,0,1,3.616-4.324.583.583,0,0,0,.122-.7l-3.76-7.173a.583.583,0,0,1,.246-.788l9.466-4.962a.583.583,0,0,1,.787.246l3.76,7.174a.583.583,0,0,0,.642.3,23.127,23.127,0,0,1,5.61-.5.583.583,0,0,0,.578-.407l2.416-7.739a.583.583,0,0,1,.731-.383l10.2,3.186a.583.583,0,0,1,.383.731l-2.416,7.739a.583.583,0,0,0,.244.664,23.042,23.042,0,0,1,4.323,3.6.583.583,0,0,0,.7.122l7.174-3.76a.584.584,0,0,1,.787.246l4.965,9.468a.583.583,0,0,1-.245.787l-7.182,3.77a.583.583,0,0,0-.3.643,23.679,23.679,0,0,1,.518,5.606.583.583,0,0,0,.407.574l7.739,2.416a.583.583,0,0,1,.383.731L356.1,558.041a.583.583,0,0,1-.731.383l-7.739-2.416a.583.583,0,0,0-.661.241,23.607,23.607,0,0,1-3.621,4.326.582.582,0,0,0-.121.7l3.764,7.176a.583.583,0,0,1-.246.787l-9.47,4.961a.583.583,0,0,1-.787-.246l-3.76-7.173a.583.583,0,0,0-.644-.3,23.078,23.078,0,0,1-5.611.517.583.583,0,0,0-.577.407l-2.412,7.725a.583.583,0,0,1-.731.383l-10.2-3.186a.583.583,0,0,1-.383-.731l2.412-7.725a.583.583,0,0,0-.243-.663,23.157,23.157,0,0,1-4.323-3.62.583.583,0,0,0-.7-.122l-7.174,3.76a.583.583,0,0,1-.787-.246l-4.962-9.467a.583.583,0,0,1,.245-.787l7.165-3.764a.583.583,0,0,0,.3-.641,23.286,23.286,0,0,1-.5-5.618.583.583,0,0,0-.407-.578l-7.739-2.416A.583.583,0,0,1,295.07,538.978Zm22.709,9.458c8.032,11.169,23.5,3.042,18.877-9.9a.642.642,0,0,0-.082-.156c-8.009-11.161-23.492-3.066-18.878,9.894A.638.638,0,0,0,317.779,548.436Z" transform="translate(138.026 -404.814)" fill="#def0fe"/></g></svg>