<svg xmlns="http://www.w3.org/2000/svg" xmlns:xlink="http://www.w3.org/1999/xlink" width="318" height="112" viewBox="0 0 318 112"><defs><clipPath id="a"><rect width="318" height="112" transform="translate(765 24)" fill="#fff" stroke="#707070" stroke-width="1"/></clipPath><linearGradient id="b" x1="24.423" y1="-7.354" x2="23.315" y2="-7.354" gradientUnits="objectBoundingBox"><stop offset="0" stop-color="#441045"/><stop offset="1" stop-color="#3e1b5a"/></linearGradient><linearGradient id="c" x1="-6.017" y1="1.265" x2="-6.975" y2="1.265" xlink:href="#b"/><linearGradient id="d" x1="-13.185" y1="1.287" x2="-14.332" y2="1.287" xlink:href="#b"/><linearGradient id="e" x1="1.178" y1="1.606" x2="0.17" y2="1.606" xlink:href="#b"/><linearGradient id="f" x1="1.097" y1="0.629" x2="-0.107" y2="0.629" xlink:href="#b"/></defs><g transform="translate(-765 -24)" clip-path="url(#a)"><g transform="translate(61.746 23.818)"><g transform="matrix(0.966, -0.259, 0.259, 0.966, 703.726, 56.017)"><path d="M255.222,130.855l2.34-16.99-.2-.028c-50.369-6.937-94.986-18.732-132.611-35.056C90.415,63.885,39.132,20.861,16.813.192L16.755.139h-.079L0,0V61.134L25.766,35.367c25.683,23.859,56.689,43.759,92.156,59.147,39.057,16.945,85.183,29.162,137.1,36.313Zm1.88-16.641L254.873,130.4c-51.8-7.149-97.816-19.347-136.788-36.256C82.593,78.742,51.578,58.822,25.9,34.934l-.144-.134L.408,60.148V.412L16.594.546c22.367,20.705,73.637,63.7,107.992,78.61C162.2,95.473,206.78,107.268,257.1,114.214Z" transform="translate(0 13.542)" fill="#ffe066"/><path d="M0,0H60.435L37.4,23.031c24.229,22.437,53.435,41.143,87.06,55.731,37.642,16.331,82.277,28.131,132.664,35.071l-2.284,16.586c-51.9-7.148-98-19.36-137.044-36.3C82.214,78.682,51.268,58.8,25.557,34.878L0,60.435Z" transform="translate(4.968 0)" fill="#ffe066"/></g><g transform="matrix(1, 0.017, -0.017, 1, 752.563, 4.273)"><g transform="matrix(0.946, 0.326, -0.326, 0.946, 92.365, 19.802)"><g transform="translate(39.324 25.499)"><path d="M3.246.2A.736.736,0,0,0,2.219.214L.217,2.2a.736.736,0,0,0-.042,1l0,0,.911.917.511-.507-.87-.875L2.749.724l.9.9.511-.507L3.247.2Z" transform="translate(3.357 3.32)" fill="#272b6f"/><g transform="translate(0 0)"><path d="M5.847,0h5.09a5.847,5.847,0,0,1,5.847,5.847v0a5.345,5.345,0,0,1-5.345,5.345H5.345A5.345,5.345,0,0,1,0,5.847v0A5.847,5.847,0,0,1,5.847,0Z" transform="matrix(0.709, -0.705, 0.705, 0.709, 0, 11.829)" fill="#64679e"/></g><g transform="translate(0 0)"><path d="M4.127,0h8.53a4.127,4.127,0,0,1,4.127,4.127v0a0,0,0,0,1,0,0H0a0,0,0,0,1,0,0v0A4.127,4.127,0,0,1,4.127,0Z" transform="matrix(0.709, -0.705, 0.705, 0.709, 0, 11.829)" fill="#272b6f"/></g><g transform="translate(4.742 10.968)"><path d="M2.076,2.084h0a.615.615,0,0,1-.87,0L0,.868.873,0,2.079,1.213A.615.615,0,0,1,2.076,2.084Z" transform="translate(0 0)" fill="#9c9fd6"/></g><g transform="translate(11.018 4.732)"><path d="M2.076,2.084h0a.615.615,0,0,1-.87,0L0,.868.873,0,2.079,1.213A.615.615,0,0,1,2.076,2.084Z" transform="translate(0 0)" fill="#9c9fd6"/></g></g><path d="M3.27,1.658a3.72,3.72,0,0,1,.6-.742A3.459,3.459,0,0,1,4.6.379,2.985,2.985,0,0,1,5.289.1l.042-.01A2.672,2.672,0,0,1,6.384.025,2.927,2.927,0,0,1,8.2,1.071a3.366,3.366,0,0,1,.435.646c.036.069.07.141.1.214a3.638,3.638,0,0,1,.3,1.294c0,.046,0,.092,0,.138a3.739,3.739,0,0,1-.066.736c-.008.043-.013.078-.018.089-.171.8-.318,1.475-.444,2.033-.406,1.818-.569,2.433-.569,2.433a34.362,34.362,0,0,1-2.226,5.668L3.9,20c-.088.277-.177.555-.264.833-.033.1-.063.19-.093.287l-.275.852c-.007.023-.013.047-.021.069q-.137.429-.274.853l0,.01a1.822,1.822,0,0,1-.457.609,1.546,1.546,0,0,1-1.336.377A1.561,1.561,0,0,1,.092,22.836a1.79,1.79,0,0,1,.019-1.188c.007-.048.014-.1.021-.144.038-.27.078-.543.119-.821.015-.106.031-.211.046-.318.087-.583.176-1.185.266-1.8.015-.1.032-.207.046-.312.585-3.917,1.255-8.3,1.845-12.241q.111-.746.219-1.469c.1-.658.191-1.3.282-1.922Z" transform="translate(10.506 50.602)" fill="#e97c85"/><path d="M.282,18.129c.028-.086.056-.174.085-.262.046-.146.094-.292.142-.439L.6,17.161l.011-.033c.009-.025.017-.052.026-.079C2.251,12.112,4.142,6.431,5.6,1.92c.018-.053.035-.109.054-.164l.119-.246A3.747,3.747,0,0,1,6.726.579,3.325,3.325,0,0,1,8.265.014c.014,0,.029,0,.042,0a2.675,2.675,0,0,1,1.05.113,2.933,2.933,0,0,1,1.611,1.334,3.5,3.5,0,0,1,.321.709,3.7,3.7,0,0,1-.062,2.407c-.015.042-.027.075-.033.086-.486,1.033-.636,1.591-.777,1.928-.188.451-1.217,3-4.36,10.847-.083.208-.168.419-.254.634L4.187,22.11a3.087,3.087,0,0,1-3.479.973C.464,22.034.227,21.019,0,20.052H0Z" transform="translate(13.179 35.098)" fill="#e97c85"/><path d="M15.949,6.662q-.368,1.059-.787,2.14A62.738,62.738,0,0,1,9.235,20.329c-.043.511-.115,1.245-.24,2.122a40.088,40.088,0,0,1-1.792,7.2C6.136,32.947,5.163,35.811,4.329,38.2L0,37.763q.915-9.19,1.83-18.38L8.141,2.054C10.334.154,13.07-.521,15.21.424A5.168,5.168,0,0,1,17.2,2.007Z" transform="translate(10.521 33.855)" fill="#3e428a"/><g transform="translate(4.159 72.874)"><g transform="translate(0 0)"><path d="M0,1.626l.113.626c.323.04.807.09,1.4.113a21.381,21.381,0,0,0,4.31-.356c.949-.148,2.194-.369,3.653-.7q.1-.653.2-1.305Z" transform="translate(0.062 1.731)" fill="#09073a"/><path d="M9.566,2.59A49.835,49.835,0,0,1,2.82,3.6C1.349,3.719.138,3.744.011,3.343c-.117-.371.7-1.1,1.388-1.471a3.58,3.58,0,0,1,.564-.248c.849-.286,2.266-.8,4.183-1.5A13.227,13.227,0,0,0,7.974.166,13.19,13.19,0,0,0,9.555,0a3.5,3.5,0,0,1,.011,2.59Z" fill="#8a84d1"/></g><g transform="translate(4.943 0.275)"><path d="M.859.719.067.257C-.081.17.041-.068.191.019L.983.481c.148.087.026.325-.124.238Z" transform="translate(0 0)" fill="#09073a"/></g><g transform="translate(4.136 0.544)"><path d="M.964.791A8.456,8.456,0,0,1,.051.226c-.141-.1.041-.3.18-.2a7.954,7.954,0,0,0,.856.526A.134.134,0,0,1,.964.791Z" transform="translate(0 0)" fill="#09073a"/></g><g transform="translate(3.72 0.847)"><path d="M.481.627A1.4,1.4,0,0,1,.024.2C-.074.062.151-.084.249.058A1.1,1.1,0,0,0,.605.389C.754.475.631.714.481.627Z" transform="translate(0 0)" fill="#09073a"/></g></g><path d="M.92,5.187A3.724,3.724,0,0,1,.378,4.4a3.5,3.5,0,0,1-.307-.858A3,3,0,0,1,0,2.808c0-.014,0-.029,0-.043A2.68,2.68,0,0,1,.241,1.737,2.929,2.929,0,0,1,1.758.3,3.379,3.379,0,0,1,2.5.065c.077-.015.155-.027.234-.035A3.638,3.638,0,0,1,4.063.105c.045.01.089.022.134.035a3.749,3.749,0,0,1,.687.272c.039.02.071.035.08.042.722.393,1.324.725,1.823,1C8.414,2.365,8.957,2.7,8.957,2.7a34.352,34.352,0,0,1,4.8,3.747L18.678,9.8l.723.491c.082.059.165.114.249.171l.739.506c.02.013.041.026.06.04l.74.505.009.005a1.828,1.828,0,0,1,.453.611,1.45,1.45,0,0,1-1.332,2.127,1.79,1.79,0,0,1-1.134-.356l-.132-.061c-.248-.113-.5-.23-.753-.348l-.292-.135-1.646-.765c-.1-.044-.19-.09-.286-.133C12.488,10.785,8.481,8.9,4.866,7.209L3.521,6.581,1.758,5.764Z" transform="translate(33.015 46.638)" fill="#e97c85"/><path d="M11.449,17.91c-.058-.069-.118-.14-.176-.211l-.3-.354L10.8,17.13l-.022-.027c-.017-.021-.035-.042-.053-.063C7.4,13.047,3.588,8.427.54,4.795.505,4.751.466,4.708.43,4.662L.286,4.43A3.753,3.753,0,0,1,0,3.129a3.324,3.324,0,0,1,.338-1.6c.007-.013.013-.027.02-.037a2.668,2.668,0,0,1,.654-.83A2.935,2.935,0,0,1,3,0a3.5,3.5,0,0,1,.772.1A3.669,3.669,0,0,1,5.272.9a3.706,3.706,0,0,1,.506.538.775.775,0,0,1,.055.074c.617.961,1.01,1.384,1.221,1.682.282.4,1.894,2.623,6.875,9.455.132.181.265.365.4.552L16.9,16.717a3.088,3.088,0,0,1-1.024,3.465c-1.018-.351-2-.69-2.944-1.011h0Z" transform="translate(24.088 34.432)" fill="#e97c85"/><path d="M8.165,3.53q.7.874,1.395,1.8a62.715,62.715,0,0,1,6.618,11.145q1.529.795,3.093,1.686a89.674,89.674,0,0,1,10.893,7.33L28.32,29.936,11.444,22.25.113,7.7C-.332,4.831.549,2.154,2.487.844A5.169,5.169,0,0,1,4.884,0Z" transform="translate(23.513 31.038)" fill="#4a4fa6"/><g transform="translate(52.664 57.731)"><g transform="translate(0.163 0)"><path d="M0,9.732l.632.07c.13-.3.316-.748.506-1.307a21.37,21.37,0,0,0,.884-4.234c.128-.952.271-2.209.364-3.7L1.191,0Q.6,4.866,0,9.732Z" transform="translate(1.373 0.339)" fill="#09073a"/><path d="M3.34.741A49.884,49.884,0,0,1,2.393,7.5c-.307,1.443-.628,2.611-1.049,2.618C.955,10.122.492,9.134.329,8.366a3.581,3.581,0,0,1-.078-.611C.219,6.86.13,5.355,0,3.317A13.2,13.2,0,0,0,.563,1.578,13.233,13.233,0,0,0,.854.015,3.5,3.5,0,0,1,3.34.741Z" transform="translate(0 0)" fill="#8a84d1"/></g><g transform="translate(0 3.672)"><path d="M.9.224.234.852C.109.97-.085.784.041.665L.708.038C.834-.08,1.028.106.9.224Z" transform="translate(0 0)" fill="#09073a"/></g><g transform="translate(0.033 4.439)"><path d="M1,.227a8.438,8.438,0,0,1-.8.714C.058,1.048-.079.817.055.712A7.95,7.95,0,0,0,.8.04C.924-.083,1.117.1,1,.227Z" transform="translate(0 0)" fill="#09073a"/></g><g transform="translate(0.204 5.343)"><path d="M.7.224A1.4,1.4,0,0,1,.168.542.134.134,0,0,1,.091.285,1.1,1.1,0,0,0,.51.038C.635-.08.829.105.7.224Z" transform="translate(0 0)" fill="#09073a"/></g></g><g transform="translate(0 24.448)"><path d="M4.93,7.074c.016-.005.033-.015.047-.02C5.06,7.024,5.121,7,5.134,7c.045-.015.125-.044.208-.076,0,0,.109-.039.307-.115s4.128-1.629,9.509-3.761a1.93,1.93,0,0,0,.589-1.13,1.833,1.833,0,0,0-.593-1.6,1.782,1.782,0,0,0-2.177.136A41.668,41.668,0,0,1,9.4,2.779c-.135.074-.7.383-1.466.832q-.479.281-.966.579Q5.808,4.9,4.765,5.6l-.193.059-.038.011h0l-.026.009-.026.008a6.758,6.758,0,0,0-1.838.282c-.121.037-2.6.8-2.643,1.907a.733.733,0,0,0,.085.38.7.7,0,0,0,.225.24h0l0,0a2.238,2.238,0,0,0,1.123.242C2.928,8.778,4.493,7.459,4.93,7.074Z" transform="translate(0 0)" fill="#f17a88"/></g><path d="M8.3,11.087,0,16.027l1.053,2.809,9.773-3.628c1.786-2.922,3.22-5.442,4.289-7.384C17.085,4.25,17.848,2.6,17.128,1.356A2.906,2.906,0,0,0,14.807,0a3.367,3.367,0,0,0-2.585,1.292,22.337,22.337,0,0,0-1.06,2.065c-.1.227-.2.446-.283.659-.146.355-.267.677-.368.957-.165.458-.274.805-.3.878C10.055,6.353,9.573,7.7,8.3,11.087Z" transform="translate(4.217 13.679)" fill="#21255e"/><path d="M.694.126C.46.092.217.05,0,0A7.485,7.485,0,0,0,.726.326Z" transform="translate(26.99 36.005)" fill="#12223d" opacity="0.32"/><path d="M.455.293C.528.315.608.335.693.355A4.407,4.407,0,0,0,0,0,.832.832,0,0,0,.455.293Z" transform="translate(26.298 35.649)" fill="#12223d" opacity="0.32"/><path d="M0,0" transform="translate(23.963 30.968)" fill="#fcbd24"/><path d="M0,0" transform="translate(25.982 34.649)" fill="#fcbd24"/><path d="M.392,7.148A2.853,2.853,0,0,0,1.1,5.5a2.5,2.5,0,0,0-.009-.423c-.005-.059-.012-.119-.021-.181,0,0-.013-.092-.032-.186A16.508,16.508,0,0,0,0,2.61a5.679,5.679,0,0,0,1.662-.965A5.679,5.679,0,0,0,3.008,0q0,.3,0,.6a15.436,15.436,0,0,0,.959,1.6A15.415,15.415,0,0,0,5.358,3.932l.366.328a3.018,3.018,0,0,1-.248,1.007A3.709,3.709,0,0,1,3.9,6.855C2.744,7.607,1.213,8.606.616,8.107.492,8,.327,7.768.392,7.148Z" transform="translate(17.548 8.401)" fill="#f17a88"/><path d="M2.855,24.627c.128.018.26.035.4.052A21.362,21.362,0,0,0,16.824,21.8c-.374-.977-.942-2.542-1.515-4.5-1.6-5.487-2.636-8.8-3.153-10.976-.14-.594-.245-1.1-.309-1.546-.149-1-.5-3.621-1.911-4.176a12.031,12.031,0,0,0-1.8-.424A14.718,14.718,0,0,0,6.662,0,7.062,7.062,0,0,1,4.624,2.4c-.918.676-2.276,1.313-2.621.95-.156-.165-.094-.565.032-1.363.039-.248.084-.456.121-.607a1.7,1.7,0,0,0-.885.456,6.715,6.715,0,0,0-.75,1.33A7.139,7.139,0,0,0,0,6.2C.118,9.508,2.243,14.6,2.828,19.207A22.791,22.791,0,0,1,2.855,24.627Z" transform="translate(16.53 12.585)" fill="#dce7ff"/><path d="M1.2.612,0,2.433.692,4q.043.589.086,1.178A3.254,3.254,0,0,0,2.281,3.1a3.02,3.02,0,0,0-.094-1.5L1.466,0Z" transform="translate(17.888 9.126)" fill="#f14f6c"/><path d="M0,0" transform="translate(14.576 9.826)" fill="#03042b"/><g transform="translate(13.297 0.565)"><g transform="translate(0 0)"><path d="M.079,4.6A6.1,6.1,0,0,0,0,5.769c.082,3.141,2.258,6.842,4.42,5.864,3.2-1.448,4.149-2.923,4.19-5.746C8.651,3.249,7.061.177,4.607.006a3.414,3.414,0,0,0-.84.058A3.675,3.675,0,0,0,3.061.3,6.131,6.131,0,0,0,.079,4.6Z" fill="#f17a88"/></g><g transform="translate(0.009 7.254)"><path d="M.39,0S.333,1.2.1,1.375s0,.42,0,.42l.943.011Z" transform="translate(0 0)" fill="#f17a88"/></g></g><g transform="translate(12.2 0.401)"><path d="M1.435,4.358a.564.564,0,0,0-.176.193,1.4,1.4,0,0,0-.14.692c-.145-.192-.347-.474-.564-.83A4.223,4.223,0,0,1,.1,3.557C-.113,2.888.015,1.92.5,1.7c.264-.12.522.1,1.053-.018a1.8,1.8,0,0,0,.7-.332A4.686,4.686,0,0,1,5.791.024,5.029,5.029,0,0,1,8.358,1.23l.029.027a6.261,6.261,0,0,1,1.627,2.794A6.356,6.356,0,0,1,9.4,8.445a2.638,2.638,0,0,1-.19.679,2.6,2.6,0,0,1-.2.382A3.385,3.385,0,0,1,7.62,9.023c-.607-.383-.806-.806-1.781-1.8-.284-.289-.525-.515-.678-.656l-.626.223A7.216,7.216,0,0,0,2.716,4.819C2.445,4.623,1.772,4.144,1.435,4.358Z" transform="translate(0 0)" fill="#89425f"/></g><g transform="translate(11.991 1.073)"><path d="M2.23.042c-.03,1.069-1.624.6-2,1.411-.509,1.082.3,2.532,1.1,3.234.047.041-.014.117-.062.076A3.587,3.587,0,0,1,0,2.077,1.24,1.24,0,0,1,.517.987c.5-.3,1.593-.123,1.616-.935,0-.062.1-.073.1-.01Z" transform="translate(0 0)" fill="#89425f"/></g><g transform="translate(12.464 0)"><path d="M5.76.077c-.434.434-1.073.328-1.624.48A5.475,5.475,0,0,0,2.3,1.578a2.105,2.105,0,0,1-.778.449,6.11,6.11,0,0,0-.905.133c-1.168.456-.125,2,.315,2.624.036.051-.042.109-.079.058A3.513,3.513,0,0,1,0,2.865c.009-.705.638-.854,1.229-.9C2.02,1.9,2.624,1.151,3.307.789a3.8,3.8,0,0,1,1-.373c.47-.1,1.011-.033,1.378-.4.044-.044.12.017.076.062Z" transform="translate(0 0)" fill="#89425f"/></g><g transform="translate(17.137 5.54)"><g transform="translate(0 0)"><path d="M1.465.163c.3.239.434.6.009,1.127S.465,2.052.169,1.814-.024.954.4.426,1.168-.076,1.465.163Z" fill="#f17a88"/></g><g transform="translate(0.746 0.521)"><path d="M.608.331.334.623a.2.2,0,0,1-.276,0,.2.2,0,0,1,0-.277L.329.057a.2.2,0,0,1,.277,0,.2.2,0,0,1,0,.277Z" transform="translate(0 0)" fill="#f14f6c"/></g><g transform="translate(0.763 0.505)"><path d="M.573.1A.588.588,0,0,0,.1.5C.078.56-.016.537,0,.477A.691.691,0,0,1,.571,0C.633-.008.634.09.573.1Z" transform="translate(0 0)" fill="#09073a"/></g></g><g transform="translate(33.008 19.19)"><path d="M10.47,9.032c-.011-.014-.026-.025-.036-.037-.058-.066-.1-.113-.112-.124-.031-.036-.087-.1-.147-.166l-.22-.244c-.286-.32-1.141-1.412-1.248-1.549-.191-.243-.311-.366-.466-.545C7.268,5.245,6.165,3.811,5.777,3.324A21.324,21.324,0,0,0,2.656.187,1.866,1.866,0,0,0,.507.558a1.87,1.87,0,0,0-.2,2.31c2.078,1.606,3.546,2.79,4.524,3.594C5.2,6.765,5.967,7.4,7.04,8.2q1.084.814,2.124,1.524l.126.158.024.031h0l.018.021.017.021,1.27,2.21a1.528,1.528,0,0,0,1.115-.026,1.383,1.383,0,0,0,.82-.985,1.262,1.262,0,0,0-.167-.811Z" transform="translate(0 0)" fill="#f17a88"/></g><path d="M1.574,0A11.255,11.255,0,0,0,0,3.248a49.743,49.743,0,0,1,3.139,8.886c2.244,9,.728,14.37,3.644,16.167,1.209.745,3.567,1.118,8.629-1.879L9.959,15.9,7.222,7.747,4.962.845A9.618,9.618,0,0,0,1.574,0Z" transform="translate(21.662 12.384)" fill="#272b6f"/><path d="M10.551,9.68l6.854,7.238,2.7-2.331-5.66-6.646A22.713,22.713,0,0,0,9.208,3.65,42.155,42.155,0,0,0,2.818,0,3.244,3.244,0,0,0,.168,2.092,3.3,3.3,0,0,0,.453,4.759Z" transform="translate(23.401 13.012)" fill="#2f3378"/><path d="M2.169,0a7.527,7.527,0,0,0-.32,1.072,8.92,8.92,0,0,0-.156,2.223C1.838,5.48,3.869,14.683,4.242,18.517a21.806,21.806,0,0,1-1.293,9.525L.138,26.822,1.967,16.214C1.92,15.983.779,10.349.2,7.021A16.351,16.351,0,0,1,.01,4.986a6.88,6.88,0,0,1,.4-3.158A3.635,3.635,0,0,1,1.238.617,3.37,3.37,0,0,1,2.169,0Z" transform="translate(16.404 13.815)" fill="#272b6f"/></g><g transform="translate(21.444 0) rotate(16)"><g transform="translate(23.98 8.401)"><path d="M17.327,1.955c.2.071-.274,2.3-.83,3.764-.651,1.72-2.417,5.056-7.974,7.91C7.065,15.5,4.856,16.347,3.079,15.737.963,15.01-.572,12.118.205,11.419a1.879,1.879,0,0,1,1.04-.352A32.9,32.9,0,0,0,9.792,8.8,10.679,10.679,0,0,0,15.3,2.118c.231-.958.282-2.106.464-2.118s.459,1.093.416,2.246c-.028.736-.115,1.2.012,1.243C16.444,3.576,17.146,1.891,17.327,1.955Z" transform="translate(0 0)" fill="#05aaa4"/></g><g transform="translate(47.242 50.106)"><path d="M0,1.481.023,1.5l.8.527.3.2L3.088,3.514l.185.193,1.56,1.619L6.142,8.076a2.006,2.006,0,0,0,1.4,1.1l.043.009.044.009.415.076L5.837.4,5.829.392A1.385,1.385,0,0,0,4.274.133c-.086.041-.172.08-.26.12A16.655,16.655,0,0,1,0,1.481Z" transform="translate(15.65 0)" fill="#f8ebe5"/><path d="M0,5.659v.008a2.251,2.251,0,0,0,.18.864,2.3,2.3,0,0,0,.686.9A.389.389,0,0,0,.9,7.463a3.476,3.476,0,0,0,1.416.614c.137.028.254.046.343.061a5.573,5.573,0,0,0,2.12-.1q1.422-.427,2.881-.9c3.807-1.249,7.3-2.61,10.485-4a2.458,2.458,0,0,0,.777-.676,1.465,1.465,0,0,0,.294-1.166A1.444,1.444,0,0,0,18.61.422h0A2.574,2.574,0,0,0,16.983,0l-1.31.241L3.408,2.5a5.136,5.136,0,0,0-.516.116,5,5,0,0,0-1.029.406A4.328,4.328,0,0,0,1.4,3.3a3.78,3.78,0,0,0-.634.546c-.032.033-.062.066-.092.1a2.96,2.96,0,0,0-.309.426,2.651,2.651,0,0,0-.191.381,2.58,2.58,0,0,0-.106.324A2.416,2.416,0,0,0,0,5.58C0,5.607,0,5.632,0,5.659Z" transform="translate(0 1.251)" fill="#f8ebe5"/></g><path d="M17.185.22a4.786,4.786,0,0,0-2.61-.07,5.53,5.53,0,0,0-2.416,1.22Q10.829,2.706,9.5,4.137A117.138,117.138,0,0,0,.373,15.226,2.91,2.91,0,0,0,.59,18.414a2.94,2.94,0,0,0,3.655.7l13.966-10.5A4.912,4.912,0,0,0,20.2,3.729,4.721,4.721,0,0,0,17.185.22Z" transform="translate(16.315 36.671)" fill="#ccd2e0"/><path d="M3.4,16.768a2.323,2.323,0,0,1-1.761.289A2.332,2.332,0,0,1,0,15.1L6.161.887A2.831,2.831,0,0,1,9.172.173,2.838,2.838,0,0,1,10.9,3.211Z" transform="translate(14.739 14.602)" fill="#ccd2e0"/><g transform="translate(0 27.205)"><path d="M.171,2.134A1.883,1.883,0,0,1,0,1.343,2.018,2.018,0,0,1,.561,0L12.107.583A2.248,2.248,0,0,1,13.232,2.7,2.309,2.309,0,0,1,11.5,4.81Z" transform="translate(4.738 1.213)" fill="#ccd2e0"/><path d="M2.436,3.311C.87,2.876-.206,1.825.033.962S1.736-.247,3.3.188s2.642,1.486,2.4,2.349S4,3.746,2.436,3.311Z" transform="translate(0 0)" fill="#ccd2e0"/></g><path d="M.834,0C.73.041.665.426.531.627a.656.656,0,0,1-.085.1A.854.854,0,0,1,.283.842C.163.927.064,1,0,1.045A4.293,4.293,0,0,1,2.259,2.46a4.173,4.173,0,0,1,.8,1.549l.163-.279q.54-.919,1.094-1.8a2.9,2.9,0,0,1-2.39-.517C1.334.892,1.013-.062.834,0Z" transform="translate(14.555 28.212)" fill="#465e8e"/><path d="M8.9,0q.068.525.136,1.051.256,1.409.51,2.819a1.835,1.835,0,0,1,.159.718,2.018,2.018,0,0,1-.581,1.39l-.008.006L0,6.761l.157-.44A2.007,2.007,0,0,1,1.483,5.068l2.924-.857,1.865-1.7Z" transform="translate(11.495 71.037)" fill="#ccd2e0"/><path d="M1.331.572A3.8,3.8,0,0,0,.325,2.165,5.569,5.569,0,0,0,0,4.263q.14,1.477.323,3C.807,11.243,1.456,14.937,2.2,18.331a1.818,1.818,0,0,0,1.6,1.411,2.021,2.021,0,0,0,1.7-1.938Q5.6,10.9,5.706,4A4.184,4.184,0,0,0,4.125.392,2.289,2.289,0,0,0,1.331.572Z" transform="translate(14.878 54.375)" fill="#ccd2e0"/><path d="M0,.793A11.271,11.271,0,0,1,1.691.3,6.643,6.643,0,0,1,5.474.266,5.131,5.131,0,0,1,7.661,1.787,5.6,5.6,0,0,1,8.753,4.041,5.246,5.246,0,0,1,8.917,7.37,4.361,4.361,0,0,1,7.559,9.288a6.918,6.918,0,0,0,.373,1.219,7,7,0,0,0,1.329,2.081l-4.834,2.4L2.274,12.16l-.565.075Z" transform="translate(18.235 0)" fill="#36123b"/><path d="M.606,2.769h0A.932.932,0,0,1,.057,1.575L.417.606A.931.931,0,0,1,1.61.058h0a.931.931,0,0,1,.548,1.193L1.8,2.22A.931.931,0,0,1,.606,2.769Z" transform="translate(20.283 4.783)" fill="#f8ebe5"/><path d="M.587,0,0,1.6c.114.063.872.473,1.142.226C1.388,1.6,1.2.857.587,0Z" transform="translate(14.547 7.086)" fill="#f8ebe5"/><path d="M16.58,19.495a22.157,22.157,0,0,1-1,4.661L8.926,25.808A20.044,20.044,0,0,1,6.1,23.517q-.266-.258-.537-.541A20.115,20.115,0,0,1,.051,7.671,19.385,19.385,0,0,1,2.079,3.759,19.123,19.123,0,0,1,3.33,2.1L6.38.76,7.529.255,7.737.163,8.108,0l.059.046a22.179,22.179,0,0,1,7.944,12.2A21.525,21.525,0,0,1,16.58,19.495Z" transform="translate(19.409 12.613)" fill="#f8ebe5"/><path d="M3.161,0l.866.135L5.744,3.6q.153,2.164.307,4.328L4.912,11.479l-2.264.9-.811.139L.909,11.141Q.455,9.085,0,7.029.078,5.546.156,4.062A5.257,5.257,0,0,1,1.7.949,4.929,4.929,0,0,1,3.161,0Z" transform="translate(15.114 0.77)" fill="#f8ebe5"/><path d="M.891.585.352.692A.3.3,0,0,1,.006.459h0A.3.3,0,0,1,.238.112L.776.006a.3.3,0,0,1,.347.233h0A.3.3,0,0,1,.891.585Z" transform="translate(15.594 6.043)" fill="#56b4f0"/><path d="M0,1.177,2.7.416l1.558,2.1C3.9,3.2,3.541,3.92,3.2,4.688,2.618,5.973,2.147,7.2,1.761,8.356l2.137.7L5.27,2.615,3.064,0Z" transform="translate(17.666 11.951)" fill="#56b4f0"/><g transform="translate(21.245 5.732)"><path d="M.2.232C.2.2.2.2.2.212a.123.123,0,0,1,0,.02C.193.226.21.192.2.221.2.227.194.233.192.239S.189.248.2.225C.2.232.187.247.183.253L.175.263C.166.275.17.27.187.251c0,0-.023.019-.026.022s.036-.015,0,0c-.013,0-.052.017,0,0A.2.2,0,0,0,0,.5.2.2,0,0,0,.232.662.484.484,0,0,0,.506.481.48.48,0,0,0,.591.165.2.2,0,0,0,.363,0,.2.2,0,0,0,.2.232Z" transform="translate(0 0)" fill="#90dfe1"/></g><path d="M9.485,24.156,2.831,25.808A20.044,20.044,0,0,1,0,23.517c.015-.06.031-.117.046-.171A20.506,20.506,0,0,0,3.554,13.16,20.724,20.724,0,0,0,.285.76L2.013,0a22.181,22.181,0,0,1,8,12.247A21.888,21.888,0,0,1,9.485,24.156Z" transform="translate(25.504 12.613)" fill="#283247" opacity="0.07"/><path d="M9.074,19.6c-.374-.015-.666-.039-.843-.054a27.6,27.6,0,0,0-2.02-9.931A27.625,27.625,0,0,0,.024.361L0,.338A1.71,1.71,0,0,1,.21.157,1.741,1.741,0,0,1,.472,0,22.8,22.8,0,0,1,8.606,12.353,21.377,21.377,0,0,1,9.074,19.6Z" transform="translate(26.914 12.507)" fill="#36123b"/><path d="M.141,5.685a5.534,5.534,0,0,0,1.2,2.424q1.328,1.34,2.748,2.683a117.194,117.194,0,0,0,11.025,9.2,3.229,3.229,0,0,0,.394.185c.052.02.106.04.159.056l.019.005a2.986,2.986,0,0,0,1.19.124,2.85,2.85,0,0,0,.636-.138,2.661,2.661,0,0,0,.468-.211,2.553,2.553,0,0,0,.321-.214,2.356,2.356,0,0,0,.207-.18,2.7,2.7,0,0,0,.429-.531l0-.008a2.878,2.878,0,0,0,.364-.917A3.029,3.029,0,0,0,19.2,16.52a2.984,2.984,0,0,0-.161-.373l-.116-.157L8.631,2.108A5.039,5.039,0,0,0,5.558.1,4.616,4.616,0,0,0,3.76.082,4.738,4.738,0,0,0,.229,3.076,4.791,4.791,0,0,0,.141,5.685Z" transform="translate(29.795 36.216)" fill="#f8ebe5"/><path d="M.026,4.241a.207.207,0,0,1,.186-.122h.01q.126,0,.252-.015a4.014,4.014,0,0,0,1.694-.575,3.753,3.753,0,0,0,.5-.356c.049-.039.1-.08.142-.122a1.4,1.4,0,0,0,.317-.4A1.2,1.2,0,0,0,3.2,2.454l.006-.02a3.313,3.313,0,0,0,.106-.723A2.688,2.688,0,0,0,3.07.362.245.245,0,0,1,3.05.189.256.256,0,0,1,3.274,0a.212.212,0,0,1,.2.113A7.018,7.018,0,0,0,4.694,1.766,3.111,3.111,0,0,0,4.977,2,.207.207,0,0,1,5,2.309a.256.256,0,0,1-.177.1,2.035,2.035,0,0,0-1.028.5A3.164,3.164,0,0,0,3,3.8a2.644,2.644,0,0,0-.3.748.015.015,0,0,0,0,.008c-.008.034-.015.07-.022.1s-.013.073-.018.108a.012.012,0,0,1,0,.006,2.44,2.44,0,0,0-.013.512,2.233,2.233,0,0,0,.052.33c.013.055.028.109.045.162a.239.239,0,0,1-.39.24c-.121-.115-.245-.226-.373-.333A7.491,7.491,0,0,0,1.3,5.166c-.143-.094-.288-.186-.436-.273C.642,4.805.415,4.728.186,4.659a.236.236,0,0,1-.174-.193.142.142,0,0,1,0-.046c0-.009,0-.019-.005-.028A.254.254,0,0,1,.026,4.241Z" transform="translate(45.44 52.206)" fill="url(#b)"/><path d="M5.571,1.52a2.7,2.7,0,0,1-1.181.7,3.29,3.29,0,0,1-.717.15A1.287,1.287,0,0,1,2.959,2.2a4.081,4.081,0,0,1-1.9-2.06A.23.23,0,0,0,.7.048.238.238,0,0,0,.542.3q.022.359.013.718-.044.254-.1.5A8.015,8.015,0,0,1,.019,2.8a.239.239,0,0,0,.36.284,2.447,2.447,0,0,1,1.947-.442,3.159,3.159,0,0,1,1.1.437,2.043,2.043,0,0,1,.822.793c.076.167.377.217.439,0A6.037,6.037,0,0,1,5.943,1.815C6.138,1.575,5.776,1.3,5.571,1.52Z" transform="translate(15.685 52.951)" fill="#465e8e"/><path d="M1.509,1.956C1.173,2.905.617,3.574.268,3.45S-.09,2.457.246,1.508,1.138-.109,1.487.015,1.846,1.008,1.509,1.956Z" transform="translate(15.248 52.647)" fill="#6385c9"/><ellipse cx="1.823" cy="0.67" rx="1.823" ry="0.67" transform="translate(47.956 59.201) rotate(-141.806)" fill="#56b4f0"/><path d="M8.744,0C8.88.709,9,1.45,9.1,2.221a36.424,36.424,0,0,1,.226,6.733,25.045,25.045,0,0,0-4.583,1.158c-.411.166-.829.314-1.24.479a14.905,14.905,0,0,1-1.655.566,1.221,1.221,0,0,1-1.565-.7L0,9.667Q1.121,8.391,2.251,7.124,5.459,3.527,8.744,0Z" transform="translate(27.242 27.888)" fill="#36123b"/><g transform="translate(15.576 5.975)"><path d="M.077.116A.69.69,0,0,0,0,.457.376.376,0,0,0,.252.8.238.238,0,0,0,.544.636.245.245,0,0,0,.377.344L.461.4A.06.06,0,0,1,.473.428c0,.011,0,.01,0-.005s0-.023,0-.035c0,.025,0,.009,0-.006S.506.316.488.353A.242.242,0,0,0,.4.029.24.24,0,0,0,.077.116Z" transform="translate(0 0)" fill="#452f52"/></g><g transform="translate(27.241 33.326)" opacity="0.47"><path d="M3.345,5.178l0,.009,0,.009-1.567.543a1.175,1.175,0,0,1-1.5-.721L0,4.229q.527-.622,1.054-1.252Q2.3,1.484,3.513,0q.337,1.919.676,3.838C3.586,4.791,3.346,5.172,3.345,5.178Z" transform="translate(0 0)" fill="#56b4f0"/></g><path d="M0,1.58a6.7,6.7,0,0,1,1.743.17A6.718,6.718,0,0,1,3.785,2.6c.819.594,1.645,1.244,2.467,1.956a38.805,38.805,0,0,1,10.185,14.2,3.868,3.868,0,0,0-.574,2.126,3.524,3.524,0,0,0,.044.42s0,.005,0,.005a.312.312,0,0,1,0-.043,2.868,2.868,0,0,1,1.137-1.807,3.8,3.8,0,0,1,.861-.51q2.039-.633,4.242-1.212c3.053-.8,5.967-1.4,8.707-1.85l4.54-1.446a.727.727,0,0,1,.244.043,1.065,1.065,0,0,1,.574.765q.567,1.785,1.105,3.7.577,2.063,1.043,4.019l.043.009.044.009.415.077L36.65,14.193l-.008-.008a1.385,1.385,0,0,0-1.555-.259c-.085.041-.172.08-.26.12a16.662,16.662,0,0,1-4.014,1.229l.023.015L18.571,17.545a5.166,5.166,0,0,0-.516.116,7.024,7.024,0,0,1-1.217-1.652.212.212,0,0,0-.2-.114L6.347,2.012A5.04,5.04,0,0,0,3.274,0,24.9,24.9,0,0,0,0,1.58Z" transform="translate(32.079 36.312)" fill="#283247" opacity="0.13"/><g transform="translate(18.361 23.731)"><path d="M1.13,0A14.122,14.122,0,0,0,6.618,7.041,12.887,12.887,0,0,0,9.243,8.278a25.4,25.4,0,0,0,5.8.829q3.2.181,6.4.051a64.515,64.515,0,0,0,12.8-1.815c2.109-.519,4.176-1.255,6.318-1.629a13.582,13.582,0,0,1,5.937.21c6.5,1.753,11.28,6.192,10.9,6.87-.184.325-1.463-.426-2.256.262-.925.8-.126,2.629-.6,2.849-.9.424-4.306-6.141-8.236-7.379a12.343,12.343,0,0,0-1.844-.4,11.388,11.388,0,0,0-3.813.166c-2.129.444-4.2,1.158-6.314,1.658A68.118,68.118,0,0,1,21.08,11.723q-3.262.114-6.524-.094a26.772,26.772,0,0,1-6.095-.922A11.989,11.989,0,0,1,5.277,9.2C3.176,7.8-.644,4.6.093,1.688A3.525,3.525,0,0,1,1.13,0Z" transform="translate(0 0)" fill="#05aaa4"/></g><path d="M1.332,5.1l14.7,3.13.45.1a2.721,2.721,0,0,0,.425-.2,2.469,2.469,0,0,0,.421-.3,2.37,2.37,0,0,0,.3-.327,2.279,2.279,0,0,0,.281-.477,2.077,2.077,0,0,0,.166-.686A2.023,2.023,0,0,0,18.04,5.8a2.413,2.413,0,0,0-.579-1.119.182.182,0,0,0-.015-.018L2.673,0A2.909,2.909,0,0,0,.306,1.5a2.609,2.609,0,0,0-.271.79A2.833,2.833,0,0,0,1.332,5.1Z" transform="translate(25.693 13.511)" fill="#fff2eb"/><g transform="translate(42.577 18.987)"><path d="M.023,2.653a2.093,2.093,0,0,0,.33.88c.009.014.018.028.028.042L10.473,9.215l.071-.027a2,2,0,0,0,1.027-.928,1.7,1.7,0,0,0,.144-.4,1.771,1.771,0,0,0,.051-.347c0-.015,0-.029,0-.043L2.8.057,2.733.043A2.212,2.212,0,0,0,1.156.325,2.452,2.452,0,0,0,.76.62L.745.634A2.34,2.34,0,0,0,0,2.194,2.122,2.122,0,0,0,.023,2.653Z" transform="translate(0 0)" fill="#fff2eb"/><path d="M.1,1.68A4.321,4.321,0,0,0,1.365,3.512C2.576,4.6,4.042,4.933,4.639,4.266a.885.885,0,0,0,.176-.295C5.095,3.236,4.58,2.04,3.527,1.1A4.06,4.06,0,0,0,1.323.01,1.639,1.639,0,0,0,.866.023,1.026,1.026,0,0,0,.253.342,1.355,1.355,0,0,0,.1,1.68Z" transform="translate(10.443 7.508)" fill="#fff2eb"/></g><path d="M0,3.57c.053.029.145.079.264.13A2.508,2.508,0,0,1,.8,3.94c.032.024.016.017.219.217.074.074.139.138.19.188.022.022.042.04.059.056a4.287,4.287,0,0,1,1-2.47c.089-.1.181-.2.273-.288,0,0,0,0,.007-.006A4.2,4.2,0,0,1,3.66.878L3.594.854,3.358.766C2.7.523,2.065.272,1.438.017,1.425.01,1.411.005,1.4,0a3.064,3.064,0,0,1,.234,1.3s0,.009,0,.014c0,.038-.005.077-.009.116A2.506,2.506,0,0,1,1.5,2a2.434,2.434,0,0,1-.2.44A2.518,2.518,0,0,1,.866,3a2.751,2.751,0,0,1-.857.561Z" transform="translate(41.716 18.176)" fill="#b0dcf7"/><path d="M17.348,5.966h0a.053.053,0,0,0,0,.013c-.009.045-.017.088-.025.13q-.059.306-.1.559c-.1.541-.162.911-.2,1.156-.044.325-.044.434-.022.439.038.009.107-.325.326-.765a3.833,3.833,0,0,1,.281-.477c.031-.043.061-.086.095-.129a3.6,3.6,0,0,1,.562-.584s0,0,.007-.006c.081-.066.158-.125.228-.175,1.341.808,2.741,1.717,4.179,2.743a64.857,64.857,0,0,1,5.212,4.137c.125.11.248.218.37.328l.035.007a4.431,4.431,0,0,1,2.58,1.493,4.369,4.369,0,0,1,.963,2.122c.28-.735-.235-1.932-1.289-2.876a4.061,4.061,0,0,0-2.2-1.086c0-.015,0-.029,0-.043L19.379,5.533l-.069-.014-.236-.088c-.653-.242-1.292-.494-1.92-.749l-.015-.018Q9.752,2.334,2.367,0A2.909,2.909,0,0,0,0,1.5a42.914,42.914,0,0,1,14.1,3C15.248,4.962,16.331,5.455,17.348,5.966Z" transform="translate(25.999 13.511)" fill="#283247" opacity="0.13"/></g><g transform="translate(150.143 26.67) rotate(8)"><path d="M3.145.055a8.912,8.912,0,0,0-1.678,1.99A9.2,9.2,0,0,0,.122,6.316c-.079,1.5.3,1.813.176,3.862C.24,11.11.133,11.523.063,12.11a11.8,11.8,0,0,0,.82,5.442c1.106,3.13,4.944,8.893,10.768,9.188,1.113.056,4.871.059,6.944-2.653a7.471,7.471,0,0,0,1.326-5.228c-.572-4.754-5.249-4.964-7.647-11-1.2-3.009-.614-4.42-2.263-6.008C8.1.01,5.23-.114,3.145.055Z" transform="translate(14.822 0.269)" fill="#d78675"/><g transform="translate(0 0)"><g transform="translate(0 18.655)"><path d="M14.592,9.08a1.524,1.524,0,0,1-.411.814l-.051.05a1.376,1.376,0,0,1-.191.15,1.288,1.288,0,0,1-.158.09,1.789,1.789,0,0,1-1.446-.029Q10.585,8.881,8.782,7.473,6.213,5.463,3.933,3.481h0l-.024-.019-.041-.031L3.831,3.4c-.108-.082-.207-.156-.294-.22l-.146-.048c-.125-.04-.243-.079-.358-.12l-.311-.109A6.072,6.072,0,0,1,.592,1.791C.367,1.569-.087,1.121.015.649A.79.79,0,0,1,.272.233C.715-.157,1.612-.04,2.54.456a3.91,3.91,0,0,1,.882.583c.28.247.983.943,1.053,1.009l.026.024.1.084c.112.1.218.188.318.271l.039.034.305.246,7.87,4.283.072.04A2.08,2.08,0,0,1,14.592,9.08Z" transform="translate(0 0)" fill="#fab4af"/></g><path d="M8.2,1.414A63.678,63.678,0,0,0,4,7.392a48.352,48.352,0,0,0-2.875,5.189C.648,13.572.272,14.424,0,15.064A2.428,2.428,0,0,0,.921,16.84c.972.623,2.692.211,3.751-1.322.585-.467,1.074-.9,1.466-1.269.158-.148.764-.724,1.5-1.539A36.748,36.748,0,0,0,10.693,8.7c.881-1.283,2.02-3.016,3.273-5.146-.3-.588-1.924-3.717-3.84-3.545A2.994,2.994,0,0,0,8.2,1.414Z" transform="translate(13.908 36.737)" fill="#ffaba4"/><path d="M6.286,6.405a47.814,47.814,0,0,1-1.913,6.887A48.969,48.969,0,0,0,2.657,20.3c-.175,1.326-1.1,2.094-1.674,2S-.224,21.15.078,19.82L1.43,2.344,1.8,1.488A2.746,2.746,0,0,1,4.5.047c.864.216,1.283,1.13,1.545,1.722A7.554,7.554,0,0,1,6.286,6.405Z" transform="translate(12.195 50.148)" fill="#ffbdb9"/><path d="M10.969,0,1.9,15.46,0,35.5l4.405.173q1.468-6.089,2.936-12.178A22.763,22.763,0,0,0,8.205,19c.051-.57.078-1.118.086-1.641l7.86-9.069Z" transform="translate(10.994 34.803)" fill="#4b3f8f"/><path d="M8.742,1.8c-.008.046-.019.093-.031.141-.032.13-.074.272-.128.425a23.662,23.662,0,0,1-1.5,3.118c-.4.741-.791,1.453-1.174,2.132C4.919,9.38,4,10.915,3.29,12.11a.1.1,0,0,1-.009.016.364.364,0,0,1-.021.033l-.271.46h0q-.14.234-.268.455c-.265.448-.5.844-.69,1.173-.012.02-.023.041-.036.061a1.367,1.367,0,0,1-.143.2,1.272,1.272,0,0,1-.128.129L.621,14.3.053,12.813v0c-.014-.038-.028-.074-.043-.112L0,12.672q.113-.482.237-.94.185-.7.387-1.347A33.182,33.182,0,0,1,2.25,6.165c.13-.28.268-.578.414-.884A17.426,17.426,0,0,1,5.443.758,3.314,3.314,0,0,1,6.468.027,1.883,1.883,0,0,1,6.885,0a1.831,1.831,0,0,1,.694.179,1.878,1.878,0,0,1,.339.206c.076.057.134.108.169.139A2.145,2.145,0,0,1,8.742,1.8Z" transform="translate(12.455 13.887)" fill="#fab4af"/><path d="M6.455,2.244c-.007.027-.016.057-.025.089-.034.122-.084.283-.149.47A8.839,8.839,0,0,1,5.617,4.25C5.252,4.9,4.554,6.1,3.606,7.62L3.6,7.614l-2.64-1.9L.349,5.28,0,5.03A15.707,15.707,0,0,1,2.438,1.308c.3-.339.6-.651.9-.936A1.97,1.97,0,0,1,4.152.027,1.872,1.872,0,0,1,4.57,0a1.838,1.838,0,0,1,.694.179A1.947,1.947,0,0,1,5.6.388a2.117,2.117,0,0,1,.168.14A2.146,2.146,0,0,1,6.427,1.8,2.3,2.3,0,0,1,6.455,2.244Z" transform="translate(14.77 13.887)" fill="#f3d9d5"/><path d="M.121,9.215c-.3-.482.027-1.335.288-1.769A2.513,2.513,0,0,1,.976,6.8l.477-.369A5.474,5.474,0,0,0,1.277,4.3,5.33,5.33,0,0,0,.972,3.5l-.9-1.168a3.628,3.628,0,0,0,3-.565A3.424,3.424,0,0,0,4.256,0,11.45,11.45,0,0,1,4.6,1.142c.056.229.1.442.136.638A12.63,12.63,0,0,1,4.9,3.063,8.348,8.348,0,0,0,5.911,5.886L6.19,7.3a1.451,1.451,0,0,0-1.111-.152c-.666.238-.625,1.053-1.207,1.7C2.886,9.945.615,10,.121,9.215Z" transform="translate(18.013 7.741)" fill="#fab4af"/><path d="M15.3,20.656l-.035,0-.06.005c-.246.02-.5.047-.769.076a25.241,25.241,0,0,0-5.305,1.2c-.548.187-1.068.386-1.561.593-1.071.449-1.136.7-1.506.691-1.1-.009-1.928-1.909-2.177-2.48v0a5.657,5.657,0,0,1-.264-.795c-.15-.574-.3-1.347-.517-2.488a28.09,28.09,0,0,0-.786-3.407c-.034-.106-.076-.239-.131-.4-.044-.129-.1-.275-.161-.439-.326-.83-.623-1.285-1.156-2.769a20.841,20.841,0,0,1-.6-2.01S.194,8.113.12,7.61A7.619,7.619,0,0,1,.385,3.8a3.978,3.978,0,0,1,.512-.9Q1.655,1.944,2.412.982A1.855,1.855,0,0,1,3.149.788c-.632,1.15-.9,2.1-.616,2.313.266.2,1.133-.153,1.534-.376.048-.027.1-.054.142-.082A11.115,11.115,0,0,0,5.177,2c.478-.359.927-.738,1.254-1.04A12.771,12.771,0,0,0,7.374,0l1.9.178c.145.356.362.917.576,1.617a25.521,25.521,0,0,1,.888,7.876,19.875,19.875,0,0,0,1.223,6.282c.086.112.221.3.376.53a9.2,9.2,0,0,1,.573,1,13.071,13.071,0,0,0,1.419,1.991C14.605,19.817,14.928,20.207,15.3,20.656Z" transform="translate(16.334 13.324)" fill="#ffe9e6"/><path d="M10.707,18.913c-.913-.022-1.873-.013-2.877.042A36.312,36.312,0,0,0,.265,20.18a5.561,5.561,0,0,1-.265-.8l.009-.039.009-.039a29.01,29.01,0,0,0,4.662-2.393,4.621,4.621,0,0,0,1.267-5.182A4.624,4.624,0,0,0,2.9,9.428,4.741,4.741,0,0,0,5.257,7.989C6.851,6.14,6.785,2.911,4.981,0A5.426,5.426,0,0,1,6.229,1.232c1.568,2.167.8,4.678.888,7.876a19.853,19.853,0,0,0,1.223,6.282c.086.112.222.3.375.529a8.984,8.984,0,0,1,.574,1A13.12,13.12,0,0,0,10.707,18.913Z" transform="translate(19.96 13.887)" fill="#042047" opacity="0.13"/><path d="M0,0" transform="translate(30.515 36.643)" fill="#fcba18"/><path d="M0,0" transform="translate(29.966 41.13)" fill="#fcba18"/><path d="M13.024,7.212c-.287-1.806-1.223-3.166-2.411-3.4a2.073,2.073,0,0,0-.919.035s-.11.01-.194.02C8.767,3.955,7.456,6.46,7.456,6.46c-.473.9-1.526,2.028-4.146,2.778A33.077,33.077,0,0,1,.72,3.639C.44,2.845.2,2.075,0,1.335A7.458,7.458,0,0,0,3,1.2,1.07,1.07,0,0,1,3.276,1.1c.43-.1.824.141,2.4-.033.41-.045.911-.1,1.655-.241A32.746,32.746,0,0,0,10.627,0a9.554,9.554,0,0,1,1.144,1.609A10.281,10.281,0,0,1,13.024,7.212Z" transform="translate(20.005 32.374)" fill="#6152a0"/><path d="M7.143,2.1a49.42,49.42,0,0,1,5.312,5.14,50.62,50.62,0,0,0,5.521,5.022c1.118.815,1.356,2.038.987,2.507s-1.641.53-2.7-.4L1.054,4.51.461,3.747A2.841,2.841,0,0,1,.484.586,2.77,2.77,0,0,1,2.812.033,7.809,7.809,0,0,1,7.143,2.1Z" transform="translate(33.045 47.676)" fill="#ffbdb9"/><g transform="translate(48.391 60.381)"><path d="M0,8.729l.569.252c.209-.24.516-.605.858-1.07A20.927,20.927,0,0,0,3.5,4.222c.4-.85.9-1.981,1.434-3.347L3.987,0Z" transform="translate(0.634 0.808)" fill="#27494b"/><path d="M5.094,1.413C2.08,8.339.933,9.715.461,9.571.086,9.457-.03,8.282.006,7.592a4.647,4.647,0,0,1,.42-1.537A2.736,2.736,0,0,0,.5,5.775c.017-.077.032-.158.043-.246s.021-.183.027-.286c0-.043.005-.087.007-.134s0-.093,0-.141q0-.137,0-.288c0-.08.006-.163.012-.249s.016-.184.03-.285.028-.18.049-.276c.017-.081.039-.166.064-.255,0-.009,0-.018.008-.027.029-.1.06-.191.091-.275.037-.1.075-.195.112-.276s.063-.134.091-.189l-.113-.1A7.316,7.316,0,0,0,2.218,1.359,7.265,7.265,0,0,0,2.988,0,3.427,3.427,0,0,1,5.094,1.413Z" transform="translate(0.133 0)" fill="#c8d7ff"/><path d="M1.163,0c.182.021.295.132.515.348a1.482,1.482,0,0,1,.5.755.943.943,0,0,1-.1.749.983.983,0,0,1-1.068.291,3.127,3.127,0,0,1-.521-.41C.193,1.448-.007,1.253,0,1S.208.567.448.357A.982.982,0,0,1,1.163,0Z" transform="translate(0 0.87)" fill="#c8d7ff"/><path d="M1.16.279A.145.145,0,0,1,1,.4L0,.285C.007.194.016.1.03,0l1,.12A.143.143,0,0,1,1.16.279Z" transform="translate(0.729 4.145)" fill="#fff"/><path d="M1.3.291a.143.143,0,0,1-.159.126L0,.282C.018.2.039.115.064.026.067.018.069.009.072,0L1.177.132A.143.143,0,0,1,1.3.291Z" transform="translate(0.808 3.588)" fill="#fff"/><path d="M1.364.293A.143.143,0,0,1,1.2.419L0,.276C.038.174.075.082.112,0L1.238.135A.142.142,0,0,1,1.364.293Z" transform="translate(0.971 3.036)" fill="#fff"/><path d="M1.031.266A.144.144,0,0,1,.872.392L0,.287C0,.2,0,.1,0,0L.9.107A.143.143,0,0,1,1.031.266Z" transform="translate(0.713 4.679)" fill="#fff"/><path d="M.838.24A.144.144,0,0,1,.678.366L0,.286Q.018.155.027,0L.712.081A.143.143,0,0,1,.838.24Z" transform="translate(0.676 5.242)" fill="#fff"/><path d="M.694.218A.144.144,0,0,1,.535.344L0,.28A2.75,2.75,0,0,0,.074,0L.568.058A.144.144,0,0,1,.694.218Z" transform="translate(0.56 5.775)" fill="#fff"/></g><g transform="translate(6.654 70.17)"><path d="M0,3.823l.255.546c.305-.042.761-.112,1.305-.234A20.232,20.232,0,0,0,5.419,2.768C6.252,2.4,7.339,1.9,8.593,1.242Q8.524.621,8.456,0Z" transform="translate(0.087 2.349)" fill="#27494b"/><path d="M8.6,2.368C2,5.5.288,5.77.037,5.364c-.2-.321.462-1.251.927-1.731a4.5,4.5,0,0,1,1.283-.852,2.675,2.675,0,0,0,.232-.157c.061-.045.124-.095.188-.152s.132-.12.2-.191c.029-.029.059-.06.09-.094l.091-.1.186-.207c.052-.057.108-.115.167-.174s.129-.124.2-.189.135-.113.211-.169.134-.1.209-.145l.022-.014c.084-.053.165-.1.242-.143.092-.051.179-.094.257-.13s.131-.058.186-.08L4.719.686A7.077,7.077,0,0,0,6.539.5,7.058,7.058,0,0,0,7.964,0,3.313,3.313,0,0,1,8.6,2.368Z" transform="translate(0 0.807)" fill="#c8d7ff"/><path d="M1.616.2c.119.131.131.284.154.582a1.433,1.433,0,0,1-.113.87.914.914,0,0,1-.552.48.951.951,0,0,1-.963-.467,3.022,3.022,0,0,1-.119-.631C-.01.632-.031.363.138.18S.562,0,.87,0A.948.948,0,0,1,1.616.2Z" transform="translate(4.366 0)" fill="#c8d7ff"/><path d="M.849.922a.14.14,0,0,1-.2-.01L0,.189C.063.127.129.064.2,0L.859.726A.139.139,0,0,1,.849.922Z" transform="translate(3.404 2.323)" fill="#fff"/><path d="M.943,1a.139.139,0,0,1-.2-.01L0,.16C.064.112.134.064.209.014L.231,0,.953.8A.139.139,0,0,1,.943,1Z" transform="translate(3.818 1.994)" fill="#fff"/><path d="M.982,1.009A.139.139,0,0,1,.786,1L0,.13C.092.079.179.036.257,0L.992.814A.137.137,0,0,1,.982,1.009Z" transform="translate(4.291 1.721)" fill="#fff"/><path d="M.764.847a.14.14,0,0,1-.2-.01L0,.207Q.087.108.185,0L.774.651A.139.139,0,0,1,.764.847Z" transform="translate(3.051 2.686)" fill="#fff"/><path d="M.639.69a.139.139,0,0,1-.2-.01L0,.191Q.1.107.2,0L.649.494A.139.139,0,0,1,.639.69Z" transform="translate(2.667 3.087)" fill="#fff"/><path d="M.545.553a.139.139,0,0,1-.2-.01L0,.157A2.73,2.73,0,0,0,.231,0L.554.357A.139.139,0,0,1,.545.553Z" transform="translate(2.248 3.431)" fill="#fff"/></g><path d="M1.11.1A1.8,1.8,0,0,0,.045,1.263c-.233.866.414,1.746,2.8,4.159C5,7.6,7,9.429,8.41,10.741c.909.843,1.646,1.535,2.115,1.977a1.723,1.723,0,0,0,1.023-.669C12.635,10.357,9.275,6.524,7.68,4.7,5.831,2.6,3.013-.62,1.11.1Z" transform="translate(23.57 13.777)" fill="#ffbdb9"/><path d="M2.7.159A1.93,1.93,0,0,0,1.418.072,1.938,1.938,0,0,0,.363.851,2.269,2.269,0,0,0,.078,2.677c.061.115.16.294.293.506a8.731,8.731,0,0,0,.97,1.262c.5.556,1.448,1.567,2.71,2.838l2.94-3.327A15.7,15.7,0,0,0,3.786.871C3.418.606,3.055.37,2.7.159Z" transform="translate(23.516 13.476)" fill="#ffe9e6"/><g transform="translate(15.159 0)"><path d="M7.465,8.743a5.431,5.431,0,0,1-.614,1.085c-1.439,1.5-3.312,2.223-4.679,1.657C.252,10.689.089,7.662.014,6.274A10.2,10.2,0,0,1,.463,2.716l-.25-.85A4.384,4.384,0,0,1,3.934,0,4.1,4.1,0,0,1,7.183,1.545a3.2,3.2,0,0,1,.428,1.419c.074.6.151,1.067.164,1.387C7.864,6.525,7.942,7.61,7.465,8.743Z" transform="translate(0.468 0)" fill="#ffbdb9"/><path d="M.489,0,0,1.713c.525.318.726.261.811.2C1.18,1.646.633.334.489,0Z" transform="translate(0 5.987)" fill="#ffbdb9"/><path d="M9.045,6.273A10.357,10.357,0,0,0,1.583,3.886,8.167,8.167,0,0,0,.016,4.25,4.117,4.117,0,0,1,1.144,1.008a4.186,4.186,0,0,1,3.239-1C4.677.024,7.7.2,8.887,2.7A4.915,4.915,0,0,1,9.045,6.273Z" transform="translate(0.109 0)" fill="#d78675"/><path d="M0,2.528A5.678,5.678,0,0,1,2.048,5.175c.523,1.489.022,2.426.44,4.132a7.247,7.247,0,0,0,1.58,2.985A14.289,14.289,0,0,0,6.131,6.235c.16-1.643.326-3.331-.781-4.7A4.906,4.906,0,0,0,3.134,0Z" transform="translate(4.583 0.994)" fill="#d78675"/><path d="M.215.9C-.043,1.446-.093,2.229.2,2.374s.883-.332,1.134-.88C1.6.921,1.543.133,1.242.016S.446.422.215.9Z" transform="translate(5.65 4.279)" fill="#ffbdb9"/><path d="M.958.955q-.19.512-.38,1.025L0,0Z" transform="translate(5.11 3.892)" fill="#d78675"/></g><g transform="translate(31.604 21.924)"><path d="M2.582.431Q3.937,2.118,5.308,3.949,7.261,6.562,8.942,9.072h0l.019.025.031.041.028.037c.083.108.159.2.226.288l.128.085c.111.071.214.14.314.21s.185.125.272.186a4.635,4.635,0,0,1,1.913,2.086c.056.147.61,1.523.055,2.035-.412.378-1.205.066-1.27.041-.878-.359-1.135-1.213-1.862-2.544-.261-.48-.517-.892-.752-1.249l-.019-.031-.07-.106c-.083-.124-.161-.238-.236-.345l-.029-.043-.23-.317L.925,3.22A2.08,2.08,0,0,1,.122.877a1.51,1.51,0,0,1,.9-.807A1.733,1.733,0,0,1,2.582.431Z" transform="translate(0 0)" fill="#ffbdb9"/></g><path d="M15.551,16.468a17.537,17.537,0,0,1,2.341,1.226A18.622,18.622,0,0,1,21.4,20.573c2.821,2.84,5.388,5.75,6.449,6.967l-2.418,2.879c-1.757-1-6.305-3.6-10.365-6.161a26.836,26.836,0,0,1-3.233-2.349,33.12,33.12,0,0,1-3.487-3.6Q4.342,14.1.695,9.961L0,8.752A3.588,3.588,0,0,0,1.078,7.191a3.966,3.966,0,0,0-.489-3.3,6.027,6.027,0,0,1,4-2.9L4.643.984a4.613,4.613,0,0,1,1.27.077C6.174,1.06,6.554.877,7.029,0L7.6,1.008A9.549,9.549,0,0,1,9.534,3.656a9.644,9.644,0,0,1,.975,4.376Z" transform="translate(22.564 31.55)" fill="#6152a0"/><path d="M10.076,0l.864,1.008A26.8,26.8,0,0,1,5.326,2.26a26.781,26.781,0,0,1-5.067.086L0,1.238A26.183,26.183,0,0,0,6.55.895,26.032,26.032,0,0,0,10.076,0Z" transform="translate(19.703 31.377)" fill="#5a4d99"/></g></g><g transform="matrix(0.996, -0.087, 0.087, 0.996, 205.348, 26.069)"><path d="M24.825,4.836a1.739,1.739,0,0,1-2.1,1.434c-1.006.008-2.07.016-3.171.023h-.32c-5.316.028-11.455.029-16.312.07H2.745c-.092-.011-.186-.025-.277-.037a3.744,3.744,0,0,1-1.2-.626A3.375,3.375,0,0,1,.237,4.383C.231,4.369.225,4.356.22,4.342A2.764,2.764,0,0,1,0,3.279,3.074,3.074,0,0,1,.789,1.271,3.622,3.622,0,0,1,1.377.726a3.732,3.732,0,0,1,1.6-.674A3.849,3.849,0,0,1,3.729,0l.093,0C4.656.055,5.355.1,5.936.138c1.894.128,2.538.2,2.538.2a34.426,34.426,0,0,1,6.042,1.378l7.17,1.15,1.882.3A1.683,1.683,0,0,1,24.825,4.836Z" transform="translate(29.315 52.218)" fill="#f17a88"/><g transform="translate(22.361 35.767)"><path d="M6.752.449c3.5,1.585,4.341,7.2,5.139,12.553.084.562.138,1.031.174,1.55.039.559.051,1.1.039,1.617a18.848,18.848,0,0,1-.822,5.146l-.133.052c-.115,0-.262.007-.433.019,0,0-.324.02-.624.071a7.482,7.482,0,0,0-1.892.591.394.394,0,0,0-.039.017,31.252,31.252,0,0,1-1.78-2.824A38.872,38.872,0,0,1,4.52,15.262C3.786,13.4,2.124,9.1,0,3.337A5.107,5.107,0,0,1,2.4.486,5.431,5.431,0,0,1,6.752.449Z" transform="translate(0 0)" fill="#ffb8ae"/></g><path d="M.029,11.288,6.86,24.37l20.9.463q-.087-2.431-.174-4.862L12.243,17.482,10.1,7.468a12.086,12.086,0,0,0-.116-3.762,12.029,12.029,0,0,0-.81-2.6A5.12,5.12,0,0,0,5.355.059C2.289.62-.307,5.126.029,11.288Z" transform="translate(23.805 34.637)" fill="#5743a1"/><path d="M9.426,2.069,2.319,14.037a2.032,2.032,0,0,1-1.7-.463,1.985,1.985,0,0,1-.552-1.979L5.66.124A3.111,3.111,0,0,1,7.67.218,3.225,3.225,0,0,1,9.426,2.069Z" transform="translate(11.911 13.087)" fill="#e97c85"/><g transform="translate(0 16.632)"><path d="M9.11,8.709c-.563-.481-1.732-1.6-2.91-2.582-.181-.151-.319-.252-.546-.459-.127-.116-1.143-1.048-1.476-1.314-.068-.054-.338-.266-.427-.342-.011-.009-.062-.048-.13-.1-.012-.01-.029-.019-.041-.03C3.026,3.7,1.091,3.04.364,1.756.193,1.453-.171.81.094.363A.73.73,0,0,1,.378.1c.973-.524,2.9,1.2,2.991,1.28A6.651,6.651,0,0,1,4.546,2.8l.021.018.021.018h0l.028.027.15.134Q5.9,3.525,7.1,4.147,8.4,4.82,9.558,5.5l4.61,2.125c.656,2.329.07,2.89-.1,3.023C13.092,11.391,10.463,9.864,9.11,8.709Z" transform="translate(0 0)" fill="#fa9eaa"/></g><path d="M1.357,6.451,0,8.588a74.9,74.9,0,0,0,6.309,4.9q1.054.732,2.091,1.4a3.733,3.733,0,0,0,1.907-.111L17.459,2.987A2.69,2.69,0,0,0,16.285.407,2.793,2.793,0,0,0,13.755.223L8.766,10.1Z" transform="translate(3.812 12.874)" fill="#e6e6d6"/><path d="M0,2.4c.4-.089.856-.13,1.048.106.222.273-.067.732.074.825.218.144,1.035-.841,2.137-1.683A6.041,6.041,0,0,1,5.168.682L5.736.164A4.164,4.164,0,0,0,4.537,0,5.807,5.807,0,0,0,1.221,1.358,9.372,9.372,0,0,0,0,2.4Z" transform="translate(17.793 10.483)" fill="#b4c1de"/><path d="M1.289,0a2.735,2.735,0,0,1,.3.936,2.732,2.732,0,0,1-.032.912C1.12,1.19.716.978.375.964.188.957.029,1.009,0,.957-.054.84.653.384,1.289,0Z" transform="translate(17.298 11.895)" fill="#dce7ff"/><path d="M0,0" transform="translate(24.248 31.061)" fill="#fcbd24"/><path d="M0,0" transform="translate(26.599 36.933)" fill="#fcbd24"/><path d="M7.387,1.8a77.178,77.178,0,0,0-3.85,7,41.451,41.451,0,0,0-2.7,5.513c-.058.165-1.4,4.016-.571,4.463.307.166.672-.265,2.059-.566a9.369,9.369,0,0,1,1.3-.183c2.818-.3,7.412-8.651,7.412-8.651h0A42.8,42.8,0,0,0,13.983,3.4C13.582,2.8,11.4-.387,9.317.039A3.294,3.294,0,0,0,7.387,1.8Z" transform="translate(15.269 39.483)" fill="#ffb8ae"/><path d="M3.136,20.213l-1.854-.39L.846,17.555Q.471,11.315.13,5.076.064,3.88,0,2.682A8.577,8.577,0,0,1,.357.271C.7.176,3.7-.6,5.273,1.011c.994,1.021.925,2.5.837,4.4a18.451,18.451,0,0,1-.683,3.633c-.185.843-.3,1.45-.441,2.348-.2,1.248-.284,2.182-.317,2.518C4.552,15.14,4.292,17.227,3.675,21Z" transform="translate(15.264 55.167)" fill="#f17a88"/><path d="M16.273,8.833a20.092,20.092,0,0,0,0-8.833,7.614,7.614,0,0,1-2.09,1.386C10.367,3.08,6.382.969,5.7.6c-.83,2.295-1.631,4.715-2.383,7.259A127.517,127.517,0,0,0,0,22.04L.92,37.947l3.457.631A75.342,75.342,0,0,0,7.327,30.85c.98-3.068,1.316-4.812.842-6.8A8.944,8.944,0,0,0,7.2,21.629,21.724,21.724,0,0,0,16.273,8.833Z" transform="translate(15.177 33.992)" fill="#644cb5"/><path d="M0,0" transform="translate(16.266 8.096)" fill="#03042b"/><path d="M.671,6.919A11.282,11.282,0,0,0,.966,5.4a3.864,3.864,0,0,0,.013-.422c0-.059-.006-.12-.012-.181,0,0-.009-.092-.023-.187A16.286,16.286,0,0,0,0,2.468,5.807,5.807,0,0,0,1.726,1.58,5.747,5.747,0,0,0,3.167,0c.032.109.081.271.148.465a12.2,12.2,0,0,0,.932,1.988L5.181,4.18l.51.185a3,3,0,0,1-.3.993A3.528,3.528,0,0,1,3.716,6.869c-1.046.537-2.627.9-2.976.378A.506.506,0,0,1,.671,6.919Z" transform="translate(17.811 7.509)" fill="#fa9eaa"/><path d="M1.559,19.914A22.386,22.386,0,0,1,2.4,22.273a22.507,22.507,0,0,1,.871,4.878l15.3-2.886a57.285,57.285,0,0,1-3.037-10.728c-.3-1.84-.754-3.655-.98-5.5a14.851,14.851,0,0,0-.771-3.589A13.1,13.1,0,0,0,12.68,2.127,10.859,10.859,0,0,0,10.152.344,3.916,3.916,0,0,0,8.735,0c-.2,0-.406.023-.406.023C8.206.036,8.1.054,8,.073A5.3,5.3,0,0,1,6.677,1.618a1.764,1.764,0,0,1-.655.424,1.411,1.411,0,0,1-.9-.077c-.223.086-.563.221-.976.4-.363.16-.478.222-.576.171s-.275-.255.015-1.474A6.491,6.491,0,0,0,2.058,2.24,7.4,7.4,0,0,0,.245,6.03C-.287,8.5,0,13.575,1.559,19.914Z" transform="translate(15.244 12.08)" fill="#464485"/><path d="M6.279,4.943C6.864,7.2,7.4,11.352,5.2,17.381A35.793,35.793,0,0,1,0,26.827l13.529-2.563a57.287,57.287,0,0,1-3.038-10.728c-.3-1.84-.754-3.655-.98-5.5a14.86,14.86,0,0,0-.771-3.589A13.1,13.1,0,0,0,7.635,2.127,10.861,10.861,0,0,0,5.107.344,3.916,3.916,0,0,0,3.689,0c-.2,0-.406.023-.406.023-.123.014-.231.032-.324.05A5.3,5.3,0,0,1,1.631,1.618a4.69,4.69,0,0,1,2.749.672A4.5,4.5,0,0,1,6.279,4.943Z" transform="translate(20.29 12.08)" fill="#0b1323" opacity="0.11"/><path d="M0,3.042a8.614,8.614,0,0,1,.716.574c.329.293.32.321.406.357.488.209,1.2-.579,2.207-1.382a15.339,15.339,0,0,1,1.84-1.265L4.263,0A21.233,21.233,0,0,0,1.221,2C.78,2.349.373,2.7,0,3.042Z" transform="translate(19.281 10.66)" fill="#f6f5ed"/><g transform="translate(13.378 0)"><g transform="translate(0)"><path d="M0,0" transform="translate(2.285 7.53)" fill="#03042b"/><g transform="translate(0 0.532)"><g transform="translate(0.745 0)"><path d="M.687,3.023a5.632,5.632,0,0,0-.4,1.019c-.807,2.8.1,6.673,2.315,6.393,3.272-.414,4.535-1.463,5.363-3.953C8.741,4.156,8.177,1,6.029.187A3.226,3.226,0,0,0,5.26.01a3.5,3.5,0,0,0-.7.016A5.794,5.794,0,0,0,.687,3.023Z" transform="translate(0 0)" fill="#faa3af"/></g><g transform="translate(0 5.715)"><path d="M.8,0S.41,1.049.155,1.14s-.119.371-.119.371l.841.266Z" transform="translate(0 0)" fill="#faa3af"/></g></g><g transform="translate(0.26 0)"><path d="M4.6,4.856c-.619-.385-1.354.245-2.486.118A3.05,3.05,0,0,1,.749,4.45,4.527,4.527,0,0,1,.011,1.642,9.455,9.455,0,0,1,1.249.874,6.967,6.967,0,0,1,3.586.039,5.309,5.309,0,0,1,6.633.612,4.288,4.288,0,0,1,9.1,2.353c1.51,2.45-.539,6.2-1.641,6.2-.537,0-1.121-.906-1.864-2.022-.249-.374-.485-.812-.485-.812A1.226,1.226,0,0,0,4.6,4.856Z" transform="translate(0)" fill="url(#c)"/></g><g transform="translate(5.445 5.431)"><path d="M1.716.288c.189.3.2.656-.339.991S.248,1.645.059,1.347.153.536.692.2,1.527-.01,1.716.288Z" transform="translate(0 0)" fill="#faa3af"/></g></g><path d="M4.444,3.4c0-.086,0-.157.006-.2L4.189.855,3.567,0a7.533,7.533,0,0,1-.2,2.851A4.926,4.926,0,0,1,2.9,3.966c-.254.478-.948.971-2.887,1.016l.135.657A2.825,2.825,0,0,0,0,6.588c.008.376.018.85.239,1.056.736.685,4.246-1.2,4.234-2.523C4.472,4.969,4.419,4.35,4.444,3.4Z" transform="translate(1.565 5.083)" fill="url(#d)"/></g><g transform="translate(9.543 72.073)"><path d="M0,.918l.068.625c.32.062.8.146,1.388.211a21.742,21.742,0,0,0,4.333-.046c.959-.078,2.219-.208,3.7-.435L9.777,0Z" transform="translate(0.056 3.565)" fill="#09073a"/><path d="M9.607,2.972c-7.682.859-9.488.551-9.6.065-.091-.385.891-1.08,1.521-1.4A4.81,4.81,0,0,1,3.1,1.234a2.8,2.8,0,0,0,.286-.077c.077-.024.156-.052.24-.087S3.8,1,3.9.949L4.021.887,4.147.819,4.4.677C4.476.638,4.552.6,4.632.562S4.8.482,4.9.444s.174-.066.269-.1S5.336.3,5.428.275L5.455.269c.1-.024.2-.044.291-.059.11-.019.211-.032.3-.041S6.2.155,6.263.152L6.3,0A7.571,7.571,0,0,0,8.184.431a7.547,7.547,0,0,0,1.6-.012,3.416,3.416,0,0,1-.175,2.553Z" transform="translate(0 1.428)" fill="#474c7d"/><path d="M1.979.575c.074.17.034.324-.045.626a1.491,1.491,0,0,1-.412.821A.974.974,0,0,1,.8,2.309,1,1,0,0,1,0,1.522,3.12,3.12,0,0,1,.1.86C.2.455.272.182.5.059A1.013,1.013,0,0,1,1.3.128C1.58.222,1.867.318,1.979.575Z" transform="translate(6.027 0)" fill="#474c7d"/><path d="M.6,1.129a.149.149,0,0,1-.193-.076L0,.118C.084.078.171.039.268,0L.676.939A.144.144,0,0,1,.6,1.129Z" transform="translate(4.632 1.872)" fill="#fff"/><path d="M.658,1.223a.148.148,0,0,1-.193-.076L0,.079C.081.054.167.03.259.007L.286,0,.735,1.033A.144.144,0,0,1,.658,1.223Z" transform="translate(5.169 1.696)" fill="#fff"/><path d="M.682,1.242a.148.148,0,0,1-.193-.076L0,.041C.11.022.211.009.3,0L.759,1.053A.143.143,0,0,1,.682,1.242Z" transform="translate(5.746 1.596)" fill="#fff"/><path d="M.546,1.032A.149.149,0,0,1,.353.956L0,.142.257,0,.623.842A.145.145,0,0,1,.546,1.032Z" transform="translate(4.147 2.104)" fill="#fff"/><path d="M.469.83A.148.148,0,0,1,.276.754L0,.12C.084.087.173.046.268,0L.546.639A.144.144,0,0,1,.469.83Z" transform="translate(3.631 2.377)" fill="#fff"/><path d="M.41.652A.148.148,0,0,1,.217.577L0,.077A2.8,2.8,0,0,0,.285,0l.2.462A.144.144,0,0,1,.41.652Z" transform="translate(3.105 2.585)" fill="#fff"/></g><path d="M1.958,0,.929,2.206a2.72,2.72,0,0,1-.492.65A2.738,2.738,0,0,1,0,3.2a1.339,1.339,0,0,1,.177.378,1.575,1.575,0,0,1,.052.445,4.64,4.64,0,0,1-.044.706c.005.114.031.236.115.28.328.17,1.481-.891,1.9-2.091A3.971,3.971,0,0,0,1.958,0Z" transform="translate(18.496 8.371)" fill="#f14f6c" opacity="0.23"/><g transform="translate(21.459 31.297)"><path d="M4.256.163A13.252,13.252,0,0,1,.14,4.222c-.113.071-.2-.115-.088-.185A13.027,13.027,0,0,0,4.087.045c.072-.112.241.006.169.118Z" transform="translate(0 0)" fill="#09073a"/></g><g transform="translate(21.692 32.569)"><path d="M2.186.157A12.981,12.981,0,0,1,.172,2.088c-.106.081-.24-.075-.133-.157A12.706,12.706,0,0,0,2.016.039c.085-.1.255.016.17.118Z" transform="translate(0 0)" fill="#09073a"/></g><g transform="translate(21.706 33.184)"><path d="M.83.186a4.5,4.5,0,0,1-.655.54C.065.8-.069.644.041.569A4.5,4.5,0,0,0,.7.029C.791-.065.924.092.83.186Z" transform="translate(0 0)" fill="#09073a"/></g><g transform="translate(19.403 5.855)"><path d="M1,.4A1.454,1.454,0,0,1,.26.81C-.027.876-.107.432.178.367A1.034,1.034,0,0,0,.708.054.231.231,0,0,1,1.03.081.23.23,0,0,1,1,.4Z" transform="translate(0 0)" fill="#f14f6c"/></g><path d="M.173,1.741a.623.623,0,0,0,.355.187c.66.14,1.618-.5,1.544-1.1A1.131,1.131,0,0,0,.674.052,1.2,1.2,0,0,0,.173,1.741Z" transform="translate(17.585 13.608)" fill="url(#e)"/><path d="M2.059,4.117,3.278.333,2.662,0,.445,3.587Q.222,7.838,0,12.089L.969,15.8q.157-1.773.314-3.547Q1.671,8.187,2.059,4.117Z" transform="translate(14.991 15.101)" fill="url(#f)"/><g transform="translate(33.501 21.443)"><path d="M9.574,14.264C9.516,12.788,8.1,11.3,7.689,10.886c-.006-.016-.017-.031-.023-.046-.035-.081-.062-.139-.068-.153-.028-.068-.094-.216-.149-.337l-.074-.164C7.2,9.8,6.727,8.5,6.667,8.336c-.106-.289-.182-.442-.274-.66-.6-1.417-1.122-2.953-1.4-3.641C4.319,2.383,2.683-.194,1.477.012,1.262.048.485.271,0,2.639L3.121,6.668q.723,1.139,1.562,2.34.779,1.11,1.548,2.109l.072.189.012.036h0l.01.026.01.025a6.7,6.7,0,0,0,.4,1.8c.044.119.966,2.536,2.071,2.526a.729.729,0,0,0,.374-.1.542.542,0,0,0,.048-.033C9.614,15.3,9.587,14.6,9.574,14.264Z" transform="translate(0 0)" fill="#faa3af"/></g><path d="M2.753.048,12.57,7.743c1.113,1.293.8,2.951-.029,3.455a2.226,2.226,0,0,1-2.481-.556L.379,3.453A2.419,2.419,0,0,1,.22,1.2,2.319,2.319,0,0,1,2.753.048Z" transform="translate(23.188 13.827)" fill="#ff8f98"/><g transform="translate(50.712 54.825)"><path d="M2.363,9.531,2.97,9.37c.014-.326.025-.813,0-1.4a21.707,21.707,0,0,0-.69-4.277C2.061,2.753,1.746,1.526,1.3.1L0,0Z" transform="translate(3.079 0.056)" fill="#09073a"/><path d="M2.551.155c1.993,7.468,1.957,9.3,1.493,9.484-.367.147-1.2-.72-1.607-1.3a4.808,4.808,0,0,1-.638-1.5,2.863,2.863,0,0,0-.119-.271c-.035-.072-.075-.147-.122-.225s-.1-.16-.159-.246c-.025-.036-.051-.073-.08-.112l-.087-.115-.178-.233c-.049-.065-.1-.135-.148-.208S.8,5.278.751,5.188.66,5.026.616,4.936s-.074-.158-.11-.245C.5,4.682.5,4.674.5,4.665c-.039-.1-.073-.191-.1-.279C.358,4.28.33,4.182.307,4.093S.273,3.945.259,3.884L.1,3.873A7.578,7.578,0,0,0,.25,1.943,7.554,7.554,0,0,0,0,.364,3.416,3.416,0,0,1,2.551.155Z" transform="translate(1.388 0)" fill="#474c7d"/><path d="M.394.074c.157-.1.316-.082.626-.049A1.488,1.488,0,0,1,1.893.31a.973.973,0,0,1,.391.666,1,1,0,0,1-.658.913,3.106,3.106,0,0,1-.67,0C.54,1.849.26,1.821.1,1.609a1.013,1.013,0,0,1-.05-.8A1.006,1.006,0,0,1,.394.074Z" transform="translate(0 2.235)" fill="#474c7d"/><path d="M1.067.07a.149.149,0,0,1-.046.2L.156.813C.1.736.052.655,0,.566L.868.022A.144.144,0,0,1,1.067.07Z" transform="translate(2.139 4.622)" fill="#fff"/><path d="M1.154.07a.148.148,0,0,1-.046.2L.121.891C.084.815.047.733.011.646.008.637,0,.629,0,.62l.955-.6A.144.144,0,0,1,1.154.07Z" transform="translate(1.883 4.045)" fill="#fff"/><path d="M1.171.069a.148.148,0,0,1-.046.2L.086.924C.051.818.023.72,0,.631L.973.022A.143.143,0,0,1,1.171.069Z" transform="translate(1.695 3.462)" fill="#fff"/><path d="M.977.07a.149.149,0,0,1-.046.2L.178.743Q.093.633,0,.51L.778.022A.144.144,0,0,1,.977.07Z" transform="translate(2.443 5.132)" fill="#fff"/><path d="M.79.07a.148.148,0,0,1-.046.2L.159.639Q.09.522,0,.393L.591.022A.144.144,0,0,1,.79.07Z" transform="translate(2.788 5.709)" fill="#fff"/><path d="M.626.069a.148.148,0,0,1-.046.2L.119.561A2.834,2.834,0,0,0,0,.29L.427.022A.144.144,0,0,1,.626.069Z" transform="translate(3.068 6.283)" fill="#fff"/></g><path d="M18.84,17.633l-2.547,1.312-5.557-7.1L.395,4.281A3.018,3.018,0,0,1,1.089.422,2.949,2.949,0,0,1,3.636.191L14.518,9.143Z" transform="translate(22.63 13.32)" fill="#f4f1e1"/></g></g></g></g></svg>