<svg xmlns="http://www.w3.org/2000/svg" width="517" height="174.111" viewBox="0 0 517 174.111"><g transform="translate(-599 -21.077)"><g transform="translate(-1454.145 -120.386)"><g transform="translate(2085.47 141.485)"><g transform="translate(33.012 13.377)"><path d="M2372.727,207.888a1.36,1.36,0,1,1-1.357-1.445A1.4,1.4,0,0,1,2372.727,207.888Z" transform="translate(-2370.013 -206.443)" fill="#def0fe"/><path d="M2413.452,207.888a1.36,1.36,0,1,1-1.357-1.445A1.4,1.4,0,0,1,2413.452,207.888Z" transform="translate(-2402.341 -206.443)" fill="#def0fe"/></g><path d="M2372.727,143.015a1.36,1.36,0,1,1-1.357-1.445A1.4,1.4,0,0,1,2372.727,143.015Z" transform="translate(-2337.001 -141.57)" fill="#def0fe"/><path d="M2413.452,143.015a1.36,1.36,0,1,1-1.357-1.445A1.4,1.4,0,0,1,2413.452,143.015Z" transform="translate(-2369.329 -141.57)" fill="#def0fe"/><ellipse cx="1.357" cy="1.445" rx="1.357" ry="1.445" transform="translate(33.012 6.666)" fill="#def0fe"/><ellipse cx="1.357" cy="1.445" rx="1.357" ry="1.445" transform="translate(41.409 6.666)" fill="#def0fe"/><path d="M2252.158,207.888a1.36,1.36,0,1,1-1.357-1.445A1.4,1.4,0,0,1,2252.158,207.888Z" transform="translate(-2241.293 -193.066)" fill="#def0fe"/><path d="M2292.883,207.888a1.36,1.36,0,1,1-1.357-1.445A1.4,1.4,0,0,1,2292.883,207.888Z" transform="translate(-2273.62 -193.066)" fill="#def0fe"/><path d="M2333.608,207.888a1.36,1.36,0,1,1-1.357-1.445A1.4,1.4,0,0,1,2333.608,207.888Z" transform="translate(-2305.948 -193.066)" fill="#def0fe"/><ellipse cx="1.357" cy="1.445" rx="1.357" ry="1.445" transform="translate(8.151)" fill="#def0fe"/><ellipse cx="1.357" cy="1.445" rx="1.357" ry="1.445" transform="translate(16.549)" fill="#def0fe"/><ellipse cx="1.357" cy="1.445" rx="1.357" ry="1.445" transform="translate(24.946)" fill="#def0fe"/><path d="M2252.158,175.345a1.36,1.36,0,1,1-1.357-1.445A1.4,1.4,0,0,1,2252.158,175.345Z" transform="translate(-2241.293 -167.234)" fill="#def0fe"/><path d="M2212.627,207.888a1.36,1.36,0,1,1-1.357-1.445A1.4,1.4,0,0,1,2212.627,207.888Z" transform="translate(-2209.913 -193.066)" fill="#def0fe"/><ellipse cx="1.357" cy="1.445" rx="1.357" ry="1.445" transform="translate(0)" fill="#def0fe"/><path d="M2212.627,175.345a1.36,1.36,0,1,1-1.357-1.445A1.4,1.4,0,0,1,2212.627,175.345Z" transform="translate(-2209.913 -167.234)" fill="#def0fe"/><path d="M2292.883,175.345a1.36,1.36,0,1,1-1.357-1.445A1.4,1.4,0,0,1,2292.883,175.345Z" transform="translate(-2273.62 -167.234)" fill="#def0fe"/><path d="M2333.608,175.345a1.36,1.36,0,1,1-1.357-1.445A1.4,1.4,0,0,1,2333.608,175.345Z" transform="translate(-2305.948 -167.234)" fill="#def0fe"/></g><g transform="translate(2053.145 141.463)"><g transform="translate(16.463 13.377)"><ellipse cx="1.357" cy="1.445" rx="1.357" ry="1.445" fill="#def0fe"/><ellipse cx="1.357" cy="1.445" rx="1.357" ry="1.445" transform="translate(8.397)" fill="#def0fe"/></g><path d="M2135.7,142.908a1.36,1.36,0,1,1-1.357-1.445A1.4,1.4,0,0,1,2135.7,142.908Z" transform="translate(-2116.525 -141.463)" fill="#def0fe"/><path d="M2176.428,142.908a1.36,1.36,0,1,1-1.357-1.445A1.4,1.4,0,0,1,2176.428,142.908Z" transform="translate(-2148.853 -141.463)" fill="#def0fe"/><path d="M2135.7,175.238a1.36,1.36,0,1,1-1.357-1.445A1.4,1.4,0,0,1,2135.7,175.238Z" transform="translate(-2116.525 -167.127)" fill="#def0fe"/><path d="M2176.428,175.238a1.36,1.36,0,1,1-1.357-1.445A1.4,1.4,0,0,1,2176.428,175.238Z" transform="translate(-2148.853 -167.127)" fill="#def0fe"/><path d="M2055.859,207.781a1.36,1.36,0,1,1-1.357-1.445A1.4,1.4,0,0,1,2055.859,207.781Z" transform="translate(-2053.145 -192.959)" fill="#def0fe"/><path d="M2096.584,207.781a1.36,1.36,0,1,1-1.357-1.445A1.4,1.4,0,0,1,2096.584,207.781Z" transform="translate(-2085.473 -192.959)" fill="#def0fe"/><ellipse cx="1.357" cy="1.445" rx="1.357" ry="1.445" transform="translate(0 0)" fill="#def0fe"/><ellipse cx="1.357" cy="1.445" rx="1.357" ry="1.445" transform="translate(8.397 0)" fill="#def0fe"/><path d="M2055.859,175.238a1.36,1.36,0,1,1-1.357-1.445A1.4,1.4,0,0,1,2055.859,175.238Z" transform="translate(-2053.145 -167.127)" fill="#def0fe"/><path d="M2096.584,175.238a1.36,1.36,0,1,1-1.357-1.445A1.4,1.4,0,0,1,2096.584,175.238Z" transform="translate(-2085.473 -167.127)" fill="#def0fe"/></g></g><g transform="translate(-2181.824 -405.155)"><g transform="translate(3229.248 520.113)"><g transform="translate(0 0)"><path d="M3243.841,563.388l-.547-.733-6.732-8.994-7.314,9.732h1.1l6.214-8.269,6.184,8.263,0,.006h1.1Z" transform="translate(-3229.248 -553.662)" fill="#def0fe"/></g><g transform="translate(13.492 0)"><path d="M3307.321,562.663l-6.765-9-6.73,8.994-.549.733,0,.006h1.1l0-.006,6.185-8.263,6.214,8.269h1.1Z" transform="translate(-3293.272 -553.662)" fill="#def0fe"/></g><g transform="translate(26.992 0)"><g transform="translate(13.49)"><path d="M3435.943,563.388l-.549-.731-6.76-9-6.732,8.992-.549.732,0,.008h1.1l.006-.008,6.185-8.261,6.209,8.264,0,0h1.1Z" transform="translate(-3421.348 -553.662)" fill="#def0fe"/></g><path d="M3371.925,563.386l-.549-.732-6.732-8.992-6.763,9-.549.731h1.1l6.213-8.269,6.185,8.261.006.008h1.1Z" transform="translate(-3357.332 -553.662)" fill="#def0fe"/></g><g transform="translate(53.975 0)"><path d="M3492.686,553.662l-6.76,9-.549.733,0,0h1.1l0-.006,6.21-8.263,6.189,8.269h1.1Z" transform="translate(-3485.372 -553.662)" fill="#def0fe"/></g></g><g transform="translate(3229.253 511.155)"><g transform="translate(0 0)"><path d="M3243.863,520.881l-.549-.733-3.824-5.109-.179-.238-.008-.01-.182-.246h0l-2.538-3.391-3.129,4.166-.226.3-.225.3-.234.31-3.5,4.659h1.1l3.653-4.862.235-.314.179-.237.227-.3,1.918-2.553,1.554,2.077.183.246.033.042.179.238,4.235,5.658.006.008h1.1Z" transform="translate(-3229.27 -511.155)" fill="#def0fe"/></g><g transform="translate(13.49 0)"><path d="M3307.337,520.158l-5.6-7.458-.058-.077-.123-.163-.056-.075-.924-1.23-1.246,1.664-.067.091-.171.229-.069.093-5.179,6.917-.549.733,0,.008h1.1l.006-.008,5.916-7.905.069-.091v0l.172-.229.027-.035.021.027.127.168.052.071,6.013,8h1.1Z" transform="translate(-3293.286 -511.155)" fill="#def0fe"/></g><g transform="translate(26.992 0)"><g transform="translate(13.491)"><path d="M3435.966,520.884l-.549-.731-6.255-8.324-.239-.318-.267-.356-.206.275-.182.243-6.344,8.476-.549.733,0,.008h1.1l.006-.008,6.185-8.261,6.208,8.264,0,0h1.1Z" transform="translate(-3421.371 -511.155)" fill="#def0fe"/></g><path d="M3371.948,520.881l-.549-.733-6.732-8.994-6.763,9-.549.731h1.1l6.213-8.269,6.185,8.261.006.008h1.1Z" transform="translate(-3357.355 -511.155)" fill="#def0fe"/></g><g transform="translate(53.975 0)"><path d="M3497.2,517.153l-.3-.4-4.189-5.6-2.353,3.132-.165.22-4.241,5.646-.551.731,0,0h1.1l0,0,4.571-6.084.163-.217,1.475-1.964,2.6,3.479.295.394,3.291,4.4h1.1Z" transform="translate(-3485.394 -511.155)" fill="#def0fe"/></g></g></g><g transform="translate(-758.338 -43.642)"><path d="M1368.762,195.615l28.609-33.76q-.933.338-1.849.718l-26.356,31.1Q1368.941,194.64,1368.762,195.615Z" transform="translate(-0.332 -9.535)" fill="#def0fe"/><path d="M1368.56,203.055l45.245-53.391c-.407-.012-.815-.02-1.222-.022l-44.246,52.212Q1368.44,202.455,1368.56,203.055Z" transform="translate(0)" fill="#def0fe"/><path d="M1387.259,222.114l53.551-63.192c-.324-.11-.649-.213-.975-.313L1386.79,221.2C1386.943,221.508,1387.1,221.812,1387.259,222.114Z" transform="translate(-14.405 -7)" fill="#def0fe"/><path d="M1416.756,248.465l57.238-67.543c-.266-.176-.534-.348-.8-.515l-57.073,67.348C1416.325,247.995,1416.539,248.231,1416.756,248.465Z" transform="translate(-37.298 -24.017)" fill="#def0fe"/><path d="M1454.731,280.464l57.235-67.54c-.215-.232-.432-.465-.653-.694l-57.374,67.7C1454.2,280.114,1454.466,280.29,1454.731,280.464Z" transform="translate(-66.824 -48.86)" fill="#def0fe"/><path d="M1501.065,317.97l53.538-63.176c-.157-.3-.318-.6-.484-.893L1500.1,317.639C1500.424,317.753,1500.743,317.864,1501.065,317.97Z" transform="translate(-102.862 -81.389)" fill="#def0fe"/><path d="M1557.708,362.182l45.216-53.356c-.077-.392-.161-.782-.25-1.17l-46.161,54.472C1556.91,362.151,1557.309,362.17,1557.708,362.182Z" transform="translate(-146.897 -123.353)" fill="#def0fe"/><path d="M1632.248,417.664l28.547-33.687q.171-.906.3-1.82l-30.6,36.1Q1631.381,417.98,1632.248,417.664Z" transform="translate(-204.655 -181.511)" fill="#def0fe"/></g></g></svg>