<svg xmlns="http://www.w3.org/2000/svg" id="wda_logo" class="svg-filter" filter=" url('#balance')" viewBox="0 0 567 90">
  <defs>
    <filter id="balance">
      <feColorMatrix id="rotateComp" type="matrix"></feColorMatrix>
    </filter>
  </defs>
  <g id="logo_content" style="opacity: 1.06574;">
    <path fill="#161615" d="m402.2 77.5 1-3.8h1.8l-1.4 3.8Zm46.1-1.9.2-1.4a6.7 6.7 0 0 0 2.3.5c.9 0 2.1-.5 2.1-1.8 0-2.4-4.7-1.7-4.7-5 0-2 1.5-3 3.5-3a7.4 7.4 0 0 1 2.4.3l-.3 1.5a4.9 4.9 0 0 0-2-.5c-.9 0-2 .3-2 1.5 0 2 4.8 1.6 4.8 5.2 0 2.3-1.8 3.2-4 3.2a7.4 7.4 0 0 1-2.3-.5Zm-96.7-5.2a5.4 5.4 0 0 1 5.8-5.5 8.3 8.3 0 0 1 3.3.5l-.2 1.6a5.1 5.1 0 0 0-3-.8 4.3 4.3 0 0 0 0 8.5 6.5 6.5 0 0 0 1.7-.2v-3.3h-2.3V70h3.9v5.6a10 10 0 0 1-3.4.5c-3.5 0-5.8-2.2-5.8-5.7Zm194.3 0c0-3.2 2-5.5 5.2-5.5s5.3 2.4 5.3 5.6c0 3.3-2 5.6-5.3 5.6s-5.3-2.3-5.3-5.6Zm1.6 0c0 2.2 1.1 4.3 3.6 4.3s3.7-2 3.7-4.2-1.2-4.3-3.7-4.3c-2.4 0-3.6 2-3.6 4.3Zm-56.8 0c0-3.2 2-5.5 5.3-5.5s5.2 2.4 5.2 5.6c0 3.3-1.9 5.6-5.2 5.6s-5.3-2.3-5.3-5.6Zm1.6 0c0 2.2 1.1 4.3 3.7 4.3s3.6-2 3.6-4.2-1.2-4.3-3.6-4.3c-2.5 0-3.7 2-3.7 4.3Zm-108.3 0a5.4 5.4 0 0 1 5.8-5.5 6.1 6.1 0 0 1 2.5.4l-.1 1.5a4.5 4.5 0 0 0-2.3-.6 4.3 4.3 0 0 0 0 8.5 5.4 5.4 0 0 0 2.3-.5l.1 1.5a6.9 6.9 0 0 1-2.5.4c-3.5 0-5.8-2.2-5.8-5.7Zm-115.3 0c0-3.2 2-5.5 5.3-5.5s5.3 2.4 5.3 5.6c0 3.3-2 5.6-5.3 5.6s-5.3-2.3-5.3-5.6Zm1.7 0c0 2.2 1 4.3 3.6 4.3s3.6-2 3.6-4.2-1.2-4.3-3.6-4.3c-2.4 0-3.6 2-3.6 4.3Zm-74.1 0A5.4 5.4 0 0 1 202 65a6.1 6.1 0 0 1 2.5.4l-.2 1.5a4.4 4.4 0 0 0-2.2-.6 4.3 4.3 0 0 0-.1 8.5 5.5 5.5 0 0 0 2.4-.5v1.5a6.9 6.9 0 0 1-2.4.4c-3.5 0-5.8-2.2-5.8-5.7Zm-22.5 0c0-3.2 2-5.5 5.3-5.5s5.3 2.4 5.3 5.6c0 3.3-2 5.6-5.3 5.6s-5.3-2.3-5.3-5.6Zm1.7 0c0 2.2 1 4.3 3.6 4.3s3.6-2 3.6-4.2-1.2-4.3-3.6-4.3c-2.4 0-3.6 2-3.6 4.3Zm-43.1 0c0-3.2 2-5.5 5.2-5.5s5.3 2.4 5.3 5.6c0 3.3-1.9 5.6-5.3 5.6s-5.3-2.3-5.3-5.6Zm1.6 0c0 2.2 1.1 4.3 3.6 4.3s3.7-2 3.7-4.2-1.2-4.3-3.7-4.3c-2.4 0-3.6 2-3.6 4.3ZM478.8 76v-4.5l-4.3-6.4h1.9l3.2 5 3.2-5h1.9l-4.3 6.4v4.5Zm-34.6 0V65h1.6v11Zm-16.4 0V65h1.6v11Zm-30.2 0v-4.5l-4.3-6.4h1.8l3.3 5 3.2-5h1.8l-4.2 6.4v4.5Zm-115.8 0V65h2.8c2.3 0 4.1.8 4.1 3.3 0 2.4-1.9 3.3-3.8 3.3h-1.6v4.3Zm1.5-5.7h1.6a2 2 0 0 0 2.2-2c0-1.3-1.5-1.8-2.4-1.8h-1.4Zm-62.9 5.7V65h3.3c3.2 0 5.8 2 5.8 5.4 0 3.6-2.2 5.5-5.8 5.5Zm1.6-1.4h1.7c2.7 0 4.2-1.3 4.2-4a3.8 3.8 0 0 0-4-4H222ZM565 76l-1.8-3.8c-.4-1-1-1-1.8-1h-1v4.8H559V65h2.7c2.1 0 4.2.4 4.2 3a2.5 2.5 0 0 1-2.2 2.5 1.8 1.8 0 0 1 1 1l2.1 4.4Zm-4.5-6.2h1.3c1.5 0 2.4-.6 2.4-1.7 0-1-.8-1.6-2.2-1.6h-1.5Zm-24 6.2V65h2.9c2.3 0 3.8.8 3.8 2.8a2.5 2.5 0 0 1-2.2 2.6 2.6 2.6 0 0 1 2.5 2.6c0 2.3-2 2.9-4.2 2.9Zm1.5-1.3h1.2c1.4 0 2.7-.3 2.7-1.7 0-1.7-1.5-2-2.9-2h-1Zm0-5h.9c1.5 0 2.8 0 2.8-1.7 0-1.3-1.2-1.6-2-1.6H538Zm-5.1 6.3-1.1-2.7h-5.4l-1.1 2.7h-1.7l4.7-10.9h1.7l4.6 10.9Zm-6-4h4.4l-2.2-5.4Zm-10.3 4V65h1.6v9.5h4.6V76Zm-12.9 0V65h5.8v1.4h-4.2v3.2h4V71h-4v4.9Zm-31.6 0-1.7-3.8c-.5-1-1-1-1.9-1h-1v4.8H466V65h2.7c2.2 0 4.3.4 4.3 3a2.5 2.5 0 0 1-2.3 2.5 1.8 1.8 0 0 1 1 1l2.1 4.4Zm-4.5-6.2h1.3c1.5 0 2.4-.6 2.4-1.7 0-1-.8-1.6-2.2-1.6h-1.5Zm-8.4 6.2v-9.5h-3.4V65h8.4v1.4h-3.4V76Zm-20.1 0-5-9v9h-1.6V65h2.1l4.9 8.8V65h1.6V76Zm-16 0v-9.4l-3.6 9.4h-1.6l-3.6-9.4v9.4h-1.6V65h2.6l3.4 9 3.4-9h2.6V76Zm-43.6 0-5-9v9h-1.6V65h2.2l4.8 8.8V65h1.6V76Zm-15.6 0V65h6.2v1.4h-4.6v3.2h4.2V71h-4.2v3.5h4.6V76Zm-15.3 0-1.1-2.7H342l-1.1 2.7h-1.7L344 65h1.7l4.6 10.9Zm-6-4h4.4l-2.2-5.4Zm-13.6 4v-9.5h-3.4V65h8.4v1.4h-3.5V76Zm-7.3 0-5-9v9H315V65h2.1l4.9 8.8V65h1.6V76Zm-15.6 0V65h6.2v1.4h-4.6v3.2h4.2V71h-4.2v3.5h4.6V76Zm-4.7 0v-9.4l-3.7 9.4H296l-3.6-9.4v9.4h-1.6V65h2.6l3.4 9 3.4-9h2.6V76Zm-40.3 0V65h1.6v9.5h4.6V76Zm-9 0V65h6.2v1.4h-4.6v3.2h4.2V71h-4.2v3.5h4.6V76Zm-8 0L239.9 65h1.8l3.4 9.5 3.5-9.5h1.6L246 76Zm-11.8 0V65h6.1v1.4h-4.6v3.2h4.2V71h-4.2v3.5h4.6V76Zm-25.4 0V65h6.1v1.4h-4.6v3.2h4.2V71h-4.2v3.5h4.6V76Zm-14 0-1.7-3.8c-.5-1-1-1-1.9-1h-.9v4.8h-1.6V65h2.7c2.2 0 4.3.4 4.3 3a2.5 2.5 0 0 1-2.3 2.5c.5.2.7.4 1 1l2.2 4.4Zm-4.5-6.2h1.3c1.5 0 2.4-.6 2.4-1.7 0-1-.7-1.6-2.2-1.6h-1.5ZM166.1 76V65h5.8v1.4h-4.2v3.2h4V71h-4v4.9Zm-4.2 0-4.9-5.3v5.3h-1.5V65h1.5v4.8l4.7-4.8h2.1l-5.1 5.2 5.5 5.7Zm-10.5 0-1.7-3.8c-.5-1-1-1-1.8-1h-1v4.8h-1.5V65h2.7c2.1 0 4.2.4 4.2 3a2.5 2.5 0 0 1-2.2 2.5c.5.2.7.4 1 1l2.1 4.4Zm-4.5-6.2h1.4c1.5 0 2.4-.6 2.4-1.7 0-1-.8-1.6-2.2-1.6h-1.6ZM125.8 76l-2.4-9.5-2.5 9.5h-2L115.4 65h1.7l2.7 9.3 2.3-9.3h2.3l2.3 9.3 2.7-9.3h1.7L127.8 76Zm95-22.2a79.1 79.1 0 0 0 .4-8.4v-4.2L221 37a.2.2 0 0 1 .2-.2q2.1.2 4.3.2h8.7q2.2 0 4.3-.2a.2.2 0 0 1 .2.2l-.2 4v4.2a79.2 79.2 0 0 0 .4 8.3 4.4 4.4 0 0 1-2 .2c-1 0-1.6 0-1.7-.2a7.3 7.3 0 0 0 .1-1.2V51h-11v1.3a9 9 0 0 0 0 1.3c0 .2-.5.3-1.6.3a4.1 4.1 0 0 1-1.8-.3Zm3.5-5.5h11v-8.3h-11Zm114 3.3 2-1.5-18.6 2-.5-2.8 9.7-1v-3.8h-4.2l-4.2.2a7.8 7.8 0 0 1 0-3q2 .2 4.2.2h4.2v-2.7h-4.2q-2.1 0-4.1.2l-.1-.2a17.3 17.3 0 0 0 .1-2.7v-4a64.2 64.2 0 0 0-.3-6.6c0-.1.1-.2.3-.2q2 .2 4.1.2h4.2V23H326l-4.8.2a8.8 8.8 0 0 1 0-3 43.2 43.2 0 0 0 4.8.2h4.8v-3q-4.7.4-8.3.5a8.3 8.3 0 0 0-.9-2.5 121.5 121.5 0 0 0 19.1-2.2l1.7 2.6a85.3 85.3 0 0 1-8.7 1.3v3.2h4.7l4.7-.2a4.4 4.4 0 0 1 .1 1.6 7.5 7.5 0 0 1 0 1.3l2.2.1h2.7v-9.8h3.2l-.1 9.8h9.3v1.7q-.4 14.6-.8 19.8-.5 5.8-1.6 7.2a3.7 3.7 0 0 1-3 1.6 31.2 31.2 0 0 1-5.3 0 8.4 8.4 0 0 0-1-3.1l5 .2a2 2 0 0 0 1.6-.7q.8-1 1.2-6.2.5-5.3.8-17.3H351a60.5 60.5 0 0 1-2.4 16 23 23 0 0 1-8 11.6 8 8 0 0 0-2.4-2.4Zm-4.5-3.6 8.9-.9v.2a25.1 25.1 0 0 0 4-9.3 70.1 70.1 0 0 0 1.4-11.6h-2.6a25.2 25.2 0 0 0-2.6.1 4.7 4.7 0 0 1-.2-1.7 9.7 9.7 0 0 1 .1-1.6l-4.3-.1h-4.7v2.8h4.3q2.3 0 4.3-.2c.1 0 .2 0 .2.2a31.7 31.7 0 0 0-.2 3.3v6.7a31.7 31.7 0 0 0 .2 3.3c0 .1 0 .2-.2.2q-2-.2-4.3-.2h-4.3v2.7h4.4l4.3-.1a7.8 7.8 0 0 1 0 2.9q-2.1-.2-4.3-.2h-4.4Zm0-11.1h5.8v-3.3h-5.8Zm-8.5 0h5.6v-3.3h-5.6Zm8.5-5.5h5.8v-3.2h-5.8Zm-8.5 0h5.6v-3.2h-5.6ZM183.8 51.5l2-1.5q-8.3 1-18.6 2l-.5-2.8 9.7-1v-3.8h-4.2l-4.2.2a8 8 0 0 1 0-3q2 .2 4.2.2h4.2v-2.7h-4.2q-2.1 0-4 .2c-.2 0-.2 0-.2-.2a17.3 17.3 0 0 0 .1-2.7v-4a64 64 0 0 0-.3-6.6c0-.1.1-.2.3-.2q2 .2 4.1.2h4.2V23h-4.8l-4.8.2a8.5 8.5 0 0 1 0-3 43.1 43.1 0 0 0 4.8.2h4.8v-3q-4.7.4-8.3.5a8.1 8.1 0 0 0-.9-2.5 121.5 121.5 0 0 0 19.1-2.2l1.7 2.6a85.6 85.6 0 0 1-8.7 1.3v3.2h4.7l4.7-.2a4.3 4.3 0 0 1 .1 1.6 7.3 7.3 0 0 1 0 1.3l2.2.1h2.7v-9.8h3.2l-.1 9.8h9.3v1.7q-.4 14.6-.8 19.8-.5 5.8-1.6 7.2a3.7 3.7 0 0 1-3 1.6 31.3 31.3 0 0 1-5.3 0 8.4 8.4 0 0 0-1-3.1l5 .2a2 2 0 0 0 1.6-.7q.8-1 1.2-6.2.5-5.3.8-17.3h-6.3a60.7 60.7 0 0 1-2.5 16 23 23 0 0 1-8 11.6 8 8 0 0 0-2.4-2.4Zm-4.5-3.6 8.9-.9v.2a25.1 25.1 0 0 0 4-9.3 70.5 70.5 0 0 0 1.4-11.6H191a25.1 25.1 0 0 0-2.6.1 4.7 4.7 0 0 1-.1-1.7 9.7 9.7 0 0 1 0-1.6L184 23h-4.7v2.8h4.3q2.3 0 4.3-.2c.1 0 .2 0 .2.2a31.6 31.6 0 0 0-.2 3.3v6.7a31.6 31.6 0 0 0 .2 3.3c0 .1 0 .2-.2.2q-2-.2-4.3-.2h-4.3v2.7h4.4l4.3-.1a8 8 0 0 1 0 2.9q-2.1-.2-4.3-.2h-4.4Zm0-11.1h5.8v-3.3h-5.8Zm-8.5 0h5.6v-3.3h-5.6Zm8.5-5.5h5.8v-3.2h-5.8Zm-8.5 0h5.6v-3.2h-5.6Zm202.5 20a31.4 31.4 0 0 0 12-12.3 34.5 34.5 0 0 0 3.5-13.2h-7.1q-3 0-7.1.3a14.5 14.5 0 0 1 0-4q3 .4 7.2.4h7.2v-5.8l-.2-4a16.6 16.6 0 0 1 2.7 0q1.7.2 1.7.6a5.3 5.3 0 0 0-.9 2.8v6.4h18.5l-.1 1.8q-.8 13.8-1.6 19.6-.8 6-2.3 7.7a4.4 4.4 0 0 1-1.6 1.3 7.3 7.3 0 0 1-2.2.5 54.7 54.7 0 0 1-7-.2 6.5 6.5 0 0 0-1.1-3.4q3.5.3 7 .3a2.8 2.8 0 0 0 2-.6q1.2-1.2 2-6.5.8-5.5 1.4-17.2h-15.1a38.2 38.2 0 0 1-3.6 14.6 33.4 33.4 0 0 1-12.8 13.5 9.4 9.4 0 0 0-2.5-2.6Zm-130.9 2.4q.4-3.8.4-9.6V25q0-5.7-.4-9.5 0-.3.4-.3a62.1 62.1 0 0 0 6.5.3h6.5l.5-.2 2.4 1.6q-3.7 8.8-6.1 13.5 5.4 5 5.5 10.8 0 4.4-2.1 5.9a6.4 6.4 0 0 1-3 1 24.4 24.4 0 0 1-3.8 0 7.2 7.2 0 0 0-.9-3.3 22 22 0 0 0 3.5.1 4.7 4.7 0 0 0 2-.5q1.1-.8 1.1-3.5 0-5-5.7-10 2-4.4 5.1-12.3H246v21.7q0 8.1.3 13.5a4.5 4.5 0 0 1-1.9.2 4.6 4.6 0 0 1-2-.2Zm294 0a48.4 48.4 0 0 0 .2-5.8v-5.8q-3.9 1.4-8.2 2.7a26.2 26.2 0 0 0-1.7-2.8 94.4 94.4 0 0 0 19-7h-8.9q-4.1 0-8.9.4a5.2 5.2 0 0 1-.1-1.6 4.7 4.7 0 0 1 .1-1.6q3.3.4 7.7.4h7.8V29h-5.7l-5.6.2a7.6 7.6 0 0 1 0-2.9q2.4.2 5.6.2h5.7v-2.5h-12.8v-4.9a42.5 42.5 0 0 0-.2-4.8c0-.2 0-.3.2-.3a80.4 80.4 0 0 0 8.4.3h25v4.9a42.3 42.3 0 0 0 .3 4.8c0 .2 0 .3-.2.3q-3.5-.3-8.8-.3h-8.8v2.5h10.8V28q1.9-1.6 3.8-3.5A8.2 8.2 0 0 1 563 26q.8 1 .5 1.2a.8.8 0 0 1-.6.2 1.7 1.7 0 0 0-1.3.6 61 61 0 0 1-5.8 4.6h5.5q2.5 0 5.5-.3a4.1 4.1 0 0 1 .1 1.5 4.6 4.6 0 0 1-.1 1.6q-3.3-.3-7.5-.3h-7.5a87 87 0 0 1-8.1 4.1h12.6a25 25 0 0 0-6-2.4l1.5-1.7a21.8 21.8 0 0 1 6.7 2.6l-1.4 1.5h2.6a18.8 18.8 0 0 0 2.5 0h.2a35.9 35.9 0 0 0-.2 3.6v3.6q0 4 .3 7.2a4.3 4.3 0 0 1-1.9.2c-1.1 0-1.7 0-1.8-.2v-.2a2 2 0 0 0 0-.4v-.6h-19v.6a2.2 2.2 0 0 0 0 .4v.2c0 .2-.6.3-1.6.3a3.8 3.8 0 0 1-1.9-.3Zm3.4-3.7h19v-3.1h-19Zm0-5.3h19v-3h-19Zm6.7-12.1h4l5.3-3.5h-9.3Zm7.2-11h7.2V17h-7.2Zm-10.1 0h7V17h-7Zm-10 0h7V17h-7Zm-36 18.6h-5.4v8.6l4.1-.7 5.2-.8.1 2.9-5.6 1-11.5 1.9-.5-3.1 5.1-.8v-9h-2.8c-1 0-1.9 0-2.8.2a4 4 0 0 1-.1-1.6 4.5 4.5 0 0 1 .1-1.6l4 .2h4v-4.6H488a39 39 0 0 0-3.3.1 9.2 9.2 0 0 1 0-3.1 31.7 31.7 0 0 0 3.3.1h3.3v-4h-8v2q0 17.5-5.2 25.8a10 10 0 0 0-3-1.7 31.4 31.4 0 0 0 4.1-12 84.2 84.2 0 0 0 .8-12v-6.6a61 61 0 0 0-.3-6.5c0-.3 0-.4.3-.4a76.8 76.8 0 0 0 8.2.4h16.5a76.9 76.9 0 0 0 8.2-.4c.1 0 .2.1.2.4a21.1 21.1 0 0 0-.2 2.7v2.8q0 3.2.3 5.4c0 .1-.1.2-.3.2a31.7 31.7 0 0 0-3.3-.2h-3.3V30h3.8c.8 0 2 0 3.7-.2a9.8 9.8 0 0 1 0 3.3q-1.8-.2-3.7-.2h-3.8v4.6h4.6q2 0 4.7-.3a5 5 0 0 1 0 1.7 5.6 5.6 0 0 1 0 1.7q-3.3-.3-7.5-.3h-7.5a18.5 18.5 0 0 0 3.5 4.8 48 48 0 0 0 6.6-4.5 8.4 8.4 0 0 1 1.7 1.7q.7 1 .4 1.2a.8.8 0 0 1-.6.1 1.8 1.8 0 0 0-1.3.4 42.6 42.6 0 0 1-4.8 2.9 24.4 24.4 0 0 0 9.9 4.2 8.8 8.8 0 0 0-2 2.8q-12-3-16.5-13.6Zm-3-2.8h8.8v-4.6h-8.8Zm0-7.5h8.8v-4h-8.8Zm-11.2-7h26.4v-5.1h-26.4Zm-42.7 28.4a31.4 31.4 0 0 0 8.8-3 18 18 0 0 1-4.7-6.3l1.8-.6H445l-1.7.1v-1.3a3.3 3.3 0 0 1 0-1.4 36.5 36.5 0 0 0 3.7.2h11l.5-.1 1.8.7a19.5 19.5 0 0 1-5.8 8.5 28.4 28.4 0 0 0 9.2 2.8 12 12 0 0 0-2 2.8A26.9 26.9 0 0 1 452 50a32.2 32.2 0 0 1-9.7 3.7 9.2 9.2 0 0 0-1.5-2.4Zm11.3-4.7a15.6 15.6 0 0 0 4.4-5.2h-8.9a13.4 13.4 0 0 0 4.5 5.2Zm-181.6 4.1q7.3-1.2 11-3.7a11.7 11.7 0 0 0 4.5-6.7H280q-3 0-5.9.3a5.9 5.9 0 0 1-.1-1.8 5.4 5.4 0 0 1 .1-1.8 55.8 55.8 0 0 0 6.2.3h6.2q.3-2.2.4-4.8h3.5q-.2 3.2-.5 4.8h15v1.5a95 95 0 0 1-1 9.5 8 8 0 0 1-1.6 4 4.6 4.6 0 0 1-3.2 1.3l-6.8-.1a5.8 5.8 0 0 0-1.1-3.1l6.5.2a3 3 0 0 0 1.9-.4q1.2-1.2 1.9-9.9h-12.1a15.2 15.2 0 0 1-5 8.6q-4 3.2-12.3 4.8a7.1 7.1 0 0 0-1.7-3Zm-154.5 0q7.3-1.2 11-3.7a11.7 11.7 0 0 0 4.5-6.7h-5.9q-3 0-5.9.3a5.9 5.9 0 0 1-.1-1.8 5.4 5.4 0 0 1 .1-1.8 55.9 55.9 0 0 0 6.2.3h6.2q.3-2.2.4-4.8h3.5q-.2 3.2-.5 4.8h15v1.5q-.5 6.5-1 9.5a8 8 0 0 1-1.6 4 4.6 4.6 0 0 1-3.2 1.3l-6.8-.1a5.8 5.8 0 0 0-1.1-3.1l6.5.2a3 3 0 0 0 2-.4q1.1-1.2 1.8-9.9H135a15.2 15.2 0 0 1-5 8.6q-4 3.2-12.3 4.8a7.2 7.2 0 0 0-1.7-3Zm313.6 2.8a5.4 5.4 0 0 0-1-2.9q3 .3 5.8.3a2.4 2.4 0 0 0 1.6-.4 4.5 4.5 0 0 0 .9-2.2 49.6 49.6 0 0 0 .7-5.3h-7.8l-.3 1.2-2.8-.5a99.3 99.3 0 0 0 2.2-10.1h8.9V29h-7.8v-.4a36.2 36.2 0 0 1-4.4 1.9 10.3 10.3 0 0 0-1.9-2.5 30.7 30.7 0 0 0 8.7-4.2 24.2 24.2 0 0 0-5-3.8l2-2a33 33 0 0 1 5.2 4 21.7 21.7 0 0 0 4.3-4.6h-5.2l-5.1.2a4.6 4.6 0 0 1-.1-1.6 3.7 3.7 0 0 1 0-1.5 25.5 25.5 0 0 0 3 .1h9.1l.6-.1 2 1a25.6 25.6 0 0 1-9.3 10.8h3.4a32.8 32.8 0 0 0 3.4-.1.1.1 0 0 1 .2 0 20.7 20.7 0 0 0-.2 2.8v2.7q0 2.5.2 4.4a7.2 7.2 0 0 0 4-6.5V26h10a28.9 28.9 0 0 1-10.6-12.5l2.6-.9a23.6 23.6 0 0 0 3.4 5.5 47.5 47.5 0 0 0 5.6-5.1 9 9 0 0 1 1.7 1.6q.8 1 .5 1.3a.9.9 0 0 1-.6.2 2 2 0 0 0-1.3.5 41.7 41.7 0 0 1-4.2 3.3 25.5 25.5 0 0 0 3.2 2.7 38.8 38.8 0 0 0 6-5.2 8.8 8.8 0 0 1 1.6 1.7q.8.9.5 1.2a.8.8 0 0 1-.7.2 2 2 0 0 0-1.2.5 35.8 35.8 0 0 1-4 3 29 29 0 0 0 7.5 3.1 10.2 10.2 0 0 0-2 2.7 28.9 28.9 0 0 1-6.3-2.8v6c0 .7 0 1 .2 1.2a1.4 1.4 0 0 0 .7.1h1.3a5.8 5.8 0 0 0 1 0 1.1 1.1 0 0 0 .5-.7 21.4 21.4 0 0 0 .2-2.3 6 6 0 0 0 2.4 1.3 9.2 9.2 0 0 1-.5 3 2.6 2.6 0 0 1-1.3 1 7.2 7.2 0 0 1-2 .2h-2.2a3.9 3.9 0 0 1-2.4-.7q-.7-.8-.7-3.4v-4h-6v.9a9.3 9.3 0 0 1-4.8 8.5 12.7 12.7 0 0 0-2.1-2v.8a3.8 3.8 0 0 1-1.6.2c-1 0-1.6 0-1.6-.2v-.2a.8.8 0 0 0 0-.2v-.4H431l-.2 1.4-.6 2.8h10.6l-.2 1.3a72.5 72.5 0 0 1-1 7.5 6.6 6.6 0 0 1-1.3 3.3 4.5 4.5 0 0 1-3 1h-5.7ZM305 36.7a17.4 17.4 0 0 0 .2-2.4v-2.5h-30.2v2.5a17.5 17.5 0 0 0 0 2.4c0 .1-.6.2-1.7.2-1 0-1.6 0-1.7-.2l.1-3.9v-4h35a83.1 83.1 0 0 0-8-5.7q-2.2 3.6-8 5.3A5.9 5.9 0 0 0 289 26q5.2-1.5 7.1-4.6 1.6-2.6 1.8-8.7h3a31.3 31.3 0 0 1-1 7.8q6.3 4.1 9 6.3l-2 2h1.5v4l.2 4a4.2 4.2 0 0 1-1.8.1c-1.1 0-1.7 0-1.8-.2Zm-154.5 0a17.5 17.5 0 0 0 .2-2.4v-2.5h-30.2v2.5a17.5 17.5 0 0 0 .1 2.4c0 .1-.6.2-1.8.2-1 0-1.6 0-1.7-.2q.2-1.9.2-3.9v-4h35a82.6 82.6 0 0 0-8.1-5.7q-2.2 3.6-8 5.3a5.9 5.9 0 0 0-1.7-2.4q5.3-1.5 7.1-4.6 1.6-2.6 1.9-8.7h3a31.4 31.4 0 0 1-1.1 7.8q6.3 4.1 9 6.3l-2 2h1.5v4l.2 4a4.2 4.2 0 0 1-1.8.1c-1.1 0-1.7 0-1.8-.2Zm85-3.7h-11.5q-2.8 0-5.7.3a6.1 6.1 0 0 1 0-1.8 6.7 6.7 0 0 1 0-1.9q4.6.4 11.4.4h5.7q2.9 0 5.7-.3a5.6 5.6 0 0 1 .2 1.8 6.1 6.1 0 0 1-.2 1.8 46.7 46.7 0 0 0-5.7-.3Zm-3.1-4a56.7 56.7 0 0 0 2.5-7.7 12.4 12.4 0 0 1 2.3.8c.7.4 1 .6 1 .8a.5.5 0 0 1-.3.3 1.3 1.3 0 0 0-.6.8l-.4 1-.4 1-1.4 3.6Zm-9-3a27.3 27.3 0 0 0-1.2-3.8l2.7-.6a23.2 23.2 0 0 1 2 7.2l-2.8.7a17.6 17.6 0 0 0-.7-3.5Zm46.8.3q5.6-1.5 7.5-4.6A11.9 11.9 0 0 0 279 18a32.6 32.6 0 0 0 .5-5.2h2.9a31.3 31.3 0 0 1-1 8l.6.5q4.6 3.2 6 4.4l-2.1 2q-1.7-1.5-5.8-4.3-2.2 3.8-8.4 5.5a5.9 5.9 0 0 0-1.6-2.5Zm-154.5 0q5.6-1.5 7.5-4.6a11.9 11.9 0 0 0 1.4-3.8 32.6 32.6 0 0 0 .6-5.2h2.8a31.3 31.3 0 0 1-1 8l.6.5q4.7 3.2 6 4.4l-2.1 2q-1.7-1.5-5.8-4.3-2.2 3.8-8.4 5.5a6 6 0 0 0-1.6-2.5Zm155.2-5.6a10.7 10.7 0 0 0 3.7-5.6 12.2 12.2 0 0 1 1.7.8c.5.3.8.6.7.7l-.3.3a1.1 1.1 0 0 0-.6.7 11.4 11.4 0 0 1-.8 1.7 9.4 9.4 0 0 1-2.4 2.8Zm-154.5 0a10.8 10.8 0 0 0 3.7-5.6 12 12 0 0 1 1.7.8c.5.3.8.6.7.7l-.3.3a1.1 1.1 0 0 0-.6.7 11.4 11.4 0 0 1-.8 1.7 9.4 9.4 0 0 1-2.4 2.8Zm172.6-.2a9.1 9.1 0 0 0 3.8-5.4 18.6 18.6 0 0 1 1.8.7c.6.4.8.6.8.8l-.3.3a1.1 1.1 0 0 0-.6.6 22 22 0 0 1-.9 1.7A8.3 8.3 0 0 1 291 22Zm-154.5 0a9.1 9.1 0 0 0 3.9-5.4 18.3 18.3 0 0 1 1.7.7c.6.4.8.6.8.8l-.3.3a1.1 1.1 0 0 0-.6.6l-.9 1.7a8.3 8.3 0 0 1-2.5 2.8Zm167.8-.1a28 28 0 0 0 3.7-5.3 10.5 10.5 0 0 1 2.1 1c.7.4 1 .7.8.8a.6.6 0 0 1-.4.2 1 1 0 0 0-.7.5 10.4 10.4 0 0 0-.8.9l-.4.5a1.2 1.2 0 0 0-.2.2l-2 2.2Zm-154.5 0a28.2 28.2 0 0 0 3.7-5.3 10.5 10.5 0 0 1 2.1 1c.7.4 1 .7.8.8a.6.6 0 0 1-.4.2 1 1 0 0 0-.7.5 11.2 11.2 0 0 0-.8.9l-.4.5a1.7 1.7 0 0 0-.2.2l-2 2.2Zm135.8-.2a35.7 35.7 0 0 0 3.2-5.1 10.7 10.7 0 0 1 2 1c.7.4 1 .6.8.7a.6.6 0 0 1-.3.2.8.8 0 0 0-.7.4l-.6.7-.5.7-.7.8a17.3 17.3 0 0 1-1.2 1.5Zm-154.5 0a35.4 35.4 0 0 0 3.2-5.1 10.7 10.7 0 0 1 2 1c.7.4 1 .6.8.7a.6.6 0 0 1-.3.2.8.8 0 0 0-.7.4l-.6.7-.5.7-.7.8a17.3 17.3 0 0 1-1.2 1.5Zm106.1.4h-10.4l-5.3.2a5.1 5.1 0 0 1-.1-1.6 4.6 4.6 0 0 1 .1-1.7l4.4.2h4.5v-2.4a21.6 21.6 0 0 0-.2-2.6 13.4 13.4 0 0 1 2.5 0q1.5.2 1.5.7a3.8 3.8 0 0 0-.7 2.1v2.2h4.5l4.5-.2a4.6 4.6 0 0 1 .1 1.7 5.1 5.1 0 0 1-.1 1.6 52.4 52.4 0 0 0-5.3-.2Z"></path>
    <path fill="rgba(0,0,0,0)" d="M404 78h-2.4l1.2-4.8h2.9Zm-1.1-1h.4l1-2.8h-.7Zm47.7-.4a7.8 7.8 0 0 1-2.4-.5l-.4-.1.3-2.5.6.2a6.1 6.1 0 0 0 2 .5c.5 0 1.7-.2 1.7-1.3 0-.7-.7-1-1.8-1.6-1.3-.6-2.9-1.3-2.9-3.5a3.2 3.2 0 0 1 1.2-2.6 4.5 4.5 0 0 1 2.8-.9 7.9 7.9 0 0 1 2.5.5l.4.1-.3 2.5-.6-.3a4.4 4.4 0 0 0-2-.4 2 2 0 0 0-1 .2.8.8 0 0 0-.3.8c0 .5.6.8 1.6 1.3 1.3.6 3 1.5 3 3.8s-1.6 3.8-4.4 3.8Zm-1.7-1.3a6 6 0 0 0 1.7.3c1.3 0 3.5-.4 3.5-2.8 0-1.7-1.2-2.3-2.6-2.9-1-.5-2.1-1-2.1-2.2 0-1.2.9-2 2.4-2a4.7 4.7 0 0 1 1.6.3l.1-.4a7 7 0 0 0-1.8-.2c-1.4 0-3 .6-3 2.4 0 1.5 1.1 2 2.4 2.6 1 .5 2.3 1.1 2.3 2.5a2 2 0 0 1-1 1.8 3.1 3.1 0 0 1-1.6.5 6.3 6.3 0 0 1-1.9-.3Zm-91.5 1.3a6.4 6.4 0 0 1-4.5-1.7 6 6 0 0 1-1.8-4.5A6 6 0 0 1 353 66a6.5 6.5 0 0 1 4.5-1.7 8.8 8.8 0 0 1 3.4.6l.4.1-.2 2.8-.7-.4a4.6 4.6 0 0 0-2.8-.7 3.8 3.8 0 0 0 0 7.5 6.4 6.4 0 0 0 1.2 0v-2.5h-2.3v-2.2h4.9V76h-.4a10.8 10.8 0 0 1-3.5.6Zm0-11.3a5.5 5.5 0 0 0-3.8 1.4 5 5 0 0 0-1.5 3.7 5.1 5.1 0 0 0 1.5 3.8 5.4 5.4 0 0 0 3.8 1.4 10.3 10.3 0 0 0 2.9-.4v-4.7h-3v.2h2.4V75l-.4.1h-.2a6.8 6.8 0 0 1-1.7.2 4.6 4.6 0 0 1-3.2-1.3 5 5 0 0 1-.1-6.8 4.7 4.7 0 0 1 3.4-1.4 6.3 6.3 0 0 1 2.6.5v-.5a7.7 7.7 0 0 0-2.7-.3Zm193.7 11.3a5.6 5.6 0 0 1-4.2-1.7 6.4 6.4 0 0 1-1.6-4.4c0-3.7 2.4-6.2 5.8-6.2s5.8 2.5 5.8 6.2a6.4 6.4 0 0 1-1.5 4.4 5.6 5.6 0 0 1-4.3 1.7Zm0-11.3c-2.9 0-4.7 2-4.7 5.2 0 3.1 1.8 5 4.7 5s4.8-1.9 4.8-5-1.9-5.1-4.8-5.1ZM496 76.6a5.6 5.6 0 0 1-4.2-1.7 6.4 6.4 0 0 1-1.5-4.4c0-3.7 2.3-6.2 5.7-6.2s5.8 2.5 5.8 6.2a6.4 6.4 0 0 1-1.5 4.4 5.6 5.6 0 0 1-4.3 1.7Zm0-11.3c-2.9 0-4.7 2-4.7 5.2 0 3.1 1.8 5 4.7 5s4.8-1.9 4.8-5-1.8-5.1-4.8-5.1ZM390 76.6a6.4 6.4 0 0 1-4.6-1.7 6 6 0 0 1-1.8-4.5 6 6 0 0 1 1.8-4.4 7 7 0 0 1 7.2-1.1l-.2-.4h3l3 4.5 3-4.5h3l-.5.8-4.1 6.2v5H397v-5l-4.3-6.3-.2 2.5-.7-.4a4 4 0 0 0-2-.6 3.7 3.7 0 0 0-2.7 1 3.8 3.8 0 0 0-1 2.8 3.6 3.6 0 0 0 3.6 3.7 5 5 0 0 0 2.2-.4l.7-.5.1 2.7-.3.2a7 7 0 0 1-2.7.4Zm0-11.3a5.5 5.5 0 0 0-3.9 1.4 5 5 0 0 0-1.5 3.7 5.1 5.1 0 0 0 1.5 3.8 5.4 5.4 0 0 0 3.8 1.4 7 7 0 0 0 2-.2v-.5a7 7 0 0 1-2 .3 4.6 4.6 0 0 1-3.2-1.3 5 5 0 0 1-.1-6.8 4.7 4.7 0 0 1 3.4-1.4 5 5 0 0 1 1.8.4v-.4a5.8 5.8 0 0 0-1.9-.3Zm8.2 10.1h.6v-4.3l3.8-5.6h-.6l-3.5 5.3-3.5-5.3h-.7l3.9 5.7ZM274 76.6a5.6 5.6 0 0 1-4.3-1.7 6.4 6.4 0 0 1-1.5-4.4c0-3.7 2.3-6.2 5.8-6.2s5.8 2.5 5.8 6.2a6.4 6.4 0 0 1-1.5 4.4 5.6 5.6 0 0 1-4.3 1.7Zm0-11.3c-3 0-4.8 2-4.8 5.2 0 3.1 1.8 5 4.8 5s4.8-1.9 4.8-5-1.9-5.1-4.8-5.1Zm-72 11.3a6.4 6.4 0 0 1-4.5-1.7 6 6 0 0 1-1.7-4.5 6 6 0 0 1 1.8-4.4 6.5 6.5 0 0 1 4.5-1.6 6.6 6.6 0 0 1 2.6.5l.4.1-.2 2.7-.7-.4a4 4 0 0 0-2-.6 3.7 3.7 0 0 0-2.7 1 3.8 3.8 0 0 0-1 2.8 3.6 3.6 0 0 0 3.6 3.7 5 5 0 0 0 2.1-.4l.7-.5.2 2.7-.4.2a7 7 0 0 1-2.6.4Zm0-11.3a5.5 5.5 0 0 0-3.7 1.4 5 5 0 0 0-1.5 3.7 5.1 5.1 0 0 0 1.4 3.8 5.4 5.4 0 0 0 3.9 1.4 7 7 0 0 0 2-.2v-.5a7 7 0 0 1-2 .3 4.6 4.6 0 0 1-3.3-1.3 5 5 0 0 1 0-6.8 4.7 4.7 0 0 1 3.4-1.4 5 5 0 0 1 1.8.4v-.4a5.8 5.8 0 0 0-2-.3Zm-23 11.3a5.6 5.6 0 0 1-4.2-1.7 6.4 6.4 0 0 1-1.5-4.4c0-3.7 2.3-6.2 5.8-6.2s5.8 2.5 5.8 6.2a6.4 6.4 0 0 1-1.5 4.4 5.6 5.6 0 0 1-4.3 1.7Zm0-11.3c-2.8 0-4.7 2-4.7 5.2 0 3.1 1.8 5 4.8 5s4.8-1.9 4.8-5-2-5.1-4.8-5.1Zm-41.4 11.3a5.6 5.6 0 0 1-4.2-1.7 6.4 6.4 0 0 1-1.6-4.4c0-3.7 2.4-6.2 5.8-6.2s5.8 2.5 5.8 6.2a6.4 6.4 0 0 1-1.5 4.4 5.6 5.6 0 0 1-4.3 1.7Zm0-11.3c-2.9 0-4.8 2-4.8 5.2 0 3.1 1.9 5 4.8 5s4.8-1.9 4.8-5-1.9-5.1-4.8-5.1ZM481 76.4h-2.6v-4.9l-4.7-7h3l3 4.5 3-4.5h3l-4.7 7Zm-1.6-1h.6v-4.3l3.8-5.6h-.6l-3.5 5.3-3.5-5.3h-.6l3.8 5.7Zm-33 1h-2.6V64.5h2.5Zm-1.6-1h.5v-9.9h-.5Zm-14.8 1h-2.6V64.5h2.6Zm-1.6-1h.6v-9.9h-.6Zm-144.5 1h-2.6V64.5h3.4c3 0 4.6 1.4 4.6 3.8a3.4 3.4 0 0 1-1.4 3 5.1 5.1 0 0 1-3 .8h-1Zm-1.6-1h.6v-4.3h2a4.1 4.1 0 0 0 2.5-.7 2.5 2.5 0 0 0 1-2.1 2.4 2.4 0 0 0-1-2.1 4.7 4.7 0 0 0-2.7-.7h-2.4Zm-58.5 1h-3.8V64.5h3.8c3.7 0 6.3 2.4 6.3 5.9a5.8 5.8 0 0 1-1.7 4.5 6.6 6.6 0 0 1-4.6 1.5Zm-2.8-1h2.8a5.7 5.7 0 0 0 3.9-1.3 4.9 4.9 0 0 0 1.4-3.7 4.5 4.5 0 0 0-1.5-3.6 5.8 5.8 0 0 0-3.8-1.3h-2.8Zm346.6 1h-3v-.3l-1.7-3.8c-.4-.7-.6-.7-1.4-.7h-.5v4.8h-2.5V64.5h3.2a7.2 7.2 0 0 1 3.1.6 3 3 0 0 1 1.6 2.9 3 3 0 0 1-1.7 2.6 4 4 0 0 1 .5.7Zm-2.3-1h.7l-1.7-3.6c-.3-.6-.5-.7-.8-.8l-.3-.2V70h.4a2 2 0 0 0 1.8-2c0-1.8-1-2.5-3.7-2.5h-2.2v10h.5v-5h1.5a2 2 0 0 1 2.3 1.4Zm-25.9 1H536V64.5h3.5a5.7 5.7 0 0 1 3 .7 2.8 2.8 0 0 1 1.3 2.6 2.8 2.8 0 0 1-1.3 2.5 3.2 3.2 0 0 1 .1 5.5 6.5 6.5 0 0 1-3.2.6Zm-2.4-1h2.4c3.3 0 3.7-1.3 3.7-2.4a2 2 0 0 0-1.6-2 2.1 2.1 0 0 1 1 1.9 2 2 0 0 1-1.1 1.8 4.6 4.6 0 0 1-2.1.4h-1.7v-4.6h1.5a6.6 6.6 0 0 1 1.5.1v-.5a7.6 7.6 0 0 1-1.7 0h-1.3v-4.3h2.1c1.6 0 2.6.8 2.6 2.1a2 2 0 0 1-1 1.9 2 2 0 0 0 1.5-2c0-1-.3-2.3-3.3-2.3h-2.5Zm1.6-1.3h.7c1.9 0 2.1-.6 2.1-1.2 0-.9-.4-1.4-2.3-1.4h-.5Zm0-5h.3c1.9 0 2.4-.2 2.4-1.2a1 1 0 0 0-.5-.8 2.1 2.1 0 0 0-1-.3h-1.2Zm-3.2 7.3h-2.8l-1-2.7h-4.8l-1.1 2.7h-9.5V64.5h2.6V74h4.6v1.4l4.7-10.9h2.3l.1.3Zm-2-1h.5l-4.2-9.9h-.4l.3.8 2.5 6h-5.9l.3-.6 2.5-6.2h-.3l-4.2 9.9h.5l1.1-2.7h6Zm-16.2 0h5.2V75h-4.6v-9.5h-.6Zm10.5-4h3l-1.5-3.6Zm-21.8 5h-2.6V64.5h6.8V67h-4.2v2.2h4v2.4h-4Zm-1.6-1h.6v-5h4v-.3h-4v-4.2h4.2v-.4h-4.8Zm-29.6 1h-2.9l-.1-.3-1.7-3.8c-.3-.7-.6-.7-1.4-.7h-.4v4.8h-2.6V64.5h3.2a7.2 7.2 0 0 1 3.2.6 3 3 0 0 1 1.6 2.9 3 3 0 0 1-1.7 2.6 4 4 0 0 1 .4.7Zm-2.2-1h.6l-1.7-3.6c-.3-.6-.5-.7-.8-.8l-.3-.2V70h.4a2 2 0 0 0 1.9-2c0-1.8-1-2.5-3.8-2.5h-2.2v9.9h.6v-4.8h1.4a2 2 0 0 1 2.3 1.3Zm-11.1 1h-2.6v-9.5h-3.4v-2.4h9.4V67h-3.4Zm-1.6-1h.6v-9.5h3.4v-.4h-7.4v.4h3.4Zm-18.1 1h-2.8l-.2-.3-4-7.3v7.6H432V64.5h3v.3l4 7.1v-7.4h2.6Zm-2.2-1h1.2v-9.9h-.6v8.8h-.8l-.2-.3-4.7-8.5H433v9.9h.6v-9h.8l.1.3Zm-14.2 1h-2.6v-7.3l-2.8 7.3h-2.2l-.1-.3-2.7-7v7.3h-2.6V64.5h3.4l.1.4 3 7.8 3-8.2h3.5Zm-1.6-1h.6v-9.9h-1.8l-3.6 9.9h.3l3.6-9.4h1Zm-5.3 0h.4l-3.8-9.9h-1.7v9.9h.6V66h.8l.2.3Zm-36.3 1h-2.8l-.2-.3-4-7.3v7.6h-2.6V64.5h3l4 7.4v-7.4h2.6Zm-2.2-1h1.2v-9.9h-.6v8.8h-.8l-4.8-8.8h-1.4v9.9h.6v-9h.8l.2.3Zm-9.2 1h-7.2V64.5h7.2V67H366v2.2h4.2v2.4H366V74h4.6Zm-6.2-1h5.2V75H365v-4.5h4.2V70H365v-4.2h4.6v-.4h-5.2Zm-13.3 1h-2.9l-1-2.7h-4.8l-1.1 2.7h-2.7l.3-.7 4.8-11.2h2.3l.1.3Zm-2.2-1h.6l-4.2-9.9h-.4l2.8 6.9h-5.9l2.8-6.9h-.3l-4.2 9.9h.5l1.1-2.7h6Zm-5.6-4h3l-1.5-3.6Zm-12.3 5h-2.5v-9.5H325v-2.4h9.4V67H331Zm-1.5-1h.5v-9.5h3.5v-.4H326v.4h3.4Zm-5.3 1h-2.8l-.2-.3-4-7.3v7.6h-2.6V64.5h3v.3l4 7.1v-7.4h2.6Zm-2.2-1h1.2v-9.9h-.6v8.8h-.8l-.2-.3-4.7-8.5h-1.3v9.9h.6v-9h.8l.1.3Zm-9.2 1h-7.2V64.5h7.2V67h-4.6v2.2h4.2v2.4h-4.2V74h4.6Zm-6.2-1h5.2V75h-4.6v-4.5h4.2V70h-4.2v-4.2h4.6v-.4h-5.2Zm-3.2 1H301v-7.3l-2.9 7.3h-2.2l-.1-.3-2.7-7v7.3h-2.6V64.5h3.4l.2.4 3 7.8 3-8.2h3.4Zm-1.5-1h.5v-9.9h-1.7l-3.7 9.9h.3L301 66h.9Zm-5.4 0h.4l-3.7-9.9h-1.8v9.9h.6V66h.9v.3Zm-28.7 1h-7.2V64.5h2.6V74h4.6Zm-6.2-1h5.2V75h-4.6v-9.5h-.6Zm-2.8 1h-7.2V64.5h7.2V67h-4.6v2.2h4.2v2.4h-4.2V74h4.6Zm-6.2-1h5.2V75h-4.6v-4.5h4.2V70h-4.2v-4.2h4.6v-.4h-5.2Zm-6.2 1h-2.7v-.3l-4.5-11.6h2.9v.4l3 8.2 3.1-8.6h2.8l-.3.7Zm-2-1h1.3l3.8-9.9h-.6l-3.4 9.5h-.8v-.3l-3.3-9.2h-.7Zm-5.5 1h-7.1V64.5h7.1V67h-4.6v2.2h4.2v2.4h-4.2V74h4.6Zm-6.1-1h5.1V75h-4.6v-4.5h4.2V70h-4.2v-4.2h4.6v-.4h-5.1Zm-19.3 1h-7.1V64.5h7.1V67H209v2.2h4.2v2.4h-4.2V74h4.6Zm-6.1-1h5.1V75H208v-4.5h4.2V70h-4.2v-4.2h4.6v-.4h-5.1Zm-12 1h-2.9v-.3l-1.8-3.8c-.3-.7-.6-.7-1.4-.7h-.4v4.8h-2.6V64.5h3.2a7.2 7.2 0 0 1 3.2.6 3 3 0 0 1 1.6 2.9 3 3 0 0 1-1.7 2.6 4 4 0 0 1 .4.7Zm-2.2-1h.7l-1.8-3.6c-.3-.6-.4-.7-.8-.8l-.3-.2V70h.4a2 2 0 0 0 1.9-2c0-1.8-1-2.5-3.8-2.5h-2.2v10h.6v-5h1.5a2 2 0 0 1 2.2 1.4Zm-25 1h-2.6V64.5h6.8V67h-4.2v2.2h4v2.4h-4Zm-1.6-1h.6v-5h4v-.3h-4v-4.2h4.2v-.4h-4.8Zm-1.2 1h-3.7l-.1-.2-4-4.3v4.5H155V64.5h2.5v4l4-4h3.5l-5.6 5.7Zm-3.2-1h.8l-5-5.2.3-.4 4.3-4.3h-.7l-4.5 4.7Zm-6.2 0h.6v-9.9h-.6Zm-2 1h-3l-1.7-4c-.4-.8-.6-.8-1.4-.8h-.4v4.8h-2.6V64.5h3.2a7.2 7.2 0 0 1 3.1.6 3 3 0 0 1 1.6 2.9 3 3 0 0 1-1.7 2.6 4 4 0 0 1 .5.7Zm-2.3-1h.7l-1.7-3.6c-.3-.6-.5-.7-.8-.8l-.3-.2V70h.4a2 2 0 0 0 1.8-2c0-1.8-1-2.5-3.7-2.5h-2.2v10h.6v-5h1.4a2 2 0 0 1 2.3 1.4Zm-23.5 1h-2.8l-2-8-2 8h-3V76l-3.6-11.5h2.8l.1.4 2.2 7.6 2-8h3v.4l2 7.6 2.2-8h2.8l-.2.7Zm-2-1h1.2l3.1-9.9h-.6l-2.6 9.3h-.8l-.1-.3-2.3-9h-1.5l-2.3 9.3h-.8l-.1-.3-2.5-9h-.7l3 9.9h1.3l2.5-9.5h.8Zm425-.2a3.8 3.8 0 0 1-3.2-1.5 5.9 5.9 0 0 1 0-6.5 3.7 3.7 0 0 1 3.1-1.5 3.7 3.7 0 0 1 3.2 1.5 5.9 5.9 0 0 1 0 6.5 3.8 3.8 0 0 1-3.2 1.5Zm0-8.5a2.7 2.7 0 0 0-2.4 1.1 4.4 4.4 0 0 0-.8 2.7c0 1.8.8 3.7 3.1 3.7s3.2-2 3.2-3.7a4.4 4.4 0 0 0-.8-2.7 2.7 2.7 0 0 0-2.3-1ZM496 75.2a3.8 3.8 0 0 1-3.2-1.5 5.9 5.9 0 0 1 0-6.5 3.7 3.7 0 0 1 3.1-1.5 3.7 3.7 0 0 1 3.2 1.5 5.9 5.9 0 0 1 0 6.5 3.8 3.8 0 0 1-3.2 1.5Zm0-8.5a2.7 2.7 0 0 0-2.4 1.1 4.4 4.4 0 0 0-.8 2.7c0 1.8.9 3.7 3.2 3.7s3-2 3-3.7a4.4 4.4 0 0 0-.7-2.7 2.7 2.7 0 0 0-2.3-1Zm-222 8.5a3.8 3.8 0 0 1-3.2-1.5 5.9 5.9 0 0 1 0-6.5 3.7 3.7 0 0 1 3.2-1.5 3.7 3.7 0 0 1 3.1 1.5 5.9 5.9 0 0 1 0 6.5 3.8 3.8 0 0 1-3.1 1.5Zm0-8.5a2.7 2.7 0 0 0-2.3 1.1 4.4 4.4 0 0 0-.8 2.7c0 1.8.8 3.7 3.1 3.7s3.1-2 3.1-3.7a4.4 4.4 0 0 0-.8-2.7 2.7 2.7 0 0 0-2.3-1ZM179 75.2a3.8 3.8 0 0 1-3.2-1.5 5.9 5.9 0 0 1 0-6.5 3.7 3.7 0 0 1 3.2-1.5 3.7 3.7 0 0 1 3.1 1.5 5.4 5.4 0 0 1 1 3.3 5.4 5.4 0 0 1-1 3.2 3.8 3.8 0 0 1-3.1 1.5Zm0-8.5a2.7 2.7 0 0 0-2.3 1.1 4.4 4.4 0 0 0-.8 2.7c0 1.8.8 3.7 3.1 3.7s3.1-2 3.1-3.7a4.4 4.4 0 0 0-.8-2.7 2.7 2.7 0 0 0-2.3-1Zm-41.5 8.5a3.8 3.8 0 0 1-3.1-1.5 5.9 5.9 0 0 1 0-6.5 3.7 3.7 0 0 1 3.1-1.5 3.7 3.7 0 0 1 3.2 1.5 5.4 5.4 0 0 1 1 3.3 5.4 5.4 0 0 1-1 3.2 3.8 3.8 0 0 1-3.2 1.5Zm0-8.5a2.7 2.7 0 0 0-2.3 1.1 4.4 4.4 0 0 0-.8 2.7c0 1.8.8 3.7 3.1 3.7s3.2-2 3.2-3.7a4.4 4.4 0 0 0-.8-2.7 2.7 2.7 0 0 0-2.3-1Zm86 8.3h-2.1v-9h2.3A4.6 4.6 0 0 1 227 67a4.5 4.5 0 0 1 1.4 3.3c0 3-1.7 4.6-4.8 4.6Zm-1.1-1h1.2a4 4 0 0 0 2.7-.8 3.6 3.6 0 0 0 1-2.8 3.5 3.5 0 0 0-1-2.6 3.6 3.6 0 0 0-2.6-.9h-1.3Zm62.4-3.3h-2v-4.8h1.8a3.6 3.6 0 0 1 1.8.5 2.1 2.1 0 0 1 1 1.9 2.4 2.4 0 0 1-2.6 2.4Zm-1-1h1c.3 0 1.7 0 1.7-1.4 0-1.1-1.4-1.4-2-1.4h-.8Zm277.9.5H560V66h2a3.2 3.2 0 0 1 2 .5 1.9 1.9 0 0 1 .7 1.6 2 2 0 0 1-.9 1.7 3.5 3.5 0 0 1-2 .5Zm-.8-1h.8c.6 0 1.9-.1 1.9-1.2 0-.9-1-1-1.7-1h-1Zm-92 1h-2V66h2.1a3.2 3.2 0 0 1 2 .5 1.9 1.9 0 0 1 .7 1.6 2 2 0 0 1-.8 1.7 3.5 3.5 0 0 1-2 .5Zm-1-1h1c.5 0 1.8-.1 1.8-1.2 0-.9-1-1-1.7-1h-1Zm-278.3 1H188V66h2a3.2 3.2 0 0 1 2 .5 1.9 1.9 0 0 1 .7 1.6 2 2 0 0 1-.8 1.7 3.5 3.5 0 0 1-2 .5Zm-.8-1h.8c.6 0 2-.1 2-1.2 0-.9-1-1-1.8-1h-1Zm-40.6 1h-1.9V66h2a3.2 3.2 0 0 1 2 .5 1.9 1.9 0 0 1 .8 1.6 2 2 0 0 1-.9 1.6 3.5 3.5 0 0 1-2 .6Zm-.8-1h.8c.6 0 1.9-.1 1.9-1.2 0-.9-1-1-1.7-1h-1ZM186 54.6l-.2-.4a7.5 7.5 0 0 0-2.3-2.3l-.7-.4.7-.4.6-.4-16.9 1.9h-.5l-.6-3.9h.5l9.2-.9v-2.9h-3.7c-1 0-2.4 0-4.1.2h-.3l-.1-.2c-.2-.2-.3-.5-.3-1.8s0-1.6.3-1.8l.1-.2h.3c1.3.2 2.7.2 4 .2h3.8v-1.7h-3.7c-1.4 0-2.7 0-4 .2a.6.6 0 0 1-.7-.7 16 16 0 0 0 .1-2.7v-4a63.7 63.7 0 0 0-.3-6.6.7.7 0 0 1 .8-.7l4.1.2h3.7v-1.8h-4.3c-1.4 0-3 0-4.7.2h-.3l-.2-.2c-.1-.2-.2-.5-.2-1.8s0-1.7.2-1.9l.2-.2h.3a42.7 42.7 0 0 0 4.7.3h4.3v-2c-2.9.3-5.5.4-7.8.5h-.4l-.1-.4a7.7 7.7 0 0 0-.8-2.3l-.4-.7h.8a121.6 121.6 0 0 0 19-2.3h.4l.1.3 2.1 3.1-.7.2a83.6 83.6 0 0 1-8.3 1.2V20h4.2l4.7-.3h.3l.1.2c.2.2.3.5.3 1.9v.9H193.1v-9.8h4.2v9.8h9.3V25a453 453 0 0 1-.9 19.8c-.3 3.9-.9 6.3-1.7 7.3a4.2 4.2 0 0 1-3.3 2 18.2 18.2 0 0 1-2.2 0h-3.2l-.4-.1v-.4a8 8 0 0 0-1-3l-.4-.8h1l4.8.3a1.4 1.4 0 0 0 1.2-.5c.3-.3.8-1.5 1.1-6 .3-3.3.6-9 .8-16.7h-5.3a60.5 60.5 0 0 1-2.5 15.7 23.6 23.6 0 0 1-8.1 11.8Zm-1.4-3a8.5 8.5 0 0 1 1.7 1.6 20.7 20.7 0 0 0 4.2-4.5 25.6 25.6 0 0 0 3.1-6.5 60.5 60.5 0 0 0 2.5-16v-.4h7.3v.5c-.2 8-.5 13.9-.8 17.4-.4 4.7-1 6-1.3 6.4a2.4 2.4 0 0 1-2 .9c-1.3 0-2.6 0-4-.2a9.2 9.2 0 0 1 .5 2.1l2.7.1a17.1 17.1 0 0 0 2.1 0 3.2 3.2 0 0 0 2.6-1.5c.5-.6 1.1-2.3 1.5-7 .3-3.4.6-10 .8-19.7v-1.2h-9.3v-.5l.1-9.3h-2.1l-.1 9.3v.5h-5.4a17 17 0 0 0 0 2.3l2.2-.1h3.1v.5a71.3 71.3 0 0 1-1.4 11.7 25.7 25.7 0 0 1-4.1 9.5l-1 1.2v-1.1l-8.2.8h-.6V44h5l3.9.1v-1.9c-1.7.2-3 .2-4 .2h-4.9v-3.7h4.9l3.9.1-.1-3v-9.6l-3.8.2h-4.9v-3.8h5.2l4.3.1a12 12 0 0 0 0-2l-4.3.3h-5.2v-4.3h.5c3.3-.4 6-.8 7.9-1.2l-1.1-1.6a122.4 122.4 0 0 1-18 2 9.3 9.3 0 0 1 .4 1.6l7.9-.5h.5v4h-5.3l-4.4-.2v2c1.6-.2 3-.2 4.4-.2h5.3v3.8h-4.7c-1.3 0-2.6 0-3.8-.2l.2 6.3v6.4l3.6-.2h4.7v3.7h-4.7l-3.8-.1v1.9l3.8-.2h4.7v4.8h-.5l-9 1 .3 1.8 18-2 1.7-.2-1.2 1-1.5 1.2Zm-4.9-6.7v2.5l8.3-.9a25.2 25.2 0 0 0 3.6-8.7 68.8 68.8 0 0 0 1.4-11H191a24.7 24.7 0 0 0-2.5.1v8.9a31.2 31.2 0 0 0 0 3.3.6.6 0 0 1-.6.7l-4.2-.2h-3.9v1.7h3.9l4.3-.1h.2l.2.1c.2.2.3.5.3 1.8s-.1 1.6-.3 1.8l-.2.2h-.2a53 53 0 0 0-4.3-.2Zm0-19.6h3.9c1.4 0 2.7 0 4-.2v-1.5l-3.7-.1h-4.2Zm160.8 29.3-.3-.4a7.6 7.6 0 0 0-2.2-2.3l-.7-.4.6-.4.7-.4-16.9 1.9h-.5v-.5l-.6-3.4h.5l9.2-.9v-2.9h-3.7c-1 0-2.4 0-4.1.2h-.3l-.1-.2c-.2-.2-.3-.5-.3-1.8s0-1.6.3-1.8l.1-.2h.3c1.3.2 2.7.2 4 .2h3.8v-1.7h-3.7a46 46 0 0 0-4 .2.6.6 0 0 1-.7-.7 16.2 16.2 0 0 0 .1-2.7v-4a64 64 0 0 0-.3-6.6.7.7 0 0 1 .8-.7l4.1.2h3.7v-1.8H326c-1.4 0-3 0-4.8.2h-.2l-.2-.2c-.1-.2-.2-.4-.2-1.8s0-1.7.2-1.9l.2-.2h.3a42.8 42.8 0 0 0 4.7.3h4.3v-2c-3 .3-5.5.4-7.8.5h-.4l-.1-.4a7.8 7.8 0 0 0-.8-2.3l-.4-.7h.8a121.7 121.7 0 0 0 19-2.3h.3l.2.2 2.1 3.2-.7.2a83.2 83.2 0 0 1-8.3 1.2V20h4.2l4.7-.3h.2l.2.2a15.2 15.2 0 0 1 .2 2.8H347.7v-9.8h4.2v9.8h9.2V25c-.2 9.8-.5 16.3-.8 19.8-.3 3.9-.9 6.3-1.7 7.3a4.2 4.2 0 0 1-3.3 2 18.3 18.3 0 0 1-2.2 0h-3.2l-.5-.1v-.4a8 8 0 0 0-.8-3l-.5-.8h1l4.8.3a1.4 1.4 0 0 0 1.2-.5c.3-.4.7-1.5 1.1-6 .3-3.4.6-9 .8-16.7h-5.4a60.3 60.3 0 0 1-2.5 15.7 23.6 23.6 0 0 1-8 11.8Zm-1.4-3a8.5 8.5 0 0 1 1.7 1.6 20.7 20.7 0 0 0 4.2-4.5 25.6 25.6 0 0 0 3.1-6.5 60.3 60.3 0 0 0 2.5-16v-.4h7.3v.5c-.2 8-.5 13.8-.8 17.4-.4 4.7-1 6-1.3 6.4a2.4 2.4 0 0 1-2 .9c-1.3 0-2.6 0-4.1-.2a9.2 9.2 0 0 1 .5 2.1l2.8.1a17 17 0 0 0 2.1 0 3.2 3.2 0 0 0 2.6-1.5c.5-.6 1.1-2.3 1.5-7 .3-3.4.6-9.8.8-19.7v-1.2h-9.3v-9.8h-2l-.1 9.3v.5h-5.4a17 17 0 0 0 0 2.3l2.2-.1h3.1v.5a70.8 70.8 0 0 1-1.4 11.7 25.7 25.7 0 0 1-4.1 9.5l-1 1.2v-1.1l-8.2.8h-.6V44h4.9l4 .1v-1.9c-1.8.2-3 .2-4 .2h-4.9v-3.7h4.9l3.8.1V26.1l-3.8.2h-4.9v-3.8h5.2l4.3.1v-2l-4.3.3h-5.2v-4.3h.5c3.3-.4 6-.8 7.9-1.2l-1.1-1.6a122.3 122.3 0 0 1-18 2 9.6 9.6 0 0 1 .4 1.6l7.8-.5h.6v4H326l-4.4-.2v2c1.6-.2 3-.2 4.4-.2h5.3v3.8h-4.7a47 47 0 0 1-3.8-.2l.2 6.3v6.4l3.6-.2h4.7v3.7h-4.7l-3.8-.1v1.9l3.8-.2h4.7v4.8h-.5l-9 1 .3 1.8 18-2 1.7-.2-1.3 1c-.5.5-1 1-1.4 1.2Zm-4.9-6.7v2.5l8.3-.9a25.3 25.3 0 0 0 3.6-8.7 68.2 68.2 0 0 0 1.4-11h-2.1l-2.5.1v8.9a31.2 31.2 0 0 0 0 3.2v.1a.6.6 0 0 1-.6.7l-4.3-.2h-3.8v1.7h3.9l4.3-.1h.2l.2.1c.2.2.3.5.3 1.8s-.1 1.6-.3 1.8l-.2.2h-.2a53 53 0 0 0-4.3-.2Zm0-19.6h3.8c1.4 0 2.8 0 4.2-.2v-1.5l-3.8-.1h-4.2Zm41.4 29.3-.3-.4a9 9 0 0 0-2.4-2.5l-.6-.5.6-.4a35.1 35.1 0 0 0 7-5.4 28.3 28.3 0 0 0 4.8-6.7 33.7 33.7 0 0 0 3.4-12.4h-6.5l-7 .3h-.4l-.1-.2c-.1-.2-.2-.5-.2-2.2s0-2 .2-2.3l.1-.2h.3c2 .2 4.5.3 7.2.3h6.7v-5.3l-.2-4v-.5h.4a16.7 16.7 0 0 1 2.8 0c1.1 0 2.3.3 2.3 1v.2l-.1.1a4.9 4.9 0 0 0-.9 2.6V22h18.5v1.2l-.1 1a275 275 0 0 1-1.6 19.8c-.6 4.1-1.3 6.7-2.4 7.9a5 5 0 0 1-1.8 1.4 7.8 7.8 0 0 1-2.3.6h-2c-1.3 0-3 0-5.1-.2h-.5v-.5a6 6 0 0 0-1-3.1l-.6-.9 1 .1 7 .3a2.3 2.3 0 0 0 1.6-.5c.5-.5 1.3-2 1.9-6.2.5-3.5 1-9.1 1.4-16.6h-14.2a38.6 38.6 0 0 1-3.6 14.3 31.2 31.2 0 0 1-5.3 7.5 38 38 0 0 1-7.6 6.2Zm-1.5-3.3a10.3 10.3 0 0 1 1.8 2 36.8 36.8 0 0 0 7-5.8 30.2 30.2 0 0 0 5.1-7.4 38 38 0 0 0 3.6-14.3v-.5h16.1v.5c-.4 7.8-1 13.6-1.4 17.3-.6 3.6-1.3 5.9-2.2 6.7a3.3 3.3 0 0 1-2.4.8c-2 0-4 0-6-.2a7 7 0 0 1 .7 2.4 78.5 78.5 0 0 0 6.5 0 6.8 6.8 0 0 0 2-.4 4 4 0 0 0 1.5-1.1c.9-1 1.6-3.6 2.1-7.4a295.3 295.3 0 0 0 1.6-20.7V23h-18.4v-6.9a5.7 5.7 0 0 1 .8-2.7 6.5 6.5 0 0 0-1.2-.2l-1.6-.1h-.5l.2 3.6V23h-7.7c-2.6 0-4.8-.1-6.8-.3a18.3 18.3 0 0 0 0 2.9 94 94 0 0 1 6.7-.3h7.6v.6a35 35 0 0 1-3.6 13.3 29.2 29.2 0 0 1-5 6.9 35.6 35.6 0 0 1-6.5 5.2Zm104 3.2-.3-.4a9.5 9.5 0 0 0-2.8-1.6l-.6-.2.4-.5a31 31 0 0 0 4-11.8 84 84 0 0 0 .7-12v-6.6a60.6 60.6 0 0 0-.3-6.5.8.8 0 0 1 .8-.9 76.7 76.7 0 0 0 8.2.4h16.5a76.8 76.8 0 0 0 8.2-.4c.2 0 .7 0 .7.9a20.6 20.6 0 0 0-.2 2.7v2.7c0 2.2.1 4 .3 5.5a.7.7 0 0 1-.8.7 31.2 31.2 0 0 0-3.3-.2H507v3.1h3.3c.8 0 2 0 3.7-.2h.2l.2.2c.1.1.2.4.2 2s0 1.7-.2 2h-.5l-3.6-.1h-3.3v3.6h4.1l4.6-.3h.3l.2.2c0 .2.2.5.2 2s-.1 1.8-.2 2l-.2.3h-.3a67 67 0 0 0-3.7-.3 9 9 0 0 1 1 1c.5.7.6 1.1.6 1.5a.7.7 0 0 1-.3.5 1.3 1.3 0 0 1-1 .2 1 1 0 0 0-.1 0 1.4 1.4 0 0 0-.8.3 42.6 42.6 0 0 1-4.1 2.5 24.5 24.5 0 0 0 9 3.7l1 .2-.7.6a8.3 8.3 0 0 0-1.9 2.7l-.1.4-.5-.2a26.5 26.5 0 0 1-10.3-5 22 22 0 0 1-1.7-1.5l.1 2.9-1 .2-5 .8-11.5 2h-.5l-.7-4 .5-.1 4.7-.7v-8h-5.3a.6.6 0 0 1-.2-.3l-.5 2.7a32.4 32.4 0 0 1-4 10.8Zm13.5-14.8h6.2l.2.3a22.1 22.1 0 0 0 6.2 8.5 25.3 25.3 0 0 0 9.6 4.7 9 9 0 0 1 1.3-2 24.6 24.6 0 0 1-9.3-4l-.6-.5.7-.4a42.3 42.3 0 0 0 4.7-2.8 2.3 2.3 0 0 1 1.6-.5.8.8 0 0 0 .1 0 3.4 3.4 0 0 0-.3-.5 8 8 0 0 0-1.3-1.4 49.5 49.5 0 0 1-6.4 4.4l-.3.1-.3-.2a19 19 0 0 1-3.6-5l-.3-.7h8.3c2.6 0 5 .1 7 .3a14.7 14.7 0 0 0 0-2.3l-4.1.1h-5.2v-5.5h4.3l3.3.1v-2.2l-3.3.2h-4.3v-5h6.8l-.2-5v-2.8a24 24 0 0 1 .1-2.5c-2 .2-4.7.3-7.8.3h-16.5a80 80 0 0 1-8-.4c.2 1.7.3 3.8.3 6.4v6.5a85 85 0 0 1-.8 12.2 32.7 32.7 0 0 1-3.8 11.7 10.4 10.4 0 0 1 2 1.2 32.3 32.3 0 0 0 3.6-10 77 77 0 0 0 1.3-15v-2.7h9v5.1h-3.8l-2.9-.1v2h6.7v5.5h-4.4l-3.6-.1a14.5 14.5 0 0 0 0 2.1H489.6v9.9h-.4l-4.6.7.3 2.1 11-1.9 5-.8h.2l-.1-2a286.4 286.4 0 0 1-8.8 1.5h-.5Zm1 1v7.5a759.8 759.8 0 0 1 8.5-1.4 23.8 23.8 0 0 1-4-6Zm8.8 0a18.3 18.3 0 0 0 2.8 3.7 49.2 49.2 0 0 0 5.4-3.7h-1.5Zm-18-4h.1l3.9.2h3.5v-3.6h-2.8a39 39 0 0 0-3.3.1H484.6c-.3-.3-.4-.6-.4-2s.1-1.9.4-2l.1-.1h.2a31.4 31.4 0 0 0 3.3.1h2.8v-3h-7v1.5c0 3.1-.2 6-.5 8.8ZM222.7 54.4c-1.4 0-1.9 0-2.1-.3l-.3-.2v-.2a79 79 0 0 0 .4-8.4v-4.2l-.1-4.1a.7.7 0 0 1 .6-.7l4.3.1h8.7l4.3-.1a.7.7 0 0 1 .7.6l-.2 4.2v4.1a79.1 79.1 0 0 0 .4 8.2v.3l-.2.1c-.2.2-.7.4-2.2.4s-2-.1-2.2-.6v-.2a6.9 6.9 0 0 0 0-1.1v-.7h-10v.8a8.4 8.4 0 0 0 0 1.2v.2c0 .6-.7.7-2 .7Zm-1.3-1a9 9 0 0 0 1.3 0 9.4 9.4 0 0 0 1.1 0 9.7 9.7 0 0 1 0-1v-1.8h12v1.7a8.1 8.1 0 0 1 0 .8 13.7 13.7 0 0 0 2.6 0c-.3-2.2-.4-4.8-.4-7.9v-4.1c0-1.3 0-2.6.2-3.8l-4 .1h-8.7a51 51 0 0 1-4-.1c.2 1.2.2 2.5.2 3.8v4.2c0 3.3 0 6-.3 8Zm23 1c-1.7 0-2-.2-2.3-.3l-.2-.2v-.3c.3-2.5.4-5.7.4-9.5V25c0-3.8-.1-7-.4-9.5a.8.8 0 0 1 .9-.8 61.8 61.8 0 0 0 6.5.3h6.4l.7-.2.2.1 2.8 1.8-.2.4c-2.5 5.8-4.4 10-6 13.2a19.7 19.7 0 0 1 4 5.1 13 13 0 0 1 1.4 5.8c0 3.1-.8 5.2-2.3 6.3a7 7 0 0 1-3.2 1 19.3 19.3 0 0 1-2.3.2h-2V48a6.7 6.7 0 0 0-.9-3l-.5-.9 1 .1a21.1 21.1 0 0 0 2.2.1h1.2a4.2 4.2 0 0 0 1.7-.4c.6-.4 1-1.5 1-3.1 0-3.2-2-6.5-5.6-9.7l-.3-.3.2-.3c1.3-2.7 2.9-6.6 4.8-11.5h-7.1v21.2c0 5.4.1 9.9.4 13.4v.3l-.2.2c-.2.1-.6.3-2.3.3Zm-1.4-1a10 10 0 0 0 1.4 0 9.7 9.7 0 0 0 1.4 0c-.2-3.6-.3-8-.3-13.2V18h9.6l-.3.7c-2 5-3.6 9-5 11.9a20.3 20.3 0 0 1 4.1 4.9 10.6 10.6 0 0 1 1.5 5.3c0 2-.4 3.3-1.4 4a5.2 5.2 0 0 1-2.1.5 22.9 22.9 0 0 1-2.7 0 8 8 0 0 1 .5 2.2h1a18.3 18.3 0 0 0 2.3 0 6 6 0 0 0 2.7-1c1.3-.8 2-2.6 2-5.4a12.1 12.1 0 0 0-1.4-5.3 19 19 0 0 0-4-5.2l-.3-.2.1-.4c1.6-3 3.6-7.3 6-13l-1.9-1.2H249.3a65 65 0 0 1-6.4-.2c.3 2.5.4 5.6.4 9.3v19.2c0 3.7-.1 6.8-.4 9.2Zm295.2 1c-1.5 0-2-.2-2.2-.4l-.2-.2v-.2a48 48 0 0 0 .3-5.7v-5l-7.5 2.3-.4.1-.2-.3a25.8 25.8 0 0 0-1.7-2.7l-.4-.6.7-.2a95.6 95.6 0 0 0 17-6h-6.8c-2.7 0-5.7.2-8.9.4h-.3l-.1-.3a4.4 4.4 0 0 1-.2-1.8c0-1.4 0-1.7.2-1.8l.1-.3h.3c2.2.2 4.8.4 7.7.4h7.3v-2.5h-5.1a76 76 0 0 0-5.6.2h-.3l-.1-.2c-.2-.2-.3-.6-.3-1.8s.1-1.5.3-1.7l.1-.2h.3c1.6.2 3.4.2 5.6.2h5.1v-1.5h-12.8v-5.4a42.1 42.1 0 0 0-.2-4.7.8.8 0 0 1 .7-1 80.5 80.5 0 0 0 8.4.4h25.6v5.4a41.9 41.9 0 0 0 .2 4.7c0 .7-.4 1-.7 1l-1.6-.2a9.1 9.1 0 0 1 .8.8 2.1 2.1 0 0 1 .7 1.4.8.8 0 0 1-.2.5 1.3 1.3 0 0 1-1 .4 1.3 1.3 0 0 0-.8.4c-1.5 1.3-3 2.6-4.7 3.7h4c1.6 0 3.4 0 5.5-.2h.2l.2.2c.1.2.2.4.2 1.8s0 1.7-.2 1.8l-.1.3h-.4c-2.1-.2-4.6-.3-7.4-.3h-4.1a16.8 16.8 0 0 1 3.6 1.6l.5.4-1 1.1h1.4a18.5 18.5 0 0 0 2.5 0 .6.6 0 0 1 .7.5l-.2 3.6v3.6c0 2.7.1 5 .3 7.1v.3l-.1.1c-.2.2-.5.4-2.3.4-1.5 0-2.1 0-2.2-.6v-.4a1.4 1.4 0 0 0 0-.3V53h-18.1v.1a1.7 1.7 0 0 0 0 .3v.4c0 .5-.6.6-.8.6a10.5 10.5 0 0 1-1.3 0Zm-1.3-1.1a9.1 9.1 0 0 0 1.3 0 10 10 0 0 0 1.1 0 2.1 2.1 0 0 1 0-.3V52h20V53a2 2 0 0 1 0 .3 10.5 10.5 0 0 0 1.3 0 10.2 10.2 0 0 0 1.4 0c-.2-2-.3-4.3-.3-6.9v-3.6c0-1 0-2.1.2-3.1H541.3l2.2-1a87 87 0 0 0 8-4l.1-.1h7.7c2.6 0 5 0 7.1.2a11.8 11.8 0 0 0 0-2l-5.1.3h-7.1l1.3-1a61 61 0 0 0 5.8-4.5 2.2 2.2 0 0 1 1.6-.7.4.4 0 0 0 .1 0 3 3 0 0 0-.4-.6 8 8 0 0 0-1.4-1.3 60.1 60.1 0 0 1-3.6 3.3l-.3.3-.2.1-.3.3-.7.5a75.3 75.3 0 0 1-5.4 3.5H546v-4.4h10.8V27H546v-3.5h9.3c3.4 0 6.2 0 8.5.3a44 44 0 0 1-.2-4.6v-4.4H539a84 84 0 0 1-8-.3 44.5 44.5 0 0 1 .1 4.6v4.4H544V27h-6.2c-2 0-3.7 0-5.2-.2v1.9c2-.2 3.7-.2 5.2-.2h6.2V33h-8.3c-2.7 0-5.2-.1-7.3-.3a12.6 12.6 0 0 0 0 2.1l8.5-.3H548l-1.9 1a95 95 0 0 1-18.5 6.7l1.2 1.9c2.7-.8 5.3-1.6 7.7-2.6l.7-.2v6.5a52.6 52.6 0 0 1-.2 5.4ZM551 36.6a25 25 0 0 1 5.5 2.2l.1.1 1-1.1a22.7 22.7 0 0 0-5.7-2.1Zm-5.2 2.1h8.3a26.8 26.8 0 0 0-4.1-1.4l-.8-.2V37l-3.4 1.7Zm1.1-6.6h3.3l3.9-2.5H547Zm0-6h10.8v.8l2.3-2.2-4.8-.1H547ZM442 54.3l-.2-.4a8.8 8.8 0 0 0-1.4-2.3l-.5-.7.8-.1a31.9 31.9 0 0 0 8-2.7 18.4 18.4 0 0 1-4.2-6l-.1-.1H443c-.3-.2-.4-.5-.4-1.8a5.3 5.3 0 0 1 .1-1.4l-.2-.3a11.8 11.8 0 0 0-1.2-1.3v.2c-.3.2-.7.3-2.1.3a9.3 9.3 0 0 1-1.3 0c-.2-.1-.7-.2-.8-.7v-.3h-5.6v.1l-.2.9-.5 2.2h10.5v.5l-.2 1.4a73 73 0 0 1-1 7.5 7 7 0 0 1-1.4 3.5 5 5 0 0 1-3.3 1.3 51.6 51.6 0 0 1-6-.1h-.4v-.5a5 5 0 0 0-.9-2.6l-.6-.9 1 .1a61.8 61.8 0 0 0 7 0 4 4 0 0 0 .8-2 45.1 45.1 0 0 0 .7-4.6h-7l-.2 1.3-3.8-.7.1-.5a99.2 99.2 0 0 0 2.2-10V33h8.8v-3.6h-7.7v-.1a37.7 37.7 0 0 1-3.8 1.6l-.4.1-.2-.4a9.8 9.8 0 0 0-1.7-2.3l-.6-.6.8-.3a30.4 30.4 0 0 0 8-3.8 25.3 25.3 0 0 0-4.4-3.3l-.5-.4 2-2h-.4l-.1-.1c-.1-.2-.3-.5-.3-2 0-1.4.1-1.7.4-1.8l.2-.1h.1a25.2 25.2 0 0 0 3 .1h9l.7-.2.1.1 2.5 1.3-.2.5a25.7 25.7 0 0 1-8.2 10h1.8a32.4 32.4 0 0 0 3.4-.2.6.6 0 0 1 .7.7 20 20 0 0 0-.2 2.7v2.7l.1 3.5a6.4 6.4 0 0 0 3.2-5.6v-4h8.8a30.1 30.1 0 0 1-5-4.7 29.4 29.4 0 0 1-4.5-7.1l-.2-.5.5-.2 3-1 .2.4a23.2 23.2 0 0 0 3.1 5 48.1 48.1 0 0 0 5.2-4.8l.3-.3.3.3a9.5 9.5 0 0 1 1.8 1.7c.3.4 1 1.3.4 2a1.3 1.3 0 0 1-1 .3 1.5 1.5 0 0 0-.9.4 42.1 42.1 0 0 1-3.7 3 25.2 25.2 0 0 0 2.4 2 38.5 38.5 0 0 0 5.6-5l.3-.2.3.2a9.3 9.3 0 0 1 1.8 1.7 3.5 3.5 0 0 1 .6 1 .8.8 0 0 1-.2 1 1.3 1.3 0 0 1-1 .3 1.5 1.5 0 0 0-.9.4 37 37 0 0 1-3.3 2.6 28.5 28.5 0 0 0 6.7 2.6l.9.3-.7.6a9.7 9.7 0 0 0-2 2.5l-.1.4-.4-.1A30.1 30.1 0 0 1 457 28V33a4.3 4.3 0 0 0 0 .8 2.4 2.4 0 0 0 .4 0H459.5a.6.6 0 0 0 .3-.3l.1-2.2v-1l.9.6a5.4 5.4 0 0 0 2.2 1.2h.4v.5c-.2 2.2-.5 2.9-.6 3.2a3.1 3.1 0 0 1-1.6 1.2 7.6 7.6 0 0 1-2.2.3h-2.2a4.4 4.4 0 0 1-2.7-.8c-.6-.7-1-1.9-1-3.8v-3.5h-5v.3a9.7 9.7 0 0 1-4.6 8.8l3.4.1h11l.6-.1 2.4 1-.2.4a20 20 0 0 1-5.4 8.2 28.4 28.4 0 0 0 8.3 2.5l1 .1-.7.7a11.6 11.6 0 0 0-1.8 2.6l-.2.3h-.4a27.7 27.7 0 0 1-9.6-3.6 33.2 33.2 0 0 1-9.6 3.6Zm-.3-2.7a9.5 9.5 0 0 1 .9 1.5 31.5 31.5 0 0 0 9.1-3.6l.3-.1.2.1a26.2 26.2 0 0 0 9.3 3.6 15.6 15.6 0 0 1 1.2-1.8 28.6 28.6 0 0 1-8.4-2.7l-.7-.4.6-.5a19 19 0 0 0 5.5-7.8l-1.2-.5-.5.1h-11l-3.3-.1a11.4 11.4 0 0 0 0 1.6H457.2l-.4.7a16.1 16.1 0 0 1-4.5 5.3l-.3.2-.3-.2a14 14 0 0 1-4.5-5.2l-.4.1-1.3.4a17.9 17.9 0 0 0 4.4 5.5l.5.5-.6.4a31.3 31.3 0 0 1-8.2 2.9ZM430 53a76.6 76.6 0 0 0 5.4 0 4 4 0 0 0 2.6-.9 6.2 6.2 0 0 0 1.2-3 72.5 72.5 0 0 0 1-7.4v-.8h-10.6l.1-.6.6-2.8.1-.9c0-.3.1-.4.2-.5v-.4h7.5v.9a9 9 0 0 0 1 0 10.7 10.7 0 0 0 1.2 0v-.5l-.1-1V26.6h-8l1.3-.8a25.4 25.4 0 0 0 9-10.1L441 15l-.5.1H429a13.8 13.8 0 0 0 0 2c1.7-.2 3.3-.2 4.7-.2h6.1l-.5.7a22.3 22.3 0 0 1-4.4 4.8l-.3.3-.3-.3a32.2 32.2 0 0 0-4.9-3.7l-1.2 1.2a23.8 23.8 0 0 1 4.5 3.6l.4.4-.4.3a31.3 31.3 0 0 1-8 4 11 11 0 0 1 1 1.7 35.3 35.3 0 0 0 4-1.8l.8-.4v.8h7.7V34h-9a101 101 0 0 1-1.9 9.2l1.8.3.3-1.1h8.8v.5a50.4 50.4 0 0 1-.8 5.4 4.8 4.8 0 0 1-1 2.5 2.8 2.8 0 0 1-2 .5c-1.6 0-3.2 0-4.9-.2a5.8 5.8 0 0 1 .6 1.8Zm18.4-11a13.2 13.2 0 0 0 3.6 4 15.2 15.2 0 0 0 3.5-4Zm-6.8-5.8a13.3 13.3 0 0 1 1.4 1.3 9 9 0 0 0 3-3.1 9.6 9.6 0 0 0 1.2-4.8v-1.3h7v4.5c0 2 .3 2.8.5 3a3.5 3.5 0 0 0 2.1.6h2.2a6.9 6.9 0 0 0 1.8-.2 2.1 2.1 0 0 0 1-.8 7.1 7.1 0 0 0 .5-2.4 6.8 6.8 0 0 1-1.4-.7 10.9 10.9 0 0 1-.2 1.5v.1a1.6 1.6 0 0 1-.8.9 5.1 5.1 0 0 1-1.2 0h-1.3a1.8 1.8 0 0 1-1-.1c-.3-.3-.4-.7-.4-1.6v-6.5h-10.6v3a7.5 7.5 0 0 1-3.8 6.6Zm14.4-10 .7.5a28.4 28.4 0 0 0 5.9 2.6 11 11 0 0 1 1.3-1.8 29.7 29.7 0 0 1-6.9-3l-.7-.4.7-.4a35.5 35.5 0 0 0 4-3 2.4 2.4 0 0 1 1.5-.6.6.6 0 0 0 .2 0 2.9 2.9 0 0 0-.4-.6 8.4 8.4 0 0 0-1.2-1.3 39.6 39.6 0 0 1-5.7 4.9l-.3.2-.3-.3a26 26 0 0 1-3.3-2.7l-.4-.4.5-.4a41.5 41.5 0 0 0 4.1-3.2 2.5 2.5 0 0 1 1.6-.6.7.7 0 0 0 .2 0 3.2 3.2 0 0 0-.4-.7 8.5 8.5 0 0 0-1.3-1.3 47.6 47.6 0 0 1-5.3 4.9l-.4.2-.3-.3a24.2 24.2 0 0 1-3.3-5.2l-1.7.6a28.3 28.3 0 0 0 4.1 6.3 29.6 29.6 0 0 0 6.2 5.5l.9.6ZM430 18a33.7 33.7 0 0 1 4.5 3.4 21.4 21.4 0 0 0 3.3-3.5H430ZM271.7 54.3v-.5a6.7 6.7 0 0 0-1.7-2.7l-.7-.7 1-.2a27 27 0 0 0 10.7-3.7 11 11 0 0 0 4.2-5.7H280c-2 0-4 .1-5.8.3h-.3l-.2-.3a15 15 0 0 1-.2-3.4h-.3c-1.6 0-2-.1-2.1-.4l-.2-.1v-.2c.2-1.2.2-2.5.2-3.9v-4a5.4 5.4 0 0 0-1.4-2.1l-.7-.6 1-.3c3.5-1 6-2.4 7.2-4.3a11.5 11.5 0 0 0 1.3-3.7 32.3 32.3 0 0 0 .5-5v-.6h4l-.1.5a34.3 34.3 0 0 1-1 7.8l.4.3c3 2.1 5.1 3.6 6 4.4l.4.3c3.4-1 5.7-2.4 7-4.3a19 19 0 0 0 1.6-8.5v-.5h4v.6a33.5 33.5 0 0 1-1 7.5l8.9 6 .4.4-1.6 1.7h.8v4.4c0 1.3 0 2.6.2 3.9v.2l-.1.1c-.2.3-.5.4-2.2.4h-1.2l-.2 1.4a95.8 95.8 0 0 1-1 9.6 8.5 8.5 0 0 1-1.7 4.2 5.1 5.1 0 0 1-3.5 1.5 66 66 0 0 1-6.8-.1h-.5v-.5a5.4 5.4 0 0 0-1-2.8l-.7-1 1.1.2 6.5.2a2.6 2.6 0 0 0 1.6-.3c.4-.4 1-2.2 1.7-9h-11.2a15.6 15.6 0 0 1-5 8.5c-2.8 2.2-7 3.8-12.6 4.9Zm21-1.3a78.2 78.2 0 0 0 6.3.1A4.2 4.2 0 0 0 302 52a7.7 7.7 0 0 0 1.5-3.8 94.5 94.5 0 0 0 1-9.4v-1h-15v-.6l.5-4.2h-2.5l-.4 4.4v.4h-6.7c-2.3 0-4.3 0-5.8-.2a15.7 15.7 0 0 0 0 2.4l5.5-.2h6.5l-.1.7a12.2 12.2 0 0 1-4.8 6.9 26.8 26.8 0 0 1-10.3 3.7 8 8 0 0 1 1.1 2c5.2-1 9.2-2.6 11.7-4.6a14.8 14.8 0 0 0 4.8-8.3l.1-.4h13v.6c-.6 7.9-1.5 9.6-2 10.1a3.5 3.5 0 0 1-2.3.6c-1.8 0-3.7 0-5.6-.2a6.7 6.7 0 0 1 .6 2Zm-2.2-16.2h14v-.1a17.1 17.1 0 0 0 0-2.4v-2H291v.2a107 107 0 0 1-.4 4.3Zm-15-.1 4.8.1h5.8l.3-4.4v-.1h-11v2a17 17 0 0 0 0 2.4Zm30-.3a13.3 13.3 0 0 0 2.5 0 41 41 0 0 1-.2-3.6v-3.4h-35.7v3.4l-.1 3.6h2.4v-5.1h31.2v3l-.1 2Zm-13.2-8h12.9a94.7 94.7 0 0 0-6.5-4.6 13.3 13.3 0 0 1-6.4 4.6Zm-17.8 0H290a5.7 5.7 0 0 0-1.6-2l-.3-.3-2.3 2.2-.4-.3a72 72 0 0 0-5.2-4 12.5 12.5 0 0 1-5.8 4.4Zm23.9-6 .4.3a87.1 87.1 0 0 1 7.9 5.6l1.4-1.5c-1.9-1.4-4.8-3.4-8.6-5.8l-.4-.3.2-.3a29.7 29.7 0 0 0 1-7.2h-2c-.2 4-.8 6.7-1.8 8.5-1.3 2-3.5 3.5-6.7 4.5a6.1 6.1 0 0 1 1.1 1.6c3.5-1.1 5.9-2.8 7.2-5ZM271 26.6a6.4 6.4 0 0 1 1 1.6c3.7-1.1 6.3-2.9 7.7-5.2l.3-.4.4.3c2.4 1.7 4.3 3 5.5 4l1.4-1.3a110.8 110.8 0 0 0-6.3-4.5l-.3-.2.1-.3a29.5 29.5 0 0 0 1-7.4H280a31.6 31.6 0 0 1-.5 4.8 12.4 12.4 0 0 1-1.5 4c-1.2 2-3.6 3.6-7 4.6ZM117.3 54.3l-.2-.5a6.7 6.7 0 0 0-1.6-2.7l-.7-.7 1-.2a27 27 0 0 0 10.7-3.7 11 11 0 0 0 4.2-5.7h-5.2c-2 0-4 .1-5.8.3h-.3l-.2-.3a14.6 14.6 0 0 1-.2-3.4h-.3c-1.6 0-2-.1-2.1-.4l-.1-.1v-.2l.2-3.9v-4a5.4 5.4 0 0 0-1.5-2.1l-.6-.6.8-.3c3.6-1 6-2.4 7.3-4.3a11.4 11.4 0 0 0 1.3-3.7 32.3 32.3 0 0 0 .6-5v-.6h3.8v.6a34.3 34.3 0 0 1-1 7.7l.4.3c3 2 5.1 3.6 6 4.4l.4.3c3.4-1 5.7-2.4 7-4.3a19 19 0 0 0 1.7-8.5v-.5h4v.6a33.7 33.7 0 0 1-1 7.5c4 2.6 7 4.7 8.8 6l.4.4-.4.4-1.2 1.3h.8v4.4c0 1.3 0 2.6.2 3.9V37c-.3.3-.6.4-2.3.4H151c0 .4 0 1-.2 1.4-.3 4.4-.6 7.6-1 9.6a8.4 8.4 0 0 1-1.7 4.2 5.1 5.1 0 0 1-3.5 1.5 66 66 0 0 1-6.8-.1h-.5v-.5a5.4 5.4 0 0 0-1-2.8l-.7-1 1.1.2 6.5.2a2.6 2.6 0 0 0 1.6-.3c.4-.4 1.1-2.2 1.7-9h-11.2a15.6 15.6 0 0 1-5 8.5c-2.8 2.2-7 3.8-12.6 4.9Zm21-1.3a78.3 78.3 0 0 0 6.2.1 4.2 4.2 0 0 0 2.9-1.1 7.7 7.7 0 0 0 1.5-3.8c.3-2 .7-5.1 1-9.4v-1h-15v-.6l.5-4.2h-2.5l-.4 4.4v.4h-6.7c-2.3 0-4.3 0-5.8-.2a15.7 15.7 0 0 0 0 2.4l5.5-.2h6.5l-.1.7a12.2 12.2 0 0 1-4.8 6.9 26.8 26.8 0 0 1-10.3 3.7 8 8 0 0 1 1.1 2c5.3-1 9.2-2.6 11.7-4.6a14.8 14.8 0 0 0 4.8-8.3l.1-.4h13v.6c-.6 7.9-1.5 9.6-2 10.1a3.4 3.4 0 0 1-2.3.6c-1.8 0-3.7 0-5.6-.2a6.7 6.7 0 0 1 .6 2ZM136 36.8h14v-.1a17 17 0 0 0 0-2.4v-2h-13.5v.2l-.5 4.3Zm-15-.1 4.8.1h5.8l.3-4.4v-.1h-11v2a17 17 0 0 0 0 2.4Zm30-.3a13.3 13.3 0 0 0 2.5 0 41 41 0 0 1-.2-3.6v-3.4h-35.7v3.4l-.1 3.6h2.4v-5.1H151v3l-.1 2Zm-13.2-8h13a94 94 0 0 0-6.6-4.6 13.3 13.3 0 0 1-6.3 4.6Zm-17.8 0h15.6a5.6 5.6 0 0 0-1.6-2l-.2-.3-2.4 2.2-.4-.3c-1-.9-2.8-2.3-5.2-4a12.5 12.5 0 0 1-5.8 4.4Zm24-6 .3.3a86.6 86.6 0 0 1 7.9 5.6l1.4-1.5A166 166 0 0 0 145 21l-.3-.3v-.3a29.8 29.8 0 0 0 1.2-7.2h-2c-.3 4-.9 6.7-2 8.5-1.2 2-3.4 3.5-6.6 4.5a6.2 6.2 0 0 1 1.2 1.6c3.4-1.1 5.8-2.8 7.1-5Zm-27.5 4.2a6.4 6.4 0 0 1 1 1.6c3.7-1.1 6.3-2.9 7.7-5.2l.3-.4.4.3c2.5 1.7 4.3 3 5.5 4l1.4-1.3a111.1 111.1 0 0 0-6.2-4.5l-.4-.2.1-.3a29.5 29.5 0 0 0 1-7.4h-1.8a31.5 31.5 0 0 1-.5 4.8 12.4 12.4 0 0 1-1.5 4c-1.2 2-3.6 3.6-7 4.6Zm442.9 23.9h-20.1v-4.1h20Zm-19.1-1h18v-2.1h-18Zm-304.5-.8h-12v-9.3h12Zm-11-1h10v-7.3h-10Zm334.6-2.5h-20.1v-4h20Zm-19.1-1h18v-2h-18ZM503.9 38h-9.8v-5.6h9.8Zm-8.8-1h7.8v-3.6h-7.8Zm-155 .4h-6.8V33h6.8Zm-5.8-1h4.8V34h-4.8Zm-3 1h-6.5V33h6.6Zm-5.5-1h4.6V34h-4.6Zm-140.2 1h-6.8V33h6.8Zm-5.8-1h4.8V34h-4.8Zm-3 1h-6.5V33h6.6Zm-5.5-1h4.6V34h-4.6Zm70-2.4h-.4a46.3 46.3 0 0 0-5.6-.3H224c-1.8 0-3.7 0-5.6.2h-.3l-.2-.2c0-.2-.2-.5-.2-2.1a5.2 5.2 0 0 1 .2-2l.2-.4h.3c1.5.2 3.3.3 5.2.3a17.3 17.3 0 0 0-.6-3.3 26.9 26.9 0 0 0-1.3-3.7l-.2-.6 3.3-.7-5.2.3h-.3l-.2-.2c-.1-.2-.2-.5-.2-2 0-1.6.1-1.8.3-2l.1-.2h.3c1.4.2 2.9.2 4.4.2h3.9v-2a21.3 21.3 0 0 0-.1-2.4l-.1-.5h.5l1-.1a14.5 14.5 0 0 1 1.5 0c.7.2 2 .3 2 1.2v.2a3.4 3.4 0 0 0-.7 2v1.6h4c1 0 2.5 0 4.5-.2h.2l.1.2c.2.2.3.4.3 2 0 1.5 0 1.8-.2 2l-.2.2h-.3c-1.2-.2-2.6-.2-4.3-.3a12 12 0 0 1 1.3.6c.6.2 1.5.7 1.3 1.4a1 1 0 0 1-.6.6.8.8 0 0 0-.3.5l-.4 1-.2.5-.2.5-1.3 3.3 5.4-.3h.3l.1.2c.2.2.3.5.3 2 0 1.7-.1 2-.2 2.2Zm-22.6-3.7a16 16 0 0 0 0 2.6c1.7-.2 3.5-.2 5.2-.2h11.4a51.7 51.7 0 0 1 5.3.2v-2.5l-5.3.2h-5.7c-4.3 0-8-.1-11-.3Zm7.5-.7h6.4l-1-.2.2-.6a56.5 56.5 0 0 0 2.5-7.5h-9.1v.2a23.7 23.7 0 0 1 2.2 7.3v.5Zm6.8-1 1.7.5 1.2-3.1.2-.5.2-.6.4-1a1.8 1.8 0 0 1 .7-1 6 6 0 0 0-.5-.2 11.5 11.5 0 0 0-1.8-.7 57.8 57.8 0 0 1-2.1 6.7Zm-9.2-2.7a18.8 18.8 0 0 1 .7 3l1.8-.4a22.8 22.8 0 0 0-1.8-6.2l-1.7.4a33 33 0 0 1 1 3.2Zm-4-7.7a15 15 0 0 0 0 2.2l4.9-.2H235c1.9 0 3.5 0 4.9.2V18l-4 .2h-5.1v-2.7a4.2 4.2 0 0 1 .6-2 5.3 5.3 0 0 0-1-.2 13.5 13.5 0 0 0-1.4-.1h-.4v5H224l-4-.1Zm120.3 13.7h-6.8v-4.2h6.8Zm-5.8-1h4.8v-2.2h-4.8Zm-3 1h-6.5v-4.2h6.6Zm-5.5-1h4.6v-2.2h-4.6Zm-140.2 1h-6.8v-4.2h6.8Zm-5.8-1h4.8v-2.2h-4.8Zm-3 1h-6.5v-4.2h6.6Zm-5.5-1h4.6v-2.2h-4.6Zm332.6-.4h-9.8v-5h9.8Zm-8.8-1h7.8v-3h-7.8Zm15.2-6H483v-6.1h27.4Zm-26.4-1h25.4v-4.1H484Zm-365.6.3-.3-.2-2.6-1.8.6-.4a10.3 10.3 0 0 0 3.5-5.4l.2-.5.5.2a12.5 12.5 0 0 1 1.7.8c.4.2 1.2.7 1 1.4a.9.9 0 0 1-.6.6.6.6 0 0 0-.3.3 12 12 0 0 1-.8 1.8 10 10 0 0 1-2.6 3Zm-1.2-2 1.2.8a9.3 9.3 0 0 0 2-2.5 11 11 0 0 0 .8-1.6 1.6 1.6 0 0 1 .7-.9l-.4-.2a10.8 10.8 0 0 0-1.1-.5 11.5 11.5 0 0 1-3.2 4.9Zm155.7 2-.3-.2-2.6-1.8.6-.4a10.3 10.3 0 0 0 3.5-5.4l.2-.5.5.2a12.8 12.8 0 0 1 1.7.8c.4.2 1.2.7 1 1.4a.9.9 0 0 1-.6.6.6.6 0 0 0-.3.3 11.9 11.9 0 0 1-.9 1.8 10 10 0 0 1-2.5 3Zm-1.2-2 1.2.8a9.3 9.3 0 0 0 2-2.5 10.8 10.8 0 0 0 .8-1.6 1.6 1.6 0 0 1 .7-.9l-.4-.2a10.6 10.6 0 0 0-1.1-.5 11.5 11.5 0 0 1-3.2 4.9Zm-135.1 1.9-.3-.2-2.8-1.9.7-.4a8.7 8.7 0 0 0 3.7-5.2l.1-.5.5.2a18.8 18.8 0 0 1 1.8.8c.4.2 1.3.7 1 1.3a.9.9 0 0 1-.5.6.6.6 0 0 0-.3.4l-1 1.8a8.8 8.8 0 0 1-2.6 2.9Zm-1.2-2 1.2.8a8.1 8.1 0 0 0 2-2.4l1-1.7a1.6 1.6 0 0 1 .6-.8l-.3-.2-1.2-.6a9.7 9.7 0 0 1-3.3 4.8Zm155.7 2-.3-.2-2.8-1.9.7-.4a8.7 8.7 0 0 0 3.7-5.2l.1-.5.5.2a19.1 19.1 0 0 1 1.8.8c.4.2 1.3.7 1 1.3a.9.9 0 0 1-.6.6.6.6 0 0 0-.3.4l-.9 1.8a8.8 8.8 0 0 1-2.6 2.9Zm-1.3-2 1.3.8a8 8 0 0 0 2-2.4l.9-1.7a1.6 1.6 0 0 1 .7-.8l-.3-.2-1.3-.6a9.7 9.7 0 0 1-3.3 4.8ZM561.4 22h-8.2v-5.7h8.2Zm-7.2-1h6.2v-3.7h-6.2Zm-3 1H543v-5.7h8Zm-7.1-1h6v-3.7h-6Zm-3 1h-8v-5.7h8Zm-7-1h6v-3.7h-6Zm-384.2 1-.3-.2-2.7-1.4.4-.4a27.9 27.9 0 0 0 3.7-5.3l.2-.4.4.2a11 11 0 0 1 2.2 1c.7.6 1 .9 1 1.2a.6.6 0 0 1 0 .4 1 1 0 0 1-.8.4.6.6 0 0 0-.5.3 10.4 10.4 0 0 0-.7.9l-.2.2-.2.3-.2.2-2 2.3Zm-1.4-1.9 1.2.6c.4-.4 1-1 1.7-2a2.2 2.2 0 0 1 .2-.1l.2-.3.2-.2a12 12 0 0 1 .8-1 1.6 1.6 0 0 1 .7-.5l-.3-.2a10.1 10.1 0 0 0-1.5-.8 29.5 29.5 0 0 1-3.2 4.5ZM304.4 22l-3-1.5.4-.5a27.6 27.6 0 0 0 3.7-5.2l.2-.4.4.2a11 11 0 0 1 2.2 1c.7.6 1 .9 1 1.2a.6.6 0 0 1 0 .4 1 1 0 0 1-.8.4.6.6 0 0 0-.5.3 9.6 9.6 0 0 0-.7.9l-.4.5a1.2 1.2 0 0 0-.1.1l-2.1 2.4Zm-1.4-1.8 1.2.6c.4-.4 1-1 1.7-2a1.8 1.8 0 0 1 .2-.1l.4-.5a11.5 11.5 0 0 1 .8-1 1.6 1.6 0 0 1 .7-.5l-.3-.2a10 10 0 0 0-1.6-.8 29.2 29.2 0 0 1-3.1 4.5Zm-17.4 1.5-2.9-1.3.4-.5a35.4 35.4 0 0 0 3.1-5l.2-.5.5.2a11.3 11.3 0 0 1 2 1c1 .6 1.1.8 1.1 1a.6.6 0 0 1 0 .5 1.1 1.1 0 0 1-.7.4h-.1a.3.3 0 0 0-.3.2l-.6.7-.5.7-.4.4-.3.4a17.3 17.3 0 0 1-1.3 1.5Zm-1.4-1.7 1.1.5 1-1.2.4-.4.3-.4a24 24 0 0 0 1-1.4 1.4 1.4 0 0 1 .7-.5l-.3-.1a10.2 10.2 0 0 0-1.5-.8 37.8 37.8 0 0 1-2.7 4.3Zm-153.1 1.7-.3-.2-2.6-1.1.4-.5a35.2 35.2 0 0 0 3.1-5l.2-.5.5.2a11.3 11.3 0 0 1 2.1 1c.8.6 1 .8 1 1a.6.6 0 0 1 0 .5 1.1 1.1 0 0 1-.7.4h-.1a.3.3 0 0 0-.3.2l-.6.7-.5.7-.7.8a17.4 17.4 0 0 1-1.3 1.5Zm-1.4-1.7 1.2.5.9-1.2.7-.8a44 44 0 0 0 1-1.4 1.4 1.4 0 0 1 .7-.5l-.2-.1a10.1 10.1 0 0 0-1.6-.8 37.6 37.6 0 0 1-2.7 4.3Z"></path>
    <path fill="#fff" d="M88.7 45.1A43.5 43.5 0 1 1 45 1.6 43.5 43.5 0 0 1 88.7 45"></path>
    <path fill="#d1d1d0" d="M45.1 90.2a45.1 45.1 0 1 1 45.1-45 45.2 45.2 0 0 1-45 45m0-87a42 42 0 1 0 41.9 42 42 42 0 0 0-42-42"></path>
    <path fill="#474746" d="m15.4 22.6-.5.2a1.2 1.2 0 0 0-.2-.9 2.7 2.7 0 0 1 .4-.2h.2a.2.2 0 0 0 0 .2 1.8 1.8 0 0 1 0 .2 1.2 1.2 0 0 1 .1.5m5 .6a1.2 1.2 0 0 0-.7-.3l.6-.6a.5.5 0 0 0 .2-.3q0-.2-.6-.8l-1 1a1.8 1.8 0 0 1 .4 1.3 4.7 4.7 0 0 1-.8 1.8 1.4 1.4 0 0 0-.3 0 2 2 0 0 0-.4 0 4.9 4.9 0 0 0 .7-1.5 1.3 1.3 0 0 0 0-.9l-1 1.2-.5-.4-.3.4-.9-.8a1.5 1.5 0 0 0-.4 0 2.3 2.3 0 0 0 .3-1 1 1 0 0 0-.2-.6 3.7 3.7 0 0 0-.5-.6l.4-.5a3.8 3.8 0 0 1 .7.8l1-.3v.6a8 8 0 0 0-.8.3 1.8 1.8 0 0 1-.1.9l.8-1 .8-.8a1.4 1.4 0 0 0-.6 0 2.2 2.2 0 0 0 .3-.9 1 1 0 0 0-.2-.6 3.4 3.4 0 0 0-.5-.6l.5-.5a3.7 3.7 0 0 1 .6.8l1.4-.5v.5l.2-.2.9.7-.4.4.2.2a10.6 10.6 0 0 1 .8.9 1 1 0 0 1 .2.5 1 1 0 0 1-.2.6c0 .2-.3.4-.6.8M16.6 21l-.5.3a4.1 4.1 0 0 0-.2-.8 4.9 4.9 0 0 1 .4-.2h.3a.1.1 0 0 0-.1 0V21a.4.4 0 0 0 0 .1m.7-.5-.5.2a1.2 1.2 0 0 0-.2-.9l.4-.2h.2a.1.1 0 0 0 0 .1 2 2 0 0 1 0 .3 1 1 0 0 1 .1.5m0 3 .8-1c0-.2-.2-.3-.3-.4l-.5.5-.4.5Zm1.3-4.6-.5.2a3.1 3.1 0 0 0-.2-.8 3.6 3.6 0 0 1 .5-.2c.1 0 .2-.1.2 0a.2.2 0 0 0 0 .1V18.8m-.5 2 .5-.6.6-.7-1 .3a2 2 0 0 1-.1 1m.6 1 .6-.7.6-.7-.4-.4-1.2 1.4.4.4M25.4 18.6a2 2 0 0 0-.6 0l-2 1.7-.4-.4 1-.9-.2-.3-.4.4-.5.3a1 1 0 0 1-.1-.2.8.8 0 0 1-.2-.2l.5-.3.4-.4v-.2l-1 .7-.5-.7-.6-.7 1-.7-.2-.2-.5.4-.5.4-.2-.2a.9.9 0 0 1-.1-.2l.5-.4.5-.4-.1-.2-.9.7a1.8 1.8 0 0 0-.4-.2 21.2 21.2 0 0 0 2-2l.6.2-.8.9.2.2 1-.7.2.2.4-.4-.7-1 .6-.4.7 1 1.1-.8.2.2 1.4 2.1a2.2 2.2 0 0 1 .4 1 .7.7 0 0 1 0 .2 1.4 1.4 0 0 1-.2.3 5.4 5.4 0 0 1-.7.5 1.4 1.4 0 0 0-.5-.4l.5-.4a.3.3 0 0 0 .1-.2 1.6 1.6 0 0 0-.3-.7L25 14.6l-.5.3a7.2 7.2 0 0 1 1 1.9 3.1 3.1 0 0 1 0 1.8m-3.8-1 .4-.3-.1-.2-.2.1-.2.2Zm.4.5.5-.3-.2-.2-.2.1-.2.2Zm1.9.4.8-.7a2.9 2.9 0 0 0-.2-1.2 6.8 6.8 0 0 0-.7-1.2l-.5.3-.2-.4-1 .8.1.2 1-.7.5.7.5.7-1 .7.2.2.5-.4.4-.3.2.2a.8.8 0 0 1 .2.2l-.5.3-.5.4Zm-1.3-1.7.4-.3-.1-.2-.2.2-.2.1Zm.4.6.2-.2.2-.1-.1-.2-.4.3ZM27 12.4a1.2 1.2 0 0 1-.2-.3 1 1 0 0 1-.1-.3l.5-.2.6-.2-.2-.3V11a4.4 4.4 0 0 1 .4-.2l.3-.1a.3.3 0 0 0 0 .2l.1.2.6-.2.5-.3a1.1 1.1 0 0 1 .2.3 1.2 1.2 0 0 1 .1.3l-.7.3-.7.3-.8.4-.7.3m.6 1.6a1.4 1.4 0 0 1-.2-.3 1.1 1.1 0 0 1 0-.3 3 3 0 0 0 .3-.2l.3-.1a3.1 3.1 0 0 0-.6-.7l.6-.4a2.5 2.5 0 0 1 .6.7l-.5.3 1.5-.7-.5.1a4.1 4.1 0 0 0-.1-.9 3.1 3.1 0 0 1 .5 0h.3a.2.2 0 0 1 0 .1.4.4 0 0 0-.1.3v.4l.3-.2.4-.1a1.2 1.2 0 0 1 .1.2 1.4 1.4 0 0 1 .2.4 7.4 7.4 0 0 0-.8.3l-.8.3-.7.4-.8.4m1.8 2a1.4 1.4 0 0 1-.4.2 10.3 10.3 0 0 0-.4-1l-.3-.6-.2-.5a6.3 6.3 0 0 0 .6-.2l.6-.3.6-.3.6-.3.3.5.2.5a8.9 8.9 0 0 0 .5 1 1.5 1.5 0 0 1-.3.2l-.4.1-.1-.2-1.1.5v.1a.6.6 0 0 0 0 .1.4.4 0 0 0 .1 0l-.3.3m0-1 .5-.3.5-.2-.3-.7-1.1.5Zm2.9-.4a1.7 1.7 0 0 1-.4.2 10.2 10.2 0 0 0-.5-1.2l-.5-1.2-.6-1.1a10.6 10.6 0 0 0-.6-1.2c.3 0 .6-.2 1-.4l.8-.4h.7v1.9a1.8 1.8 0 0 1 1.2 1 1 1 0 0 1 0 .9 1.1 1.1 0 0 1-.3.3 3.5 3.5 0 0 1-.5.2 1.4 1.4 0 0 0-.2-.2 1.3 1.3 0 0 0-.2-.3 3.4 3.4 0 0 0 .3-.1.8.8 0 0 0 .2-.2q.1-.1 0-.4a1.6 1.6 0 0 0-1.1-.8l-.1-1.4v-.1l-.7.3 1.1 2.4a15 15 0 0 0 .8 1.6 1.8 1.8 0 0 1-.4.2M34.5 9.4l-.5-.2a1.2 1.2 0 0 0 .3-.8 2.7 2.7 0 0 1 .4 0l.2.1a.2.2 0 0 0 0 .2 1.4 1.4 0 0 1-.1.2 1.2 1.2 0 0 1-.3.5m3.7 3.4a1.2 1.2 0 0 0-.4-.6l.9-.2a.5.5 0 0 0 .2 0 2 2 0 0 0 0-1l-1.4.2a1.8 1.8 0 0 1-.5 1.2 4.7 4.7 0 0 1-1.6 1 1.5 1.5 0 0 0-.3-.3 2.1 2.1 0 0 0-.3-.2 4.8 4.8 0 0 0 1.4-.7 1.3 1.3 0 0 0 .5-.8l-1.5.4-.1-.6-.4.1-.3-1.1a1.5 1.5 0 0 0-.3-.3 2.2 2.2 0 0 0 .8-.6 1 1 0 0 0 .2-.6 3.7 3.7 0 0 0 0-.8l.6-.1a3.7 3.7 0 0 1 0 1l1 .4-.3.5a7.7 7.7 0 0 0-.8-.3 1.8 1.8 0 0 1-.7.7l1.2-.3 1.2-.3a1.4 1.4 0 0 0-.4-.3 2.2 2.2 0 0 0 .7-.5 1 1 0 0 0 .2-.6 3.3 3.3 0 0 0 0-.8l.6-.1a3.7 3.7 0 0 1 .1 1l1.4.4-.3.4h.3l.2 1-.5.2v.2a11 11 0 0 1 .2 1.2 1 1 0 0 1-.2.6 1 1 0 0 1-.5.4l-1 .2M35.5 11l1.3-.3v-.5l-.7.1-.7.2Zm1-2.3h-.5A4 4 0 0 0 36 8a4.6 4.6 0 0 1 .5 0l.2.1a.2.2 0 0 0-.1.1v.1l-.1.1-.2.3m.8 0-.5-.1a1.2 1.2 0 0 0 .3-.8h.4l.2.1a.1.1 0 0 0 0 .2 1.9 1.9 0 0 1-.1.2 1 1 0 0 1-.3.4m.3 2 1-.3.9-.2-.2-.5-1.7.4v.5m.1-1.1.8-.2.9-.2-1-.3a2 2 0 0 1-.7.7m1.6-1.3h-.5a3.2 3.2 0 0 0 .3-.8 4.5 4.5 0 0 1 .5 0l.2.1a.2.2 0 0 0-.2.1v.2l-.3.3a.6.6 0 0 0 0 .1M45 12.1a2 2 0 0 0-.5-.5L42 12v-.6h1.3v-.4H42a.7.7 0 0 1 0-.3.8.8 0 0 1 0-.2h1.2v-.2H42V8.4h1.2V8H41.9a.8.8 0 0 1 0-.2.8.8 0 0 1 0-.3H43.2v-.2H42a1.8 1.8 0 0 0-.2-.4 21.4 21.4 0 0 0 2.8-.3l.3.5-1.1.1v.3H45V8h.6V6.7h.8V8h1.3v.3l-.1 2.5a2.2 2.2 0 0 1-.2 1 .7.7 0 0 1-.3.1 1 1 0 0 1-.2.1 5.3 5.3 0 0 1-.8 0 1.4 1.4 0 0 0-.3-.6h.7a.3.3 0 0 0 .2 0 1.6 1.6 0 0 0 .2-.8v-2h-.5a7.3 7.3 0 0 1-.4 2 3 3 0 0 1-1.1 1.5m-2.3-3h.5v-.3h-.5Zm0 .6h.5v-.2h-.5Zm1.2 1.5L45 11a2.9 2.9 0 0 0 .5-1.1 6.7 6.7 0 0 0 .2-1.4h-.6V8H44v.3H45V10H44v.3H45a.8.8 0 0 1 0 .2.9.9 0 0 1 0 .3h-1.2Zm0-2.2h.5v-.2h-.5Zm0 .7h.5v-.2h-.5ZM49.5 12.3a1.7 1.7 0 0 0-.3-.3 2.4 2.4 0 0 0-.2-.4 3.9 3.9 0 0 0 1.9-1 3.6 3.6 0 0 0 .8-1.5l-1-.2-1-.1a1.9 1.9 0 0 1 .1-.4A1.6 1.6 0 0 1 50 8l1 .3 1 .2.1-.6a5.1 5.1 0 0 0 0-.6h.7l.4.2a1 1 0 0 0-.3.6l-.1.5L54 9l1.3.3v.3l-.8 2.4a2 2 0 0 1-.5.9.9.9 0 0 1-.4.1 1.2 1.2 0 0 1-.4 0 7 7 0 0 1-1-.1 1.5 1.5 0 0 0 0-.4 1.4 1.4 0 0 0 0-.4l.9.2a.5.5 0 0 0 .3 0 6.5 6.5 0 0 0 1-2.5l-1.9-.4a4.4 4.4 0 0 1-.9 1.7 4.3 4.3 0 0 1-2.1 1.3M56.5 14a1.1 1.1 0 0 0 0-.7l.7.4a.4.4 0 0 0 .2 0c.1 0 .3-.2.5-.6l-.8-.3v.1l-.6-.3a11 11 0 0 0 .9-1.2l1 .5.3-.4-1-.4h-.5a2.7 2.7 0 0 0-.2-.7 4.4 4.4 0 0 0 1.2 0l-.4-.5.5-.2a4.9 4.9 0 0 1 .5.6 2.6 2.6 0 0 0 .5-.2l-.6-.2-.6-.3a1 1 0 0 1 .1-.2.8.8 0 0 1 .2-.3 3.8 3.8 0 0 0 .3.2l.4.2.8.3h.1l.4.4a3.5 3.5 0 0 1-1.7.8l.8.3-.5 1a1 1 0 0 0 .5-.1 1 1 0 0 0 .3-.3l.1-.4 1.2.5a4 4 0 0 1-.6-2l.6.1a2.9 2.9 0 0 0 .2.7 5 5 0 0 0 .7-.3 2.1 2.1 0 0 1 .3.5v.2a.2.2 0 0 1-.1 0 .4.4 0 0 0-.3 0h-.4l.2.5a5.2 5.2 0 0 0 .9-.3 2.2 2.2 0 0 1 .2.4v.3a.2.2 0 0 1-.1 0 .4.4 0 0 0-.2 0H62a4.7 4.7 0 0 0 .8.7 2.7 2.7 0 0 0-.7.3 5.9 5.9 0 0 1-.6-.6l-.2.5a.4.4 0 0 0 0 .2h.1a.3.3 0 0 0 .1 0 .1.1 0 0 0 .1 0 2 2 0 0 0 .1-.2 1.6 1.6 0 0 0 .4.5 1 1 0 0 1-.2.3.4.4 0 0 1-.3 0 1 1 0 0 1-.3 0l-.3-.2a.6.6 0 0 1-.4-.3.4.4 0 0 1 0-.2 1.4 1.4 0 0 1 .1-.3l.2-.3-.6-.3a1.3 1.3 0 0 1-1.1.8 2.3 2.3 0 0 0-.2-.5.3.3 0 0 0 0 .2h-.1a1 1 0 0 1-.3-.1 1 1 0 0 1-.4-.2l-.5-.3-.3.3 1.4.6-.1.2a8 8 0 0 1-.5.8.8.8 0 0 1-.4.3.8.8 0 0 1-.6 0l-.8-.3m1.8.8a1.9 1.9 0 0 0 0-.6 5 5 0 0 0 1 .2 2.7 2.7 0 0 1-.2-.9l.5.1-.3-.1-.3-.1a.7.7 0 0 1 0-.3l.2-.2.5.3.4.2 1 .4h.1l.4.3a2.5 2.5 0 0 1-1.2.7 5 5 0 0 0 1 .7 2.2 2.2 0 0 0-.7.3 4.5 4.5 0 0 1-1-.9 5.3 5.3 0 0 1-1.4-.1m1.7-.5a1.9 1.9 0 0 0 .6-.2l-.4-.2-.5-.2a2 2 0 0 0 .3.6M62.5 17a2.3 2.3 0 0 0-.1-.4 2.4 2.4 0 0 0-.2-.4 3.6 3.6 0 0 0 1.4-.9 9.5 9.5 0 0 0 1-1.2l.5-.7a7.2 7.2 0 0 0 .4-.7l1 .8 1.1.7 1 .7a12.5 12.5 0 0 0 1 .8 5.7 5.7 0 0 0-.4.6l-.5.7-.7-.6-.2.3.4.3.3.3a1 1 0 0 1-.1.2 1 1 0 0 1-.2.3l-.4-.3-.4-.3-.2.3.5.4.5.3a1 1 0 0 1-.2.3 1 1 0 0 1-.2.2 2.1 2.1 0 0 0-.2-.2l-.3-.2.2.5a7.7 7.7 0 0 1-1-.1 4 4 0 0 0 .8 1 2 2 0 0 0-.7.2 3.5 3.5 0 0 1-1-1.8l-.2.4-1.4-.7-.7-.4.2-.6.6.3.5-.7-.2-.2-.3-.2a1 1 0 0 1 .2-.2c0-.2.1-.3.2-.3l.3.3.5.3.2-.3-.3-.2a3.9 3.9 0 0 0-.4-.3 1 1 0 0 1 .2-.2l.2-.3a3.3 3.3 0 0 0 .3.3l.3.2.3-.3-.8-.5a6 6 0 0 1-2.8 2.4m2.3.6.2.1.2.1.5.3a3.2 3.2 0 0 1 0-.8l-.5-.4Zm.8-3.5 2.8 2 .3-.3-1.4-1-1.4-1Zm.2 2.5.8.6.3-.3-.4-.3-.4-.3Zm.6 1.6a7.3 7.3 0 0 0 .7 0l-.4-.2-.4-.3a2.4 2.4 0 0 0 0 .5m.1-2.3.8.5.2-.3-.4-.3-.4-.3ZM68.8 22.1a1.3 1.3 0 0 1-.2-.3 6.3 6.3 0 0 0 .5-.4l.5-.5-.9-.6a2.4 2.4 0 0 0 .1-.3 2.4 2.4 0 0 0 0-.4 15 15 0 0 0 2.4 1.5l-.8-1-.9-.8a2.2 2.2 0 0 1 .5-.4l.6.8.7.8.2-.2-.5-.6-.5-.5.2-.2a1 1 0 0 1 .2-.2l.5.6.5.6.2-.1-1.2-1.3.5-.5a5.6 5.6 0 0 0 .5-.5l.9 1 .8 1 1.7 1.8-.5.5a5.6 5.6 0 0 0-.5.4l-.9-1-.8-.9-.2.2 1 1-.2.2a5.3 5.3 0 0 0 .7.2 2.4 2.4 0 0 1 0 .5v.2a.2.2 0 0 1-.1 0 .4.4 0 0 0-.2-.1l-.5-.2.4.5.3.3-.2.2a.9.9 0 0 1-.2.2L73 23l-.5-.6a3.8 3.8 0 0 1 .3.8h-.3l.3.3-.7.6a8.8 8.8 0 0 0-.7.7 1.6 1.6 0 0 1-.3-.3l-.3-.3.1-.1-1.6-1.8a.1.1 0 0 1 0 .1l-.4-.3m.8-.1 1.6 1.8.1-.2-.8-.9-.8-.9Zm.4-.4.8.8.8 1 .2-.2-1.6-1.8Zm1.2.1.4.6.5.5a6 6 0 0 0-.3-.6h.4a10.6 10.6 0 0 1-1-.5m.6-2.9.2.3.2.2.3-.3-.5-.5Zm0 2.3.5.5a5.3 5.3 0 0 0 .5.2l-.4-.5-.4-.4Zm.9-1.3.5.6.3-.3-.3-.3-.2-.2Zm1 1 .4.6.3-.2-.2-.3-.3-.3ZM14.2 30.3l-3-2.2.3-.8 4.5 1.2-.3.7-3.4-1 2.9 2-.4.9-3.5-1 3 2-.3.7-3.8-2.8.4-.8ZM13.5 34.4c-.3.8-1.2 1.3-2.7.8S8.8 33.7 9 33s1.2-1.3 2.8-.7 2 1.4 1.7 2.2m-3.9-1.3c-.1.5.2 1 1.4 1.4s1.7.2 1.9-.3-.2-1-1.4-1.3-1.7-.2-1.9.2M12.8 36.5l-.3 1.2a1 1 0 0 1-1.4 1 1 1 0 0 1-1-1s-.1.2-.5.2l-1.9.2.2-.8h1.6a.5.5 0 0 0 .5-.5v-.2l-1.8-.4.1-.7Zm-2.2.6a.6.6 0 0 0 .5.8c.6 0 .7-.1.8-.5l.1-.3-1.3-.3ZM12.1 39.7v.7l-2-.2 1.8 1.4-.1.8-2-1.6L7.2 42l.1-1 2.3-.8-2.1-.3V39ZM11.8 43l-.1 2H11v-1.3H9.9v1.2H9v-1.3h-2v-.8ZM11.8 47c0 .9-.6 1.7-2.3 1.8s-2.4-.6-2.4-1.5.6-1.6 2.3-1.7 2.4.6 2.4 1.4m-4 .3c0 .5.4.8 1.7.7s1.7-.4 1.7-1-.5-.7-1.8-.7-1.7.5-1.7 1M12 49.2l.1 1.3a1 1 0 0 1-1 1.4 1 1 0 0 1-1.2-.7c0 .2 0 .4-.5.6l-1.6.8-.1-.8 1.4-.6a.5.5 0 0 0 .4-.7v-.1l-2 .3-.1-.8ZM10 50.6a.6.6 0 0 0 .8.5c.5 0 .6-.3.6-.7V50l-1.4.2ZM8.8 56a2 2 0 0 1-.4-.8c-.3-1.2.5-2 1.8-2.4s2.4 0 2.7 1.2a2.3 2.3 0 0 1 0 1l-.7.1a1.4 1.4 0 0 0 0-.8c0-.6-.7-1-1.8-.7s-1.5 1-1.3 1.5a1.2 1.2 0 0 0 .4.7ZM13.3 55.6l.8 2-.7.2-.4-1.3-1.2.4.5 1.2-.7.2-.4-1.2-1.3.5.5 1.3-.6.3-.8-2ZM15 59.6l.5 1c.6 1 .2 2-1.2 2.7-1.3.8-2.4.4-2.9-.6l-.5-1Zm-3.2 2.5.1.2c.4.8 1.2.8 2 .3s1.4-1 1-1.8l-.2-.2ZM16.7 62.8l1.2 1.7-.6.4-.7-1.2-1 .7.7 1.1-.6.4-.7-1.1-1.1.8.8 1.1-.6.4-1.2-1.8ZM18.1 64.9l.5.6-2.2 2.9 3.3-1.6.5.6-4.4 2-.5-.7ZM20.4 67.7l1.5 1.5-.5.5-1-1-.8.8 1 1-.6.4-.9-1-1 1 1 1-.4.5-1.6-1.6ZM22.4 69.7l.6.5-2.6 2.9 1 .9-.4.5-1.6-1.4ZM25.7 72.2c.7.5.9 1.5-.1 2.9s-2 1.4-2.7 1-.9-1.6 0-3 2-1.4 2.8-.9m-2.4 3.3c.4.3 1 .1 1.7-.9s.7-1.6.3-1.9-1 0-1.7 1-.7 1.5-.3 1.8M27.4 73.5l1 .6a1.4 1.4 0 0 1-1.4 2.4l-.3-.2-1 1.5-.6-.3Zm-.2 2.4c.4.2.8 0 1-.4s.2-.7-.2-1h-.2l-.8 1.2ZM32.6 77 30 80l-.5-.2.7-3.8-1.6 3.4-.6-.2L30 75l1 .4-.6 3.5 2.1-2.8 1 .4-1.8 4.2-.6-.2ZM34.3 76.8l2 .6-.1.6-1.4-.4-.3 1.2 1.2.4-.2.6-1.2-.4-.4 1.3 1.4.5-.2.6-2.2-.7ZM37 77.6l.9.2.6 3.8.7-3.6.7.2-.9 4.5-.9-.2-.6-3.8-.7 3.5-.7-.1ZM41.2 79l-1-.1.1-.7 2.5.3v.7l-1-.1-.3 3.9-.8-.1ZM46.8 82h-1.4l-.3 1.1h-.7l1.2-4.6h.8l1.4 4.6h-.7Zm-.2-.6-.6-2.2-.5 2.2ZM50 80.2l1.2-.1.3 2.3a2.2 2.2 0 0 1-1 .4c-1.3.2-2.1-.7-2.3-2s.4-2.5 1.7-2.7a2.4 2.4 0 0 1 1 .1v.8a1.7 1.7 0 0 0-1-.2c-.7.1-1 .9-1 1.8.2 1 .7 1.6 1.4 1.5a1 1 0 0 0 .5 0l-.2-1.3H50ZM51.7 78l2-.6.2.7-1.3.3.2 1.2 1.3-.3.2.6-1.3.3.3 1.4 1.4-.4.2.7-2.2.5ZM54.5 77.3l.8-.3 2.4 3-1.1-3.4.6-.3 1.5 4.4-.8.3-2.4-3 1 3.4-.6.2ZM62.2 79a2 2 0 0 1-.7.5c-1.2.5-2.1-.1-2.7-1.3s-.4-2.4.7-3a2.3 2.3 0 0 1 .9-.1l.3.7a1.4 1.4 0 0 0-.8 0c-.6.3-.9 1-.4 2s1.2 1.3 1.7 1a1.1 1.1 0 0 0 .6-.5ZM62.9 76.6l-2.4-1.8.7-.4 1.6 1.2-.3-2 .7-.3.4 3 .9 1.5-.7.4ZM65.5 76.2l.5 1.6-.4.3-.6-1.6ZM68.3 70.3l1.7 3.5-.4.4-3.2-2.3 2.5 3-.5.4-3-3.5.8-.7 2.9 2-1.6-3.2.8-.7 3 3.5-.5.5ZM68.8 68.7l.5-.6 3.4 3.2-.6.5ZM70 67.5l.5-.7 3.7 1.3-2.8-2.3.4-.6 3.6 3-.6.6-3.6-1.2 2.7 2.3-.4.5ZM72.3 64.6l.4-.6 3.7 2.7-.4.5zM76.4 65.2a1.5 1.5 0 0 0 .7-.6.6.6 0 0 0-.3-.9c-.3-.2-.5 0-.9.1l-.4.2a1.3 1.3 0 0 1-1.3 0 1.2 1.2 0 0 1-.4-1.8 2.4 2.4 0 0 1 .5-.6l.6.4a1.7 1.7 0 0 0-.5.5.5.5 0 0 0 .1.8.7.7 0 0 0 .8 0l.4-.3a1.3 1.3 0 0 1 1.5 0 1.3 1.3 0 0 1 .4 2 1.7 1.7 0 0 1-.6.6ZM75.6 60.5l-.4.8-.6-.3 1.1-2.3.6.3-.4.8 3.5 1.8-.3.6ZM75.9 58.3l.4-1.1a1 1 0 0 1 1.6-.8 1 1 0 0 1 .7 1.2c.1-.2.2-.3.7-.3l1.8.2-.3.7-1.5-.1a.5.5 0 0 0-.7.3v.2l1.8.7-.3.7Zm2.2-.2a.6.6 0 0 0-.4-.9c-.5-.2-.7 0-.9.4v.3l1.2.5ZM79.8 55.6l-3 .4.2-.8 2-.2-1.6-1.3.3-.7 2.3 1.9 1.7.5-.2.7ZM78.2 49.6c0-.9.9-1.5 2.5-1.3s2.3 1 2.2 1.9-1 1.5-2.6 1.3-2.2-1.1-2.1-2m4 .6c0-.5-.3-.9-1.6-1s-1.7 0-1.8.5.4 1 1.6 1.1 1.8-.1 1.8-.6M78.5 47.3v-2h.7v1.3h1.2v-1.2h.7v1.3h2v.8ZM78.5 43v-.7l3.8-.3v-1.3l.6-.1.2 2ZM81.3 37.9l.3 1.3 1.1.1.1.8-4.7-.6-.1-.8 4.2-2 .2.7Zm-.6.2-2 1 2.2.1ZM77.6 37l-.3-1c-.3-.9 0-1.3.7-1.5a1 1 0 0 1 1.2.3 1 1 0 0 1 .9-1 1.2 1.2 0 0 1 1.6.9l.3 1.1Zm1.7-1.1-.2-.4a.6.6 0 0 0-.8-.4.6.6 0 0 0-.4.8l.1.3Zm1.9-.6-.1-.4a.6.6 0 0 0-.9-.4.6.6 0 0 0-.5.8l.1.4ZM76.1 32.7c-.3-.8 0-1.7 1.6-2.4s2.5-.1 2.8.7 0 1.7-1.6 2.3-2.5.2-2.8-.6m3.8-1.5c-.2-.4-.8-.6-2-.1s-1.4 1-1.2 1.4.7.6 2 .1 1.4-1 1.2-1.4M75.3 30.6l-.6-1a1 1 0 0 1 .5-1.7 1 1 0 0 1 1.3.2c0-.2 0-.4.3-.7l1.3-1.2.4.7-1.2 1a.5.5 0 0 0-.1.7v.2l1.8-1 .3.7Zm1.3-1.8a.6.6 0 0 0-1-.3.6.6 0 0 0-.2 1l.1.2 1.2-.6Z"></path>
    <g clip-path="url(#b)" style="mix-blend-mode:multiply;isolation:isolate">
      <path fill="#ffb900" d="M74.6 45.1a29.5 29.5 0 1 1-29.5-29.5 29.5 29.5 0 0 1 29.5 29.5"></path>
    </g>
    <g clip-path="url(#c)">
      <path fill="#86c9cf" d="M42.1 74.5a30 30 0 0 0 3 .1 29.5 29.5 0 0 0 26.6-16.8L57.1 18.2a29.4 29.4 0 0 0-33.3 6.6Z"></path>
      <path fill="#86c9cf" d="M45.1 74.6A29.5 29.5 0 0 0 62 21a48 48 0 0 1-5.6 15.8C46 56.2 43.7 68.2 43.6 74.5l1.5.1"></path>
      <path fill="#59b5ad" d="M45.1 74.6a29.5 29.5 0 0 0 26.6-16.8L60.4 27.2a56 56 0 0 1-4 9.5C45.8 56.2 43.6 68.2 43.5 74.5l1.5.1"></path>
      <path fill="#dddddc" d="M53.9 17a29.5 29.5 0 0 0-20.4 55.2Z"></path>
      <path fill="#e85620" d="m18.4 36.7-1-1.9A29.4 29.4 0 0 0 31 71a99 99 0 0 0-12.5-34.2"></path>
    </g>
    <g fill="#fff" clip-path="url(#d)">
      <path d="M22.6 60.5h14.1s16.6-19.3 22.1-37.9a98.5 98.5 0 0 1-25.1 17.1 70 70 0 0 0 11-.5c-5 6.7-14 14.7-22 21.3"></path>
      <path d="M24.3 43c2-2.6 8.9-2.4 15.7.8l.6.3 1.7-1.9c-8.4-3.3-16.2-3-18 .9"></path>
      <path d="M58.3 57.2c-.2-5.4-6-9.5-10.3-12.2-8-5.1-21.6-7.3-23.7-2 3.5-4.4 16.6-.2 22 4.7 8.4 6.8 2.2 13.8-7.2 10L38 59a28.3 28.3 0 0 0 6.2 2.6 21.8 21.8 0 0 0 5 .8c3.5.2 8.7-.9 9-5.2"></path>
    </g>
  </g>
</svg>